<?xml version="1.0" encoding="utf-8"?>
<!-- Generator: Adobe Illustrator 18.1.1, SVG Export Plug-In . SVG Version: 6.00 Build 0)  -->
<!DOCTYPE svg PUBLIC "-//W3C//DTD SVG 1.1//EN" "http://www.w3.org/Graphics/SVG/1.1/DTD/svg11.dtd">
<svg version="1.1" id="ps_x5F_cc_x5F_app_x5F_RGB" xmlns="http://www.w3.org/2000/svg" xmlns:xlink="http://www.w3.org/1999/xlink"
	 x="0px" y="0px" viewBox="0 0 240.001 233.9995" enable-background="new 0 0 240.001 233.9995" xml:space="preserve">
<g>
	<radialGradient id="SVGID_1_" cx="97.7105" cy="81.2863" r="143.4321" gradientUnits="userSpaceOnUse">
		<stop  offset="0" style="stop-color:#0E0E17;stop-opacity:0.85"/>
		<stop  offset="0.7669" style="stop-color:#0E0E17"/>
	</radialGradient>
	<rect x="10" y="10" fill-rule="evenodd" clip-rule="evenodd" fill="url(#SVGID_1_)" width="220" height="214.0004"/>
</g>
<g>
	<path fill-rule="evenodd" clip-rule="evenodd" fill="#31C5F0" d="M0,0v233.9995h240.001V0H0z M10,10h220.001v213.9995H10V10z"/>
</g>
<path fill-rule="evenodd" clip-rule="evenodd" fill="#31C5F0" d="M58,54.789c0-0.6601,1.4151-1.1543,2.2403-1.1543
	c6.4346-0.3301,15.8823-0.4951,25.7822-0.4951c27.7202,0,38.5151,15.1807,38.5151,34.6494
	c0,25.4102-18.4277,36.3013-41.0327,36.3013c-3.7949,0-5.1147-0.166-7.7549-0.166v38.4199c0,0.8262-0.33,1.1562-1.1552,1.1562
	H59.1553c-0.8252,0-1.1553-0.33-1.1553-1.1562V54.789z M75.75,107.9199c2.3101,0.164,4.125,0.164,8.085,0.164
	c11.7149,0,22.7178-4.125,22.7178-19.9648c0-12.7051-7.8677-19.1397-21.2329-19.1397c-3.96,0-7.7549,0.1651-9.5699,0.3301V107.9199z
	 M161.8223,96.039c-7.9199,0-10.5596,3.961-10.5596,7.2598c0,3.6308,1.8145,6.1054,12.375,11.5508
	c15.6748,7.5903,20.625,14.8501,20.625,25.5747c0,16.0058-12.2099,24.5859-28.7099,24.5859c-8.7451,0-16.1875-1.8164-20.4776-4.291
	c-0.6601-0.3301-0.8252-0.8242-0.8252-1.6504v-14.6836c0-0.9902,0.4952-1.3203,1.1553-0.8262
	c6.2696,4.125,13.5469,5.9414,20.1475,5.9414c7.9199,0,11.2197-3.3007,11.2197-7.7558c0-3.6309-2.3096-6.7656-12.375-12.0449
	c-14.1899-6.7657-20.1299-13.6958-20.1299-25.2447c0-12.8711,10.065-23.5957,27.5547-23.5957
	c8.5801,0,14.6377,1.3203,17.9375,2.8047c0.8252,0.4961,0.9902,1.3203,0.9902,1.9805v13.6953c0,0.8242-0.4951,1.3203-1.4853,0.9902
	C174.8106,97.6894,168.2579,96.039,161.8223,96.039z"/>
</svg>
