<?xml version="1.0" encoding="UTF-8" standalone="no"?>
<svg width="40px" height="32px" viewBox="0 0 40 32" version="1.1" xmlns="http://www.w3.org/2000/svg" xmlns:xlink="http://www.w3.org/1999/xlink">
    <defs></defs>
    <g stroke="none" stroke-width="1" fill="none" fill-rule="evenodd">
        <g transform="translate(-123.000000, -170.000000)" fill="#55ACEE">
            <g>
                <g transform="translate(123.000000, 170.000000)">
                    <path d="M35.2681739,8.08616216 C35.2848696,8.42767568 35.2911304,8.77340541 35.2911304,9.11491892 C35.2911304,19.6343784 27.3669565,31.7602162 12.8772174,31.7602162 C8.42573913,31.7602162 4.28730435,30.4426486 0.8,28.1827568 C1.41773913,28.2565405 2.04382609,28.2944865 2.67826087,28.2944865 C6.37217391,28.2944865 9.76765217,27.0211892 12.461913,24.8898919 C9.01634783,24.8245405 6.10504348,22.5267027 5.10330435,19.3645405 C5.58330435,19.4551892 6.07791304,19.5036757 6.58504348,19.5036757 C7.30504348,19.5036757 8.00208696,19.4088108 8.66156522,19.2275135 C5.0573913,18.4938919 2.34226087,15.279027 2.34226087,11.4211892 L2.34226087,11.3221081 C3.40452174,11.9187027 4.62121739,12.2770811 5.91095652,12.3192432 C3.79686957,10.8899459 2.40486957,8.45718919 2.40486957,5.69345946 C2.40486957,4.23675676 2.79304348,2.86859459 3.4733913,1.69227027 C7.35721739,6.5092973 13.1652174,9.67567568 19.712,10.0087568 C19.5784348,9.42481081 19.5095652,8.81978378 19.5095652,8.19367568 C19.5095652,3.80037838 23.0344348,0.239783784 27.3857391,0.239783784 C29.6521739,0.239783784 31.6994783,1.20318919 33.1373913,2.75054054 C34.930087,2.39216216 36.6163478,1.73021622 38.1398261,0.819513514 C37.5513043,2.67675676 36.3012174,4.23675676 34.6754783,5.22124324 C36.269913,5.0272973 37.7850435,4.60356757 39.2,3.96902703 C38.144,5.56697297 36.8083478,6.96675676 35.2681739,8.08616216 L35.2681739,8.08616216 Z"></path>
                </g>
            </g>
        </g>
    </g>
</svg>
