<?xml version="1.0" encoding="utf-8"?>
<!DOCTYPE svg PUBLIC "-//W3C//DTD SVG 1.1//EN" "http://www.w3.org/Graphics/SVG/1.1/DTD/svg11.dtd">
<svg version="1.1" id="Layer_1" xmlns="http://www.w3.org/2000/svg" xmlns:xlink="http://www.w3.org/1999/xlink" x="0px" y="0px"
	 viewBox="0 0 23.7 22.1" enable-background="new 0 0 23.7 22.1" xml:space="preserve">
<g>
	<path fill="#F1F2F2" d="M3.3,2.4h4.2v3.2H5.8v3h1.5v3.1H5.8v6.7H3.3V2.4z"/>
	<path fill="#F1F2F2" d="M8.4,2.4h2.5c0.7,0,1.2,0.1,1.5,0.3c0.4,0.2,0.6,0.4,0.8,0.8s0.3,0.7,0.4,1.2s0.1,1.2,0.1,2.2v1.4
		c0,1-0.1,1.8-0.2,2.2s-0.4,0.8-0.7,1.1S12,12,11.5,12h-0.7v6.5H8.4V2.4z M10.8,5.1v4.1c0.1,0,0.1,0,0.2,0c0.2,0,0.4-0.1,0.5-0.3
		c0.1-0.2,0.1-0.6,0.1-1.2V6.5c0-0.5-0.1-0.9-0.2-1.1C11.4,5.2,11.2,5.1,10.8,5.1z"/>
	<path fill="#F1F2F2" d="M20,11.8c0,1.6,0,2.8-0.1,3.4c0,0.7-0.2,1.3-0.4,1.8s-0.6,1-1,1.3c-0.4,0.3-0.9,0.4-1.4,0.4
		c-0.5,0-1-0.1-1.4-0.4s-0.7-0.7-1-1.3s-0.4-1.2-0.4-1.8c0-0.7-0.1-1.8-0.1-3.5V9c0-1.6,0-2.8,0.1-3.4s0.2-1.3,0.4-1.8s0.6-1,1-1.3
		s0.9-0.4,1.4-0.4c0.5,0,1,0.1,1.4,0.4s0.7,0.7,1,1.3s0.4,1.2,0.4,1.8S20,7.4,20,9V11.8z M17.6,6.5c0-0.7,0-1.2-0.1-1.4
		s-0.1-0.3-0.3-0.3c-0.1,0-0.2,0.1-0.3,0.3c-0.1,0.2-0.1,0.7-0.1,1.5V14c0,0.9,0,1.5,0.1,1.7s0.1,0.3,0.3,0.3c0.2,0,0.3-0.1,0.3-0.4
		c0-0.3,0.1-0.9,0.1-1.8V6.5z"/>
</g>
</svg>
