<svg id="rotation-widget" xmlns="http://www.w3.org/2000/svg" xmlns:xlink="http://www.w3.org/1999/xlink" preserveAspectRatio="xMidYMid" width="100%" height="100%" viewBox="0 0 24 24">
<path d="M11.978,2.874 C17.040,2.874 21.159,6.991 21.159,12.052 C21.159,17.112 17.040,21.229 11.978,21.229 C6.916,21.229 2.797,17.112 2.797,12.052 C2.797,6.991 6.916,2.874 11.978,2.874 M11.978,1.039 C5.893,1.039 0.961,5.970 0.961,12.052 C0.961,18.134 5.893,23.065 11.978,23.065 C18.062,23.065 22.995,18.134 22.995,12.052 C22.995,5.970 18.062,1.039 11.978,1.039 L11.978,1.039 Z" class="cls-1"/>
<path d="M12.148,0.910 L11.989,0.910 C12.532,0.910 12.972,1.350 12.972,1.893 L12.972,12.906 C12.972,13.449 12.532,13.889 11.989,13.889 L11.987,13.889 C11.444,13.889 11.003,13.449 11.003,12.906 L11.003,1.893 C11.003,1.350 11.605,0.910 12.148,0.910 Z" />
</svg>
