<svg id="hdpi" xmlns="http://www.w3.org/2000/svg" xmlns:xlink="http://www.w3.org/1999/xlink" preserveAspectRatio="xMidYMid" width="100%" height="100%" viewBox="0 0 28 16">
<path d="M21.000,15.000 L7.000,15.000 C3.134,15.000 -0.000,11.866 -0.000,8.000 C-0.000,4.134 3.134,1.000 7.000,1.000 L21.000,1.000 C24.866,1.000 28.000,4.134 28.000,8.000 C28.000,11.866 24.866,15.000 21.000,15.000 ZM21.026,10.883 C21.026,10.951 21.059,10.974 21.116,10.974 L21.894,10.974 C21.961,10.974 21.973,10.951 21.973,10.895 L21.973,6.624 C21.973,6.568 21.950,6.556 21.905,6.556 L21.105,6.556 C21.048,6.556 21.026,6.579 21.026,6.635 L21.026,10.883 ZM9.938,8.001 C9.938,6.579 8.859,6.295 8.220,6.295 C7.689,6.295 7.257,6.725 6.888,7.067 L6.879,4.601 C6.879,4.564 6.870,4.556 6.834,4.556 L6.061,4.556 C6.016,4.556 6.007,4.574 6.007,4.610 L6.007,10.948 C6.007,10.992 6.025,11.010 6.070,11.010 L6.825,11.010 C6.870,11.010 6.879,11.001 6.879,10.957 L6.879,7.706 C7.167,7.391 7.563,7.211 8.004,7.211 C8.634,7.211 8.994,7.671 8.994,8.364 L8.994,10.939 C8.994,10.992 9.012,11.010 9.057,11.010 L9.875,11.010 C9.920,11.010 9.938,10.992 9.938,10.948 L9.938,8.001 ZM14.961,10.234 L14.961,4.563 C14.961,4.536 14.952,4.518 14.907,4.518 L14.133,4.518 C14.097,4.518 14.079,4.527 14.079,4.572 L14.079,6.561 C13.908,6.534 13.639,6.507 13.387,6.507 C11.920,6.507 10.939,7.498 10.939,8.821 C10.939,10.307 11.911,11.063 13.162,11.063 C13.666,11.063 14.421,10.973 14.934,10.730 C14.970,10.712 14.979,10.703 14.979,10.667 C14.961,10.513 14.961,10.360 14.961,10.234 ZM17.664,6.445 C16.899,6.445 16.305,6.750 15.990,6.867 C15.972,6.876 15.972,6.894 15.972,6.903 C15.981,7.021 15.990,7.218 15.990,7.300 L15.990,12.908 C15.990,12.953 15.999,12.962 16.035,12.962 C16.071,12.953 16.672,12.908 16.879,12.890 C16.924,12.881 16.924,12.863 16.924,12.827 L16.924,10.933 C17.050,10.951 17.176,10.969 17.384,10.969 C18.662,10.969 20.021,10.270 20.021,8.632 C20.021,7.426 18.997,6.445 17.664,6.445 ZM21.510,3.980 C21.172,3.980 20.935,4.217 20.935,4.555 C20.935,4.893 21.150,5.130 21.499,5.130 C21.849,5.130 22.074,4.893 22.074,4.555 C22.074,4.228 21.871,3.980 21.510,3.980 ZM17.438,10.133 C17.266,10.133 17.077,10.124 16.924,10.079 L16.924,7.558 C17.176,7.469 17.447,7.321 17.762,7.321 C18.671,7.321 19.099,7.759 19.099,8.677 C19.099,9.874 18.311,10.133 17.438,10.133 ZM11.891,8.785 C11.891,7.849 12.343,7.156 13.369,7.156 C13.594,7.156 13.935,7.183 14.079,7.245 L14.079,10.288 C13.872,10.378 13.468,10.405 13.234,10.405 C12.442,10.405 11.891,9.955 11.891,8.785 Z" />
</svg>
