<svg id="flip-horizontal" xmlns="http://www.w3.org/2000/svg" xmlns:xlink="http://www.w3.org/1999/xlink" preserveAspectRatio="xMidYMid" width="100%" height="100%" viewBox="0 0 16 16">
<path d="M13.000,13.000 L11.000,13.000 C10.448,13.000 10.000,12.552 10.000,12.000 L10.000,4.000 C10.000,3.448 10.448,3.000 11.000,3.000 L13.000,3.000 C13.552,3.000 14.000,3.448 14.000,4.000 L14.000,12.000 C14.000,12.552 13.552,13.000 13.000,13.000 ZM8.000,14.000 C8.000,14.000 7.983,14.500 7.500,14.500 C7.017,14.500 7.000,14.000 7.000,14.000 L7.000,2.000 C7.000,2.000 6.937,1.344 7.500,1.344 C8.064,1.344 8.000,2.000 8.000,2.000 L8.000,14.000 ZM4.000,13.000 L2.000,13.000 C1.448,13.000 1.000,12.552 1.000,12.000 L1.000,4.000 C1.000,3.448 1.448,3.000 2.000,3.000 L4.000,3.000 C4.552,3.000 5.000,3.448 5.000,4.000 L5.000,12.000 C5.000,12.552 4.553,13.000 4.000,13.000 ZM4.000,4.000 L2.000,4.000 L2.000,12.000 L4.000,12.000 L4.000,4.000 Z"/>
</svg>
