<svg id="libraries-share" xmlns="http://www.w3.org/2000/svg" xmlns:xlink="http://www.w3.org/1999/xlink" preserveAspectRatio="xMidYMid" width="100%" height="100%" viewBox="0 0 60 40">
<path d="M59.974,35.664 L59.974,8.997 C59.974,8.997 32.674,28.046 30.020,29.036 C27.409,28.092 -0.026,8.997 -0.026,8.997 L-0.026,35.664 C-0.026,39.413 0.769,40.163 4.474,40.163 L55.474,40.163 C59.268,40.163 59.974,39.505 59.974,35.664 ZM59.931,3.703 C59.931,0.972 59.134,-0.004 55.474,-0.004 L4.474,-0.004 C0.708,-0.004 -0.026,1.167 -0.026,3.896 L0.019,4.316 C0.019,4.316 27.123,22.977 30.020,23.997 C33.079,22.812 59.974,3.896 59.974,3.896 L59.931,3.703 Z"/>
</svg>
