<?xml version="1.0" encoding="utf-8"?>
<!-- Generator: Adobe Illustrator 19.1.0, SVG Export Plug-In . SVG Version: 6.00 Build 0)  -->
<svg version="1.1" id="Layer_1" xmlns="http://www.w3.org/2000/svg" xmlns:xlink="http://www.w3.org/1999/xlink" x="0px" y="0px"
	 viewBox="-297 389 16 16" style="enable-background:new -297 389 16 16;" xml:space="preserve">
<style type="text/css">
	.st0{fill:#FFFFFF;}
</style>
<path class="st0" d="M-291.5,393.2c-0.5,0-1,0.5-1,1v9.5c0,0.5,0.5,1,1,1h9.5c0.5,0,1-0.5,1-1v-7c0-0.3-0.1-0.7-0.3-0.9l-2.3-2.3
	c-0.2-0.2-0.6-0.4-0.9-0.4L-291.5,393.2L-291.5,393.2z M-282,396.8v7h-9.5v-9.5h7v1.8c0,0.4,0.3,0.8,0.8,0.8L-282,396.8z
	 M-293,389.8c0-0.3,0.2-0.5,0.5-0.5s0.5,0.2,0.5,0.5v2.5c0,0.3-0.2,0.5-0.5,0.5s-0.5-0.2-0.5-0.5V389.8 M-297,393.8
	c0-0.3,0.2-0.5,0.5-0.5h2.5c0.3,0,0.5,0.2,0.5,0.5s-0.2,0.5-0.5,0.5h-2.5C-296.8,394.2-297,394-297,393.8"/>
</svg>
