<svg id="layer-vector" xmlns="http://www.w3.org/2000/svg" xmlns:xlink="http://www.w3.org/1999/xlink" preserveAspectRatio="xMidYMid" width="100%" height="100%" viewBox="0 0 18 18">
<path d="M16.000,12.000 L16.000,15.000 L13.000,15.000 L13.000,14.000 L5.000,14.000 L5.000,15.000 L2.000,15.000 L2.000,12.000 L3.000,12.000 L3.000,5.000 L2.000,5.000 L2.000,2.000 L5.000,2.000 L5.000,3.000 L13.000,3.000 L13.000,2.000 L16.000,2.000 L16.000,5.000 L15.000,5.000 L15.000,12.000 L16.000,12.000 ZM14.000,14.000 L14.973,14.000 L14.973,12.969 L14.000,12.969 L14.000,14.000 ZM3.000,14.000 L3.991,14.000 L4.000,13.000 L3.000,13.000 L3.000,14.000 ZM4.000,3.000 L3.000,3.000 L3.000,4.000 L4.000,4.000 L4.000,3.000 ZM13.974,5.000 L13.000,5.000 L13.000,4.000 L5.000,4.000 L5.000,5.000 L4.000,5.000 L4.000,12.000 L5.000,12.000 L5.000,13.000 L13.000,13.000 L13.000,12.000 L13.974,12.000 L13.974,5.000 ZM15.000,3.000 L14.000,3.000 L14.000,4.000 L15.000,4.000 L15.000,3.000 Z" />
</svg>
