<svg width="100%" height="100%" id="layer-visibility" viewBox="0 0 16 10" xmlns="http://www.w3.org/2000/svg"><path d="M8 .333C2.75.333 0 4.36 0 5c0 .638 2.75 4.667 8 4.667 5.248 0 8-4.03 8-4.667 0-.64-2.752-4.667-8-4.667zM8 8.59C6.036 8.59 4.444 6.982 4.444 5c0-1.982 1.592-3.59 3.556-3.59S11.555 3.017 11.555 5c0 1.982-1.59 3.59-3.555 3.59zM8 5c-.326-.372.53-1.795 0-1.795-.982 0-1.778.804-1.778 1.795 0 .99.796 1.795 1.778 1.795S9.778 5.99 9.778 5c0-.456-1.5.316-1.778 0z" stroke="none"  fill-rule="evenodd"/></svg>