<svg id="workspace" xmlns="http://www.w3.org/2000/svg" xmlns:xlink="http://www.w3.org/1999/xlink" preserveAspectRatio="xMidYMid" width="100%" height="100%" viewBox="0 0 16 16">
<path d="M-0.000,15.003 L-0.000,-0.000 L16.000,-0.000 L16.000,15.003 L-0.000,15.003 ZM15.038,0.983 L0.987,0.983 L0.987,14.013 L15.038,14.013 L15.038,0.983 ZM4.119,3.021 C4.544,2.996 5.169,2.996 5.844,2.996 C7.694,2.996 8.419,4.146 8.419,5.438 C8.419,7.128 7.194,7.911 5.694,7.911 C5.444,7.911 5.344,7.911 5.169,7.911 L5.169,10.632 C5.169,10.682 5.144,10.707 5.094,10.707 L4.069,10.707 C4.019,10.707 3.994,10.682 3.994,10.632 L3.994,3.096 L3.969,3.096 C3.969,3.046 4.069,3.021 4.119,3.021 ZM5.144,6.842 C5.294,6.842 5.419,6.842 5.694,6.842 C6.469,6.842 7.219,6.507 7.219,5.463 C7.219,4.618 6.694,4.040 5.794,4.040 C5.519,4.040 5.269,4.040 5.144,4.065 L5.144,6.842 ZM10.394,8.465 C9.444,8.017 9.044,7.545 9.044,6.800 C9.044,5.955 9.719,5.235 10.869,5.235 C11.444,5.235 11.844,5.334 12.069,5.409 C12.119,5.433 12.144,5.508 12.144,5.533 L12.144,6.452 C12.144,6.502 12.119,6.551 12.044,6.527 C11.744,6.328 11.319,6.204 10.894,6.204 C10.369,6.204 10.194,6.477 10.194,6.676 C10.194,6.924 10.319,7.073 11.019,7.446 C12.069,7.943 12.394,8.440 12.394,9.135 C12.394,10.204 11.569,10.775 10.469,10.775 C9.894,10.775 9.394,10.651 9.094,10.502 C9.044,10.477 9.044,10.452 9.044,10.402 L9.044,9.433 C9.044,9.359 9.069,9.334 9.119,9.384 C9.544,9.657 10.019,9.781 10.469,9.781 C10.994,9.781 11.219,9.558 11.219,9.260 C11.219,9.011 11.069,8.812 10.394,8.465 Z"/>
</svg>
