<svg id="layer-search" xmlns="http://www.w3.org/2000/svg" xmlns:xlink="http://www.w3.org/1999/xlink" preserveAspectRatio="xMidYMid" width="100%" height="100%" viewBox="0 0 18 18">
<path fill="#e6e6e6" d="M5.289,5.080 C4.845,5.844 4.623,6.682 4.623,7.594 C4.623,8.570 4.887,9.470 5.415,10.294 L2.991,12.718 C2.911,12.798 2.849,12.864 2.805,12.916 C2.761,12.968 2.719,13.044 2.679,13.144 C2.639,13.244 2.619,13.352 2.619,13.468 C2.619,13.584 2.639,13.692 2.679,13.792 C2.719,13.892 2.761,13.966 2.805,14.014 C2.849,14.062 2.913,14.128 2.997,14.212 C3.081,14.296 3.147,14.360 3.195,14.404 C3.243,14.448 3.317,14.490 3.417,14.530 C3.517,14.570 3.625,14.590 3.741,14.590 C3.857,14.590 3.965,14.570 4.065,14.530 C4.165,14.490 4.241,14.448 4.293,14.404 C4.345,14.360 4.411,14.298 4.491,14.218 L6.915,11.794 C7.739,12.322 8.639,12.586 9.615,12.586 C10.527,12.586 11.365,12.364 12.129,11.920 C12.893,11.476 13.499,10.870 13.947,10.102 C14.395,9.334 14.619,8.496 14.619,7.588 C14.619,6.680 14.395,5.844 13.947,5.080 C13.499,4.316 12.893,3.710 12.129,3.262 C11.365,2.814 10.529,2.590 9.621,2.590 C8.713,2.590 7.875,2.814 7.107,3.262 C6.339,3.710 5.733,4.316 5.289,5.080 ZM6.123,7.594 C6.123,6.954 6.279,6.366 6.591,5.830 C6.903,5.294 7.327,4.870 7.863,4.558 C8.399,4.246 8.983,4.090 9.615,4.090 C10.583,4.090 11.409,4.432 12.093,5.116 C12.777,5.800 13.119,6.624 13.119,7.588 C13.119,8.552 12.777,9.376 12.093,10.060 C11.409,10.744 10.585,11.086 9.621,11.086 C8.657,11.086 7.833,10.744 7.149,10.060 C6.465,9.376 6.123,8.554 6.123,7.594 L6.123,7.594 Z"/>
</svg>
