<svg id="stroke-inner" xmlns="http://www.w3.org/2000/svg" xmlns:xlink="http://www.w3.org/1999/xlink" preserveAspectRatio="xMidYMid" width="100%" height="100%" viewBox="0 0 16 16">
<path d="M13.000,14.000 L3.000,14.000 L2.000,14.000 L2.000,13.000 L2.000,3.000 L2.000,2.000 L3.000,2.000 L13.000,2.000 L14.000,2.000 L14.000,3.000 L14.000,13.000 L14.000,14.000 L13.000,14.000 ZM10.000,6.000 L6.000,6.000 L6.000,10.000 L10.000,10.000 L10.000,6.000 Z" class="cls-1"/>
    <path d="M16.000,13.000 L16.000,16.000 L13.000,16.000 L13.000,15.000 L3.000,15.000 L3.000,16.000 L0.000,16.000 L0.000,13.000 L1.000,13.000 L1.000,3.000 L0.000,3.000 L0.000,-0.000 L3.000,-0.000 L3.000,1.000 L13.000,1.000 L13.000,-0.000 L16.000,-0.000 L16.000,3.000 L15.000,3.000 L15.000,13.000 L16.000,13.000 ZM14.000,3.000 L13.000,3.000 L13.000,2.000 L3.000,2.000 L3.000,3.000 L2.000,3.000 L2.000,13.000 L3.000,13.000 L3.000,14.000 L13.000,14.000 L13.000,13.000 L14.000,13.000 L14.000,3.000 Z" >
</svg>
