<svg id="style-copy" xmlns="http://www.w3.org/2000/svg" xmlns:xlink="http://www.w3.org/1999/xlink" preserveAspectRatio="xMidYMid" width="100%" height="100%" viewBox="0 0 18 23">
    <title>
    Copy Properties
  </title>
  
  <path d="M16.000,19.000 L6.000,19.000 C6.000,19.000 4.000,19.047 4.000,17.000 C4.000,14.953 4.000,3.992 4.000,2.000 C4.000,0.008 6.000,-0.000 6.000,-0.000 L10.000,-0.000 C10.000,-0.000 10.000,3.029 10.000,5.000 C10.000,6.971 12.000,7.000 12.000,7.000 L18.000,7.000 C18.000,7.000 18.000,14.996 18.000,17.000 C18.000,19.004 16.000,19.000 16.000,19.000 ZM12.000,4.000 L12.000,-0.000 L18.000,5.000 C18.000,5.000 14.012,5.000 13.000,5.000 C11.989,5.000 12.000,4.000 12.000,4.000 ZM14.000,20.979 C14.000,20.979 14.044,23.000 12.000,23.000 C9.955,23.000 3.000,23.000 3.000,23.000 C3.000,23.000 0.000,23.182 0.000,19.944 C0.000,17.903 0.000,8.980 0.000,6.994 C0.000,4.701 2.000,5.000 2.000,5.000 C2.000,5.000 2.000,17.020 2.000,18.985 C2.000,20.950 4.000,20.979 4.000,20.979 L14.000,20.979 Z" class="cls-1"/>
</svg>
