<svg id="stroke-outer" xmlns="http://www.w3.org/2000/svg" xmlns:xlink="http://www.w3.org/1999/xlink" preserveAspectRatio="xMidYMid" width="100%" height="100%" viewBox="0 0 16 16">
<path d="M14.000,16.000 L2.000,16.000 L-0.000,16.000 L-0.000,14.000 L-0.000,2.000 L-0.000,-0.000 L2.000,-0.000 L14.000,-0.000 L16.000,-0.000 L16.000,2.000 L16.000,14.000 L16.000,16.000 L14.000,16.000 ZM14.000,11.000 L13.000,11.000 L13.000,5.000 L14.000,5.000 L14.000,2.000 L11.000,2.000 L11.000,3.000 L5.000,3.000 L5.000,2.000 L2.000,2.000 L2.000,5.000 L3.000,5.000 L3.000,11.000 L2.000,11.000 L2.000,14.000 L5.000,14.000 L5.000,13.000 L11.000,13.000 L11.000,14.000 L14.000,14.000 L14.000,11.000 Z"/>
</svg>
