<svg id="toggle-connected" xmlns="http://www.w3.org/2000/svg" xmlns:xlink="http://www.w3.org/1999/xlink" preserveAspectRatio="xMidYMid" width="100%" height="100%" viewBox="0 0 16 16">
<path d="M10.994,12.000 C9.767,12.000 8.686,11.435 7.956,10.562 L10.829,10.562 C10.829,10.562 13.488,10.531 13.488,7.983 C13.488,5.434 10.829,5.403 10.829,5.403 L7.985,5.403 C8.714,4.550 9.783,4.000 10.994,4.000 C13.203,4.000 14.993,5.791 14.993,8.000 C14.993,10.209 13.203,12.000 10.994,12.000 ZM2.993,8.000 C3.026,7.073 3.993,7.000 3.993,7.000 L10.993,7.000 C10.993,7.000 11.993,6.944 11.993,8.000 C11.993,9.056 10.993,9.000 10.993,9.000 L3.993,9.000 C3.993,9.000 2.961,8.927 2.993,8.000 ZM1.480,7.983 C1.480,10.544 3.722,10.562 3.722,10.562 L7.039,10.562 C6.309,11.435 5.227,12.000 4.000,12.000 C1.791,12.000 -0.000,10.209 -0.000,8.000 C-0.000,5.791 1.791,4.000 4.000,4.000 C5.211,4.000 6.280,4.550 7.010,5.403 L3.722,5.403 C3.722,5.403 1.480,5.421 1.480,7.983 Z"/>
</svg>
