<svg id="layer-cloud-alert" xmlns="http://www.w3.org/2000/svg" xmlns:xlink="http://www.w3.org/1999/xlink" preserveAspectRatio="xMidYMid" width="100%" height="100%" viewBox="0 0 18 18">
<path d="M17.339,13.243 C16.887,13.036 16.404,12.932 15.891,12.932 C15.466,12.932 15.056,13.007 14.662,13.156 C14.268,13.305 13.920,13.509 13.619,13.768 C13.318,14.027 13.064,14.337 12.856,14.696 C12.648,15.055 12.510,15.503 12.440,15.913 L13.630,15.913 C13.760,15.405 14.036,14.923 14.456,14.594 C14.875,14.265 15.354,14.101 15.891,14.101 C16.245,14.101 16.578,14.174 16.888,14.321 C17.198,14.468 17.463,14.673 17.682,14.934 L16.522,15.954 L19.391,15.954 L19.391,12.983 L18.508,14.108 C18.182,13.739 17.792,13.451 17.339,13.243 ZM17.326,18.269 C16.906,18.599 16.427,18.763 15.891,18.763 C15.536,18.763 15.203,18.689 14.893,18.542 C14.583,18.395 14.318,18.191 14.099,17.930 L15.259,17.013 L11.997,17.013 L11.997,19.922 L13.273,18.756 C13.599,19.125 13.989,19.413 14.442,19.620 C14.894,19.828 15.377,19.932 15.891,19.932 C16.460,19.932 16.992,19.805 17.487,19.550 C17.981,19.296 18.391,18.947 18.715,18.504 C19.039,18.061 19.248,17.564 19.342,17.013 L18.152,17.013 C18.021,17.522 17.745,17.940 17.326,18.269 Z"/>
    <path d="M15.484,11.500 C13.463,11.500 12.352,12.683 11.738,13.998 C8.921,13.996 4.732,13.995 4.737,14.000 C3.727,13.829 3.003,12.542 3.003,11.594 C3.003,10.522 3.987,9.067 5.196,9.067 L5.368,9.075 C5.286,8.826 5.192,8.399 5.181,8.128 C5.113,6.481 6.550,5.187 8.190,5.455 C8.716,5.541 9.253,5.875 9.590,5.992 C9.993,5.176 10.665,4.375 11.734,4.375 C13.180,4.375 14.356,5.416 14.356,6.706 C14.356,6.978 14.200,7.556 14.102,7.797 C15.656,7.928 16.978,9.403 16.978,10.817 C16.978,11.068 16.928,11.279 16.891,11.500 C16.528,11.500 16.073,11.500 15.484,11.500 Z" />
</svg>
