<svg xmlns="http://www.w3.org/2000/svg" xmlns:xlink="http://www.w3.org/1999/xlink" preserveAspectRatio="xMidYMid" width="26" height="24" viewBox="0 0 26 24">
  <title>
    Cusror Eyedropper Graphic
  </title>
  <defs>
    <style>
      .cls-1{
        fill: #fff;
        opacity: 0.35;
      }

      .cls-1, .cls-6 {
        fill-rule: evenodd;
      }

      .cls-6 {
        fill: #191919;
      }
    </style>
  </defs>
  <g>
    <path d="M6.024,11.955 C6.024,11.955 6.489,14.011 8.716,14.011 C10.661,14.011 11.462,12.985 11.462,12.985 L15.009,12.985 L14.999,5.985 L12.999,5.985 L12.999,-0.088 L-0.199,11.955 L6.024,11.955 Z" class="cls-1"/>
    <path d="M6.754,10.982 C6.754,11.973 7.850,12.998 8.768,12.998 C9.895,12.998 10.686,12.661 11.031,11.985 L13.999,11.985 L13.999,7.004 L11.968,7.004 L11.968,2.671 L2.189,10.955 L6.754,10.982 ZM6.714,10.010 L4.786,9.991 L10.936,4.905 L10.926,7.004 L9.999,7.004 L10.003,7.966 C10.003,7.966 9.957,8.007 9.017,8.007 C7.809,8.007 6.805,9.037 6.714,10.010 L6.714,10.010 ZM7.713,10.429 C7.713,9.748 8.406,9.024 9.072,9.024 C9.737,9.024 10.467,9.734 10.467,10.429 C10.467,11.124 9.859,11.816 9.072,11.816 C8.286,11.816 7.713,11.110 7.713,10.429 Z" class="cls-6"/>
  </g>
</svg>
