<svg id="layer-video" xmlns="http://www.w3.org/2000/svg" xmlns:xlink="http://www.w3.org/1999/xlink" preserveAspectRatio="xMidYMid" width="100%" height="100%" viewBox="0 0 18 18">
<path d="M2.000,13.982 L2.000,3.000 L16.000,3.000 L16.000,13.982 L2.000,13.982 ZM15.000,4.000 L12.000,4.000 L5.000,4.000 L5.000,4.984 L4.000,4.984 L4.000,4.000 L3.000,4.000 L3.000,13.014 L15.000,13.000 L15.000,4.000 ZM5.000,6.984 L4.000,6.984 L4.000,5.984 L5.000,5.984 L5.000,6.984 ZM5.000,8.984 L4.000,8.984 L4.000,7.984 L5.000,7.984 L5.000,8.984 ZM5.000,10.984 L4.000,10.984 L4.000,9.984 L5.000,9.984 L5.000,10.984 ZM5.000,12.984 L4.000,12.984 L4.000,11.984 L5.000,11.984 L5.000,12.984 ZM7.000,9.000 C7.761,9.000 9.590,9.000 11.000,9.000 C11.999,9.000 12.000,10.000 12.000,10.000 L12.000,13.000 C12.000,13.000 11.960,13.000 11.000,13.000 C9.954,13.000 7.771,13.000 7.000,13.000 C6.521,13.000 6.000,13.000 6.000,13.000 L6.000,10.000 C6.000,10.000 5.995,9.000 7.000,9.000 ZM14.000,5.000 L13.000,5.000 L13.000,4.000 L14.000,4.000 L14.000,5.000 ZM14.000,7.000 L13.000,7.000 L13.000,6.000 L14.000,6.000 L14.000,7.000 ZM14.000,9.000 L13.000,9.000 L13.000,8.000 L14.000,8.000 L14.000,9.000 ZM14.000,11.000 L13.000,11.000 L13.000,10.000 L14.000,10.000 L14.000,11.000 ZM14.000,13.000 L13.000,13.000 L13.000,12.000 L14.000,12.000 L14.000,13.000 ZM11.000,8.000 C9.954,8.000 7.771,8.000 7.000,8.000 C6.059,8.000 6.000,7.000 6.000,7.000 L6.000,4.000 C6.005,4.000 6.082,4.000 7.000,4.000 C7.761,4.000 9.590,4.000 11.000,4.000 C11.965,4.000 12.000,4.000 12.000,4.000 L12.000,7.000 C12.000,7.000 11.941,8.000 11.000,8.000 Z" />
</svg>
