<svg id="layer-1-mask" xmlns="http://www.w3.org/2000/svg" xmlns:xlink="http://www.w3.org/1999/xlink" preserveAspectRatio="xMidYMid" width="100%" height="100%" viewBox="0 0 18 18">
<path stroke="red" d="M16.000,13.000 C16.000,14.975 14.000,15.000 14.000,15.000 L3.016,15.009 C3.016,15.009 1.000,14.986 1.000,13.010 L1.000,4.015 C1.000,1.996 3.016,2.016 3.016,2.016 L14.016,2.016 C14.016,2.016 16.016,2.023 16.016,4.015 L16.000,13.000 ZM15.000,4.015 C15.000,3.463 14.568,3.015 14.016,3.015 L3.016,3.015 C2.463,3.015 2.016,3.463 2.016,4.015 L2.016,13.010 C2.016,13.562 2.448,14.010 3.000,14.010 L14.000,14.010 C14.552,14.010 15.000,13.562 15.000,13.010 L15.000,4.015 ZM13.013,13.010 C12.035,13.010 6.756,13.010 4.032,13.010 C2.977,13.010 3.015,12.510 3.015,12.510 L3.015,12.011 C3.015,12.011 6.052,8.012 7.014,8.012 C7.977,8.012 8.012,10.511 9.014,10.511 C10.016,10.511 10.524,9.512 11.514,9.512 C12.503,9.512 14.013,12.011 14.013,12.011 C14.013,12.011 13.995,13.010 13.013,13.010 ZM11.281,7.531 C10.591,7.531 10.031,6.972 10.031,6.281 C10.031,5.591 10.591,5.031 11.281,5.031 C11.972,5.031 12.531,5.591 12.531,6.281 C12.531,6.972 11.972,7.531 11.281,7.531 Z"/>
</svg>
