<?xml version="1.0" encoding="utf-8"?>
<!-- Generator: Adobe Illustrator 18.1.1, SVG Export Plug-In . SVG Version: 6.00 Build 0)  -->
<svg version="1.1" id="layer-visibility" xmlns="http://www.w3.org/2000/svg" xmlns:xlink="http://www.w3.org/1999/xlink" x="0px"
	 y="0px" viewBox="0 0 960 560" xml:space="preserve">
<path d="M480,18.6C186,18.6,32,244.2,32,280c0,35.7,154,261.4,448,261.4c293.9,0,448-225.7,448-261.4C928,244.2,773.9,18.6,480,18.6
	L480,18.6z M480,481c-110,0-199.1-90-199.1-201S370,79,480,79s199.1,90,199.1,201C679.1,391,590,481,480,481z M480,280
	c-18.3-20.8,29.7-100.5,0-100.5c-55,0-99.6,45-99.6,100.5c0,55.4,44.6,100.5,99.6,100.5s99.6-45.1,99.6-100.5
	C579.6,254.5,495.6,297.7,480,280z"/>
<line fill="none" stroke-width="80" stroke-miterlimit="10" x1="60" y1="526" x2="902" y2="54"/>
</svg>
