<svg id="checkbox-checked" xmlns="http://www.w3.org/2000/svg" xmlns:xlink="http://www.w3.org/1999/xlink" preserveAspectRatio="xMidYMid" width="100%" height="100%" viewBox="0 0 16 16">
<path d="M13.000,15.000 L3.000,15.000 C1.895,15.000 1.000,14.105 1.000,13.000 L1.000,3.000 C1.000,1.895 1.895,1.000 3.000,1.000 L13.000,1.000 C14.105,1.000 15.000,1.895 15.000,3.000 L15.000,13.000 C15.000,14.105 14.105,15.000 13.000,15.000 ZM12.207,5.043 C11.816,4.652 11.184,4.652 10.793,5.043 L6.750,9.086 L5.207,7.543 C4.816,7.152 4.184,7.152 3.793,7.543 C3.402,7.934 3.402,8.566 3.793,8.957 L6.043,11.207 C6.238,11.402 6.494,11.500 6.750,11.500 C7.006,11.500 7.262,11.402 7.457,11.207 L12.207,6.457 C12.598,6.066 12.598,5.434 12.207,5.043 Z"/>
</svg>
