<svg version="1.1" id="libraries-CC" xmlns="http://www.w3.org/2000/svg" xmlns:xlink="http://www.w3.org/1999/xlink" x="0px" y="0px"
	 width="100%" height="100%" viewBox="0 0 14 11" enable-background="new 0 0 14 11" xml:space="preserve">
  <title>
    Creative Cloud Libraries
  </title>
  <path id="XMLID_864_" d="M12.5,1.7C11.5,0.8,10.2,0,8.8,0S6.2,0.6,5.3,1.5L5.1,1.8c-0.2,0-0.6,0-0.8,0c-1.1,0-2.2,0.5-3,1.3
	c-1.8,1.7-1.6,4.5,0,6.3c0.8,0.8,2.2,1.2,3.4,1.2h4h0.1c1.3,0,2.8-0.5,3.7-1.4C14.6,6.9,14.4,3.6,12.5,1.7L12.5,1.7z M4.7,9.6
	c-0.9,0-1.9-0.4-2.5-1C1.6,8,1.3,7.2,1.3,6.2s0.3-1.8,0.9-2.4c0.6-0.7,1.4-1,2.3-1c0.2,0,0.4,0,0.5,0c0.2,0,0.4,0.1,0.5,0.1
	C5.8,3,6.1,3.2,6.4,3.3c0.1,0.1,0.3,0.2,0.4,0.3L8,4.9c0.3,0.3,0.3,0.7,0,1C7.8,6.2,7.3,6.1,7,5.8L5.8,4.6C5.6,4.4,5.3,4.3,5,4.2
	c-0.4-0.1-1.1,0-1.8,0.5c-0.8,0.7-0.8,2.2,0,3c0.4,0.4,0.9,0.6,1.4,0.6h0.3l0.5,0.5C5.4,8.9,5.8,9.2,6,9.3l0.3,0.3L4.7,9.6L4.7,9.6z
	 M11.5,8.2C11.1,8.7,10,9.3,8.7,9.3c-1,0-2.1-0.5-2.8-1.1L4.3,6.6C4.1,6.4,4,6.2,4,6s0-0.3,0.2-0.5c0.2-0.2,0.8-0.3,1,0
	c0,0,1.8,1.9,2,2c0.6,0.4,1.8,0.7,2.6,0.3c0.3-0.2,0.6-0.3,0.8-0.6c0.5-0.5,0.8-1.2,0.8-1.8S11,4.1,10.6,3.6S9.4,2.8,8.7,2.8
	C8.3,2.8,8,2.9,7.6,3.1c-0.1,0-0.2,0.1-0.2,0.1l-1-0.9c0,0,0.1-0.1,0.2-0.2c0.6-0.5,1.4-0.7,2.3-0.7c1,0,2,0.4,2.7,1.2
	c0.8,0.8,1.2,1.7,1.2,2.8C12.7,6.5,12.3,7.5,11.5,8.2L11.5,8.2z"/>
</svg>