<svg version="1.1" id="libraries-delete" xmlns="http://www.w3.org/2000/svg" xmlns:xlink="http://www.w3.org/1999/xlink" x="0px" y="0px"
	 width="100%" height="100%" viewBox="0 0 12 14" enable-background="new 0 0 12 14" xml:space="preserve">
  <title>
    Delete
  </title>
  <path id="Delete_1_" d="M3.9,0.5C3.5,0.8,3.3,1.4,3.3,1.8v0.3c-0.3,0-0.6,0-0.8,0.1C2,2.4,1.5,2.6,1.1,2.7c-0.6,0.2-1,0.7-1,1
	s0.2,0.5,0.5,0.5h10.7c0.3,0,0.5-0.2,0.5-0.5c0-0.3-0.4-0.8-1-1c-0.4-0.2-1-0.4-1.5-0.5c-0.2,0-0.4,0-0.7,0V1.8c0-0.4-0.2-1-0.5-1.3
	C7.9,0.2,7.3,0,6.9,0H5.1C4.7,0,4.2,0.2,3.9,0.5L3.9,0.5z M4.4,2.2V1.1h3.2v1.1c-0.6,0-1.2,0-1.6,0C5.6,2.1,5,2.1,4.4,2.2L4.4,2.2z
	 M6.5,12.9V5.4H5.5v7.5h-1V5.4H3.3v7.5H2.3V5.4H1.2v6.5C1.2,13,2,14,3.1,14h5.8c1.2,0,1.9-1,1.9-2.2V5.4H9.7v7.5H8.7V5.4h-1v7.5H6.5
	L6.5,12.9z"/>
</svg>