<svg id="layer-5" xmlns="http://www.w3.org/2000/svg" xmlns:xlink="http://www.w3.org/1999/xlink" preserveAspectRatio="xMidYMid" width="100%" height="100%" viewBox="0 0 18 18">
<path stroke="red" d="M12.987,17.000 L5.756,17.000 C5.733,17.000 5.533,17.000 5.001,17.000 C3.091,17.000 3.005,15.000 3.005,15.000 L3.005,3.000 C3.005,0.980 5.001,1.000 5.001,1.000 L8.967,1.000 C9.378,1.000 10.233,1.475 10.525,1.750 L14.202,5.676 C14.494,5.951 15.016,6.179 15.016,7.000 L15.016,15.000 C15.016,17.000 12.987,17.000 12.987,17.000 ZM6.000,9.000 C5.448,9.000 5.016,9.448 5.016,10.000 L5.016,14.000 C5.016,14.552 5.448,15.000 6.000,15.000 L12.016,15.000 C12.568,15.000 13.016,14.552 13.016,14.000 L13.016,10.000 C13.016,9.448 12.568,9.000 12.016,9.000 L6.000,9.000 ZM8.984,2.000 L8.984,5.991 C8.984,5.991 8.985,6.969 10.011,6.969 C11.200,6.969 14.016,6.969 14.016,6.969 L8.984,2.000 Z"/>
</svg>
