<?xml version="1.0" encoding="utf-8"?>
<!-- Generator: Adobe Illustrator 19.1.0, SVG Export Plug-In . SVG Version: 6.00 Build 0)  -->
<svg version="1.1" id="layer-3" xmlns="http://www.w3.org/2000/svg" xmlns:xlink="http://www.w3.org/1999/xlink" x="0px" y="0px"
	 viewBox="-293 385 24 24" style="enable-background:new -293 385 24 24;" xml:space="preserve">
<path stroke="none" d="M-275.6,390.3v1.4c0,0.6,0.6,1.4,1.3,1.4c0.7-0.1,1.4-0.7,1.4-1.5v-2.7c0-0.6-0.6-1.4-1.4-1.4h-13.5c-0.7,0-1.4,0.7-1.4,1.4
	v2.7c0,0.7,0.6,1.4,1.4,1.4c0.6,0,1.4-0.6,1.4-1.4v-1.3h4.1v13.6h-1.4c-0.7-0.1-1.4,0.6-1.4,1.3s0.6,1.4,1.4,1.4h5.4
	c0.6,0,1.4-0.6,1.4-1.4c0-0.6-0.6-1.4-1.4-1.4h-1.4v-13.5H-275.6z"/>
</svg>
