<svg id="layer-visible" xmlns="http://www.w3.org/2000/svg" xmlns:xlink="http://www.w3.org/1999/xlink" preserveAspectRatio="xMidYMid" width="100%" height="100%" viewBox="0 0 16 16">
<path d="M8.000,3.969 C4.063,3.969 2.000,7.236 2.000,7.750 C2.000,8.262 4.063,11.430 8.000,11.430 C11.936,11.430 14.000,8.262 14.000,7.750 C14.000,7.236 11.936,3.969 8.000,3.969 L8.000,3.969 ZM8.000,10.563 C6.527,10.563 5.333,9.342 5.333,7.750 C5.333,6.158 6.527,4.867 8.000,4.867 C9.473,4.867 10.667,6.158 10.667,7.750 C10.667,9.342 9.473,10.563 8.000,10.563 ZM8.000,7.750 C7.755,7.452 8.398,6.308 8.000,6.308 C7.263,6.308 6.666,6.954 6.666,7.750 C6.666,8.545 7.263,9.192 8.000,9.192 C8.737,9.192 9.334,8.545 9.334,7.750 C9.334,7.384 8.209,8.004 8.000,7.750 Z" />
</svg>
