<svg id="artboard-add-artboard" xmlns="http://www.w3.org/2000/svg" xmlns:xlink="http://www.w3.org/1999/xlink" preserveAspectRatio="xMidYMid" width="100%" height="100%" viewBox="0 0 16 16">
<path d="M8.500,16.000 C4.357,16.000 1.000,12.643 1.000,8.500 C1.000,4.357 4.357,1.000 8.500,1.000 C12.643,1.000 16.000,4.357 16.000,8.500 C16.000,12.643 12.643,16.000 8.500,16.000 ZM8.500,2.035 C4.936,2.035 2.035,4.936 2.035,8.500 C2.035,12.064 4.936,14.965 8.500,14.965 C12.064,14.965 14.965,12.064 14.965,8.500 C14.965,4.936 12.064,2.035 8.500,2.035 ZM9.004,11.393 L8.004,11.393 L8.004,8.918 L5.505,8.918 L5.505,7.928 L8.004,7.928 L8.004,5.454 L9.004,5.454 L9.004,7.928 L11.502,7.928 L11.502,8.918 L9.004,8.918 L9.004,11.393 Z"/>
</svg>
