<svg id="layer-cloud-linked" xmlns="http://www.w3.org/2000/svg" xmlns:xlink="http://www.w3.org/1999/xlink" preserveAspectRatio="xMidYMid" width="100%" height="100%" viewBox="0 0 18 18">
<path d="M3.737,14.000 C3.729,13.992 13.240,14.000 13.240,14.000 C13.808,13.931 14.137,13.775 14.137,13.775 C15.221,13.355 15.978,12.383 15.978,10.817 C15.978,9.403 14.656,7.928 13.102,7.797 C13.200,7.556 13.356,6.978 13.356,6.706 C13.356,5.416 12.180,4.375 10.734,4.375 C9.665,4.375 8.993,5.176 8.590,5.992 C8.253,5.875 7.716,5.541 7.190,5.455 C5.550,5.187 4.113,6.481 4.181,8.128 C4.192,8.399 4.286,8.826 4.368,9.075 L4.196,9.067 C2.987,9.067 2.003,10.522 2.003,11.594 C2.003,12.542 2.727,13.829 3.737,14.000 Z" />
</svg>
