<svg id="toggle-connected" width="100%" height="100%" viewBox="0 0 16 8" xmlns="http://www.w3.org/2000/svg"><g stroke="none" fill-rule="evenodd"><path d="M11.765 6.37c-.7 0-1.33-.265-1.795-.7H8.7c.615.985 1.76 1.645 3.065 1.645 1.965 0 3.55-1.48 3.55-3.315S13.73.685 11.765.685c-1.32 0-2.47.67-3.08 1.67H9.94c.465-.445 1.11-.725 1.825-.725 1.4 0 2.535 1.065 2.535 2.37 0 1.305-1.135 2.37-2.535 2.37M5.25 4c0-.415.335-.75.75-.75h4c.415 0 .75.335.75.75s-.335.75-.75.75H6c-.415 0-.75-.335-.75-.75M4.235 6.37c.7 0 1.33-.265 1.795-.7H7.3c-.615.985-1.76 1.645-3.065 1.645C2.27 7.315.685 5.835.685 4S2.27.685 4.235.685c1.32 0 2.47.67 3.08 1.67H6.06c-.465-.445-1.11-.725-1.825-.725C2.835 1.63 1.7 2.695 1.7 4c0 1.305 1.135 2.37 2.535 2.37"/></g></svg>