<?xml version="1.0" encoding="utf-8"?>
<!-- Generator: Adobe Illustrator 18.1.1, SVG Export Plug-In . SVG Version: 6.00 Build 0)  -->
<svg version="1.1" id="Layer_1" xmlns="http://www.w3.org/2000/svg" xmlns:xlink="http://www.w3.org/1999/xlink" x="0px" y="0px"
	 viewBox="-471 273 16 16" enable-background="new -471 273 16 16" xml:space="preserve">
<path fill="#FFFFFF" d="M-465.5,277.2c-0.5,0-1,0.5-1,1v9.5c0,0.5,0.5,1,1,1h9.5c0.5,0,1-0.5,1-1v-7c0-0.3-0.1-0.7-0.3-0.9l-2.3-2.3
	c-0.2-0.2-0.6-0.4-0.9-0.4H-465.5z M-456,280.8v7h-9.5v-9.5h7l0,1.8c0,0.4,0.3,0.8,0.8,0.8L-456,280.8z M-467,273.8
	c0-0.3,0.2-0.5,0.5-0.5s0.5,0.2,0.5,0.5v2.5c0,0.3-0.2,0.5-0.5,0.5s-0.5-0.2-0.5-0.5V273.8 M-471,277.8c0-0.3,0.2-0.5,0.5-0.5h2.5
	c0.3,0,0.5,0.2,0.5,0.5s-0.2,0.5-0.5,0.5h-2.5C-470.8,278.2-471,278-471,277.8"/>
</svg>
