<svg id="tool-pen" viewBox="0 0 14 16" xmlns="http://www.w3.org/2000/svg"><path stroke="none" d="M9.62 1.622c.01 0 3.365 3.48 3.38 3.497-.015-.017-3.38-3.508-3.38-3.498zm2.365 4.206s.53-.285.88-.58c-.35.295-.88.58-.88.58zM8.77 11.59l-7.095 2.446L5.81 9.764c.44.17.945.077 1.295-.29.48-.49.48-1.288 0-1.784-.475-.492-1.245-.492-1.725 0-.36.377-.445.926-.26 1.38L1 13.34l2.365-7.34L8.28 3.39l3.025 3.136L8.77 11.59zm4.94-7.2l-1.85-1.914-1.06-1.102c-.675-.698-.765-.786-1.18-.786-.265 0-.525.11-.71.31-.445.466-.795 1.21-.86 1.355-.025.052-.04.1-.055.145-.055.02-.115.042-.17.073L2.91 5.08c-.235.124-.41.336-.495.594L.05 13.012c-.145.455.03.978.37 1.33.065.067.26.263.33.325.33.29.585.404.925.404.105 0 .21-.015.315-.05l7.095-2.448c.25-.088.455-.27.575-.506l2.535-5.064c.03-.057.05-.12.07-.18.06-.022.125-.048.18-.08.14-.07.85-.464 1.26-.894.395-.403.395-1.055.005-1.458z"  fill-rule="evenodd"/></svg>