<svg width="100%" height="100%" id="layer-7" viewBox="0 0 20 17" xmlns="http://www.w3.org/2000/svg">
    <path d="M19.05 16.98H.973c-.51 0-.923-.428-.923-.953V1.013C.05.488.466.06.975.06h8.76c.51 0 .923.428.923.953v.533c0 .15.118.272.264.272h8.13c.508 0 .922.427.922.953v13.26c0 .53-.414.95-.923.95zM.973.74C.828.74.71.864.71 1.014V16.03c0 .15.118.27.264.27H19.05c.145 0 .263-.12.263-.27V2.77c0-.15-.118-.272-.264-.272h-8.13c-.51 0-.93-.427-.93-.952v-.533c0-.15-.12-.272-.264-.272H.972zm8.775 4.167H.38V4.68h9.368c.266 0 .483-.224.483-.5v-.333c0-.4.32-.726.71-.726h8.71v.23h-8.71c-.266 0-.483.23-.483.5v.34c0 .4-.314.726-.702.726z" stroke="none" fill-rule="evenodd"/>
</svg>
