<svg id="style-link" xmlns="http://www.w3.org/2000/svg" xmlns:xlink="http://www.w3.org/1999/xlink" preserveAspectRatio="xMidYMid" width="100%" height="100%" viewBox="0 0 22 16">
   <title>
    Linked Style Properties
  </title>
  <path d="M20.000,12.000 C17.988,12.000 18.000,10.000 18.000,10.000 C18.000,9.982 18.000,9.726 18.000,7.000 C18.000,5.610 17.285,4.000 16.000,4.000 C13.465,4.000 13.000,4.000 13.000,4.000 C9.953,4.000 10.000,7.000 10.000,7.000 C10.000,7.000 9.832,9.000 8.000,9.000 C6.283,9.000 6.000,7.000 6.000,7.000 L6.000,6.000 C6.000,6.000 5.921,-0.000 14.000,-0.000 C22.079,-0.000 22.000,6.000 22.000,6.000 L22.000,10.000 C22.000,10.000 22.012,12.000 20.000,12.000 ZM9.000,12.000 C12.029,12.000 12.000,9.000 12.000,9.000 C12.000,9.000 12.191,7.000 14.012,7.000 C15.719,7.000 16.000,9.000 16.000,9.000 L16.000,10.000 C16.000,10.000 16.032,16.000 8.000,16.000 C-0.032,16.000 0.000,10.000 0.000,10.000 L0.000,6.000 C0.000,6.000 0.081,4.000 2.082,4.000 C4.082,4.000 4.070,6.000 4.070,6.000 C4.070,6.018 4.070,6.274 4.070,9.000 C4.070,10.390 4.722,12.000 6.000,12.000 C6.708,12.000 9.000,12.000 9.000,12.000 Z"/>
</svg>
