<svg id="layer-search-app" xmlns="http://www.w3.org/2000/svg" xmlns:xlink="http://www.w3.org/1999/xlink" preserveAspectRatio="xMidYMid" width="100%" height="100%" viewBox="0 0 16 16">
<path d="M4.289,5.080 C3.845,5.844 3.623,6.682 3.623,7.594 C3.623,8.570 3.887,9.470 4.415,10.294 L1.991,12.718 C1.911,12.798 1.849,12.864 1.805,12.916 C1.761,12.968 1.719,13.044 1.679,13.144 C1.639,13.244 1.619,13.352 1.619,13.468 C1.619,13.584 1.639,13.692 1.679,13.792 C1.719,13.892 1.761,13.966 1.805,14.014 C1.849,14.062 1.913,14.128 1.997,14.212 C2.081,14.296 2.147,14.360 2.195,14.404 C2.243,14.448 2.317,14.490 2.417,14.530 C2.517,14.570 2.625,14.590 2.741,14.590 C2.857,14.590 2.965,14.570 3.065,14.530 C3.165,14.490 3.241,14.448 3.293,14.404 C3.345,14.360 3.411,14.298 3.491,14.218 L5.915,11.794 C6.739,12.322 7.639,12.586 8.615,12.586 C9.527,12.586 10.365,12.364 11.129,11.920 C11.893,11.476 12.499,10.870 12.947,10.102 C13.395,9.334 13.619,8.496 13.619,7.588 C13.619,6.680 13.395,5.844 12.947,5.080 C12.499,4.316 11.893,3.710 11.129,3.262 C10.365,2.814 9.529,2.590 8.621,2.590 C7.713,2.590 6.875,2.814 6.107,3.262 C5.339,3.710 4.733,4.316 4.289,5.080 ZM5.123,7.594 C5.123,6.954 5.279,6.366 5.591,5.830 C5.903,5.294 6.327,4.870 6.863,4.558 C7.399,4.246 7.983,4.090 8.615,4.090 C9.583,4.090 10.409,4.432 11.093,5.116 C11.777,5.800 12.119,6.624 12.119,7.588 C12.119,8.552 11.777,9.376 11.093,10.060 C10.409,10.744 9.585,11.086 8.621,11.086 C7.657,11.086 6.833,10.744 6.149,10.060 C5.465,9.376 5.123,8.554 5.123,7.594 L5.123,7.594 Z" />
</svg>
