<svg id="align-right" xmlns="http://www.w3.org/2000/svg" xmlns:xlink="http://www.w3.org/1999/xlink" preserveAspectRatio="xMidYMid" width="100%" height="100%" viewBox="0 0 16 16">
<path d="M14.511,14.500 C14.225,14.500 13.991,14.275 13.991,14.000 L13.991,2.000 C13.991,1.725 14.225,1.500 14.511,1.500 C14.797,1.500 15.000,1.725 15.000,2.000 L15.000,14.000 C15.000,14.275 14.797,14.500 14.511,14.500 ZM10.943,13.000 L2.040,13.000 C1.468,13.000 1.000,12.550 1.000,12.000 L1.000,10.000 C1.000,9.450 1.468,9.000 2.040,9.000 L10.943,9.000 C11.515,9.000 11.983,9.450 11.983,10.000 L11.983,12.000 C11.983,12.550 11.515,13.000 10.943,13.000 ZM10.943,7.000 L6.024,7.000 C5.452,7.000 4.984,6.550 4.984,6.000 L4.984,4.000 C4.984,3.450 5.452,3.000 6.024,3.000 L10.943,3.000 C11.515,3.000 11.983,3.450 11.983,4.000 L11.983,6.000 C11.983,6.550 11.515,7.000 10.943,7.000 Z" />
</svg>
