<svg id="layer-group" xmlns="http://www.w3.org/2000/svg" xmlns:xlink="http://www.w3.org/1999/xlink" preserveAspectRatio="xMidYMid" width="100%" height="100%" viewBox="0 0 18 18">
<path d="M13.629,15.000 C9.450,15.000 2.943,15.000 2.943,15.000 C2.943,15.000 1.000,14.975 1.000,13.000 C1.000,11.025 1.000,8.000 1.000,8.000 L1.000,8.000 L1.000,8.000 L0.993,4.000 C0.993,4.000 0.955,2.000 2.991,2.000 L7.480,2.000 C8.448,2.000 8.478,3.000 8.478,3.000 C8.478,3.000 8.485,4.000 8.977,4.000 L13.966,4.000 C13.966,4.000 16.000,4.033 16.000,6.000 L16.000,8.000 L16.000,8.000 L17.000,8.000 C17.000,8.000 18.003,8.012 18.003,9.000 C18.003,11.330 15.003,15.000 13.629,15.000 ZM15.000,6.000 C15.000,5.086 13.967,5.000 13.967,5.000 L8.478,5.000 C7.463,5.000 7.480,3.500 7.480,3.500 C7.480,3.500 7.460,3.000 6.980,3.000 C6.501,3.000 2.990,3.000 2.990,3.000 C2.990,3.000 1.991,3.026 1.991,4.000 L1.998,8.000 L15.000,8.000 L15.000,6.000 Z"/>
</svg>
