<svg id="layer-5-linked" xmlns="http://www.w3.org/2000/svg" xmlns:xlink="http://www.w3.org/1999/xlink" preserveAspectRatio="xMidYMid" width="100%" height="100%" viewBox="0 0 18 18">
<path d="M12.956,17.000 L5.724,17.000 C5.702,17.000 5.502,17.000 4.970,17.000 C3.060,17.000 2.974,15.000 2.974,15.000 L2.974,3.000 C2.974,0.980 4.970,1.000 4.970,1.000 L9.043,1.000 C9.454,1.000 10.264,1.413 10.556,1.687 L14.234,5.614 C14.525,5.888 14.984,6.179 14.984,7.000 L14.984,15.000 C14.984,17.000 12.956,17.000 12.956,17.000 ZM7.498,15.031 C8.876,15.031 9.994,13.926 9.994,12.563 C9.994,11.882 9.598,11.585 8.995,11.452 L8.995,12.531 C8.995,12.531 8.984,14.015 7.498,14.015 C6.011,14.015 6.000,12.531 6.000,12.531 L6.000,11.458 C5.398,11.596 5.002,11.895 5.002,12.563 C5.002,13.926 6.120,15.031 7.498,15.031 ZM7.997,12.531 L7.997,9.500 C7.997,9.500 8.025,9.000 7.498,9.000 C6.971,9.000 6.999,9.500 6.999,9.500 L6.999,12.531 C6.999,12.531 7.035,13.015 7.498,13.031 C7.961,13.047 7.997,12.531 7.997,12.531 ZM5.002,9.471 C5.002,10.171 5.398,10.433 6.000,10.533 L6.000,9.500 C6.000,9.500 6.019,8.000 7.498,8.000 C8.977,8.000 8.995,9.500 8.995,9.500 L8.995,10.519 C9.598,10.409 9.993,10.142 9.993,9.471 C9.993,8.106 8.876,7.000 7.498,7.000 C6.120,7.000 5.002,8.106 5.002,9.471 ZM9.016,2.000 L9.016,5.500 C9.016,5.500 9.467,7.000 10.493,7.000 C11.682,7.000 13.984,7.000 13.984,7.000 L9.016,2.000 Z"/>
</svg>
