<svg id="layer-smartobject-linked-mask" xmlns="http://www.w3.org/2000/svg" xmlns:xlink="http://www.w3.org/1999/xlink" preserveAspectRatio="xMidYMid" width="100%" height="100%" viewBox="0 0 18 18">
<path d="M18.000,15.000 L18.000,18.000 L15.000,18.000 L15.000,17.000 L13.000,17.000 L13.000,18.000 L10.000,18.000 L10.000,15.000 L10.997,15.000 L10.994,12.969 L10.000,12.969 L10.000,10.000 L13.000,10.000 L13.000,11.000 L15.000,11.000 L15.000,10.000 L18.000,10.000 L18.000,13.000 L16.966,13.000 L16.966,15.000 L18.000,15.000 ZM10.991,17.000 L12.000,17.000 L12.000,16.000 L11.000,16.000 L10.991,17.000 ZM12.000,11.000 L10.991,11.000 L10.991,12.000 L12.000,12.000 L12.000,11.000 ZM15.000,12.029 L14.970,12.000 L13.000,12.000 L13.000,12.969 L12.020,12.969 L11.989,13.000 L11.989,15.000 L13.000,15.000 L13.000,16.000 L14.970,16.000 L15.000,15.971 L15.000,15.000 L16.000,15.000 L16.000,13.000 L15.000,13.000 L15.000,12.029 ZM17.000,12.000 L17.000,11.000 L16.000,11.000 L16.000,12.000 L17.000,12.000 ZM16.000,16.000 L16.000,17.000 L17.000,17.000 L17.000,16.000 L16.000,16.000 Z" />
<path d="M15.092,9.000 C15.589,8.478 15.898,7.777 15.898,7.000 C15.898,5.393 14.593,4.090 12.982,4.090 C12.118,4.090 11.406,4.402 10.872,4.997 L9.704,5.000 C10.164,3.803 11.505,3.000 12.989,3.000 C15.203,3.000 16.997,4.791 16.997,7.000 C16.997,7.732 16.785,8.410 16.441,9.000 L15.092,9.000 ZM5.008,4.102 C3.404,4.102 2.110,5.399 2.110,7.000 C2.110,8.601 3.411,9.898 5.015,9.898 C5.875,9.898 6.584,9.588 7.116,8.995 L8.292,9.000 L8.000,9.000 L8.000,9.641 C7.429,10.502 6.215,11.000 5.007,11.000 C2.794,11.000 1.000,9.209 1.000,7.000 C1.000,4.791 2.794,3.000 5.007,3.000 C6.491,3.000 7.960,3.741 8.292,5.000 L7.116,5.005 C6.584,4.412 5.868,4.102 5.008,4.102 ZM6.531,7.971 C5.978,7.971 5.508,7.629 5.508,6.984 C5.508,6.340 5.960,5.987 6.513,5.987 L11.524,5.987 C12.077,5.987 12.523,6.340 12.523,6.984 C12.523,7.629 12.095,7.971 11.542,7.971 L6.531,7.971 Z" />
</svg>
