<svg id="maskmode-pen" xmlns="http://www.w3.org/2000/svg" xmlns:xlink="http://www.w3.org/1999/xlink" preserveAspectRatio="xMidYMid" width="100%" height="100%" viewBox="0 0 14 14">
    <path fill="#e6e6e6" d="M13.958,3.560 L12.108,1.647 L11.048,0.545 C10.373,-0.154 10.283,-0.241 9.868,-0.241 C9.603,-0.241 9.343,-0.133 9.158,0.069 C8.713,0.535 8.363,1.279 8.298,1.424 C8.273,1.476 8.258,1.523 8.243,1.569 C8.188,1.590 8.128,1.610 8.073,1.641 L3.158,4.248 C2.923,4.372 2.748,4.584 2.663,4.843 L0.298,12.183 C0.153,12.638 0.328,13.160 0.668,13.512 C0.733,13.579 0.928,13.776 0.998,13.838 C1.328,14.128 1.583,14.241 1.923,14.241 C2.028,14.241 2.133,14.226 2.238,14.190 L9.333,11.743 C9.583,11.655 9.788,11.474 9.908,11.236 L12.443,6.173 C12.473,6.115 12.493,6.054 12.513,5.991 C12.573,5.971 12.638,5.945 12.693,5.914 C12.833,5.842 13.543,5.448 13.953,5.019 C14.348,4.615 14.348,3.964 13.958,3.560 ZM9.018,10.760 L1.923,13.207 L6.058,8.935 C6.498,9.105 7.003,9.012 7.353,8.645 C7.833,8.153 7.833,7.357 7.353,6.860 C6.878,6.369 6.108,6.369 5.628,6.860 C5.268,7.238 5.183,7.786 5.368,8.241 L1.248,12.509 L3.613,5.169 L8.528,2.562 L11.553,5.696 L9.018,10.760 Z"/>
        <rect x="0" y="0" width="14" height="14" opacity="0"/>
</svg>
