<svg id="text-center" xmlns="http://www.w3.org/2000/svg" xmlns:xlink="http://www.w3.org/1999/xlink" preserveAspectRatio="xMidYMid" width="100%" height="100%" viewBox="0 0 16 16">
<path d="M13.000,4.000 L3.000,4.000 C2.724,4.000 2.500,3.776 2.500,3.500 C2.500,3.224 2.724,3.000 3.000,3.000 L13.000,3.000 C13.276,3.000 13.500,3.224 13.500,3.500 C13.500,3.776 13.276,4.000 13.000,4.000 ZM4.000,7.000 C3.724,7.000 3.500,6.776 3.500,6.500 C3.500,6.224 3.724,6.000 4.000,6.000 L12.000,6.000 C12.276,6.000 12.500,6.224 12.500,6.500 C12.500,6.776 12.276,7.000 12.000,7.000 L4.000,7.000 ZM3.000,9.000 L13.000,9.000 C13.276,9.000 13.500,9.224 13.500,9.500 C13.500,9.776 13.276,10.000 13.000,10.000 L3.000,10.000 C2.724,10.000 2.500,9.776 2.500,9.500 C2.500,9.224 2.724,9.000 3.000,9.000 ZM6.500,12.000 L9.500,12.000 C9.776,12.000 10.000,12.224 10.000,12.500 C10.000,12.776 9.776,13.000 9.500,13.000 L6.500,13.000 C6.224,13.000 6.000,12.776 6.000,12.500 C6.000,12.224 6.224,12.000 6.500,12.000 Z" />
</svg>
