<svg id="layer-smartobject-linked-update" xmlns="http://www.w3.org/2000/svg" xmlns:xlink="http://www.w3.org/1999/xlink" preserveAspectRatio="xMidYMid" width="100%" height="100%" viewBox="0 0 18 18">
<path d="M12.989,11.000 C11.505,11.000 10.125,10.249 9.704,9.000 L10.872,9.003 C11.406,9.598 12.118,9.910 12.982,9.910 C14.593,9.910 15.898,8.607 15.898,7.000 C15.898,5.393 14.593,4.090 12.982,4.090 C12.118,4.090 11.406,4.402 10.872,4.997 L9.704,5.000 C10.164,3.803 11.505,3.000 12.989,3.000 C15.203,3.000 16.997,4.791 16.997,7.000 C16.997,9.209 15.203,11.000 12.989,11.000 ZM5.508,6.984 C5.508,6.340 5.960,5.987 6.513,5.987 L11.524,5.987 C12.077,5.987 12.523,6.340 12.523,6.984 C12.523,7.629 12.095,7.971 11.542,7.971 L6.531,7.971 C5.978,7.971 5.508,7.629 5.508,6.984 ZM5.008,4.102 C3.404,4.102 2.110,5.399 2.110,7.000 C2.110,8.601 3.411,9.898 5.015,9.898 C5.875,9.898 6.584,9.588 7.116,8.995 L8.292,9.000 C8.203,9.387 7.989,9.717 7.706,10.000 L3.000,10.000 L2.560,10.147 C1.617,9.415 1.000,8.285 1.000,7.000 C1.000,4.791 2.794,3.000 5.007,3.000 C6.491,3.000 7.960,3.741 8.292,5.000 L7.116,5.005 C6.584,4.412 5.868,4.102 5.008,4.102 Z" />
<path d="M5.339,11.243 C4.887,11.036 4.404,10.932 3.891,10.932 C3.466,10.932 3.056,11.007 2.662,11.156 C2.268,11.305 1.920,11.509 1.619,11.768 C1.318,12.027 1.064,12.337 0.856,12.696 C0.648,13.055 0.510,13.503 0.440,13.913 L1.630,13.913 C1.760,13.405 2.036,12.923 2.456,12.594 C2.875,12.265 3.354,12.101 3.891,12.101 C4.245,12.101 4.578,12.174 4.888,12.321 C5.198,12.468 5.463,12.673 5.682,12.934 L4.522,13.954 L7.391,13.954 L7.391,10.983 L6.508,12.108 C6.182,11.739 5.792,11.451 5.339,11.243 ZM5.326,16.269 C4.906,16.599 4.427,16.763 3.891,16.763 C3.536,16.763 3.203,16.689 2.893,16.542 C2.583,16.395 2.318,16.191 2.099,15.930 L3.259,15.013 L-0.003,15.013 L-0.003,17.922 L1.273,16.756 C1.599,17.125 1.989,17.413 2.442,17.620 C2.894,17.828 3.377,17.932 3.891,17.932 C4.460,17.932 4.992,17.805 5.487,17.550 C5.981,17.296 6.391,16.947 6.715,16.504 C7.039,16.061 7.248,15.564 7.342,15.013 L6.152,15.013 C6.021,15.522 5.745,15.940 5.326,16.269 Z" />
</svg>
