<svg baseProfile="basic" xmlns="http://www.w3.org/2000/svg" width="12" height="16" viewBox="44 42 12 16">
    <title>
        visibility
    </title>
    <path fill="#5E5D5A" d="M53.706 49.726v-2.258c0-2.092-1.702-3.794-3.794-3.794s-3.794 1.702-3.794 3.794v2.258h-1.026l-.018 7.243h9.65l.026-7.25h-1.044zm-6.898-2.258c0-1.712 1.393-3.104 3.104-3.104 1.712 0 3.104 1.393 3.104 3.104v2.258H51.98v-2.24c0-1.14-.927-2.068-2.068-2.068-1.14 0-2.07.928-2.07 2.07v2.238H46.81v-2.258zm4.484 2.258h-2.76v-2.24c0-.76.62-1.38 1.38-1.38s1.38.62 1.38 1.38v2.24zm-.645 4.865v.31h-1.38v-.3l.306-1.314c-.26-.127-.442-.392-.442-.7 0-.432.35-.782.79-.782.43 0 .78.35.78.78 0 .31-.18.576-.44.703l.396 1.312z"/>
</svg>
