<?xml version="1.0" encoding="utf-8"?>
<svg version="1.1" id="layer-visible" xmlns="http://www.w3.org/2000/svg" xmlns:xlink="http://www.w3.org/1999/xlink" x="0px" y="0px"
	 viewBox="0 0 24 24" style="enable-background:new 0 0 24 24;" xml:space="preserve">
<path stroke="none" d="M12,4.5C4.1,4.5,0,11,0,12c0,1,4.1,7.5,12,7.5c7.9,0,12-6.5,12-7.5C24,11,19.9,4.5,12,4.5L12,4.5z M12,17.8
	c-2.9,0-5.3-2.6-5.3-5.8c0-3.2,2.4-5.8,5.3-5.8c2.9,0,5.3,2.6,5.3,5.8C17.3,15.2,14.9,17.8,12,17.8z M12,12c-0.5-0.6,0.8-2.9,0-2.9
	c-1.5,0-2.7,1.3-2.7,2.9c0,1.6,1.2,2.9,2.7,2.9c1.5,0,2.7-1.3,2.7-2.9C14.7,11.3,12.4,12.5,12,12z"/>
</svg>
