<svg id="layer-smartobject-linked-alert-mask" xmlns="http://www.w3.org/2000/svg" xmlns:xlink="http://www.w3.org/1999/xlink" preserveAspectRatio="xMidYMid" width="100%" height="100%" viewBox="0 0 18 18">
<path d="M8.472,17.357 C8.388,17.189 5.005,10.474 5.005,10.474 C5.005,10.474 4.754,9.968 4.503,9.968 C4.252,9.968 4.002,10.474 4.002,10.474 C4.002,10.474 0.618,17.273 0.535,17.442 C0.451,17.610 0.451,18.032 0.952,18.032 C1.453,18.032 8.054,18.032 8.054,18.032 C8.555,18.032 8.555,17.526 8.472,17.357 ZM4.503,17.057 C4.196,17.057 3.946,16.806 3.946,16.495 C3.946,16.185 4.196,15.933 4.503,15.933 C4.810,15.933 5.060,16.185 5.060,16.495 C5.060,16.806 4.810,17.057 4.503,17.057 ZM5.005,12.785 C5.005,13.544 4.880,14.984 4.840,15.189 C4.840,15.210 4.827,15.315 4.767,15.315 L4.239,15.315 C4.199,15.315 4.174,15.217 4.163,15.189 C4.144,14.997 4.002,13.544 4.002,12.785 L4.002,12.088 C4.002,12.061 4.069,12.019 4.119,11.998 C4.239,11.950 4.339,11.953 4.489,11.953 C4.690,11.953 4.771,11.964 4.880,11.998 C4.931,12.019 5.005,12.067 5.005,12.088 L5.005,12.785 Z" />
<path d="M15.092,9.000 C15.589,8.478 15.898,7.777 15.898,7.000 C15.898,5.393 14.593,4.090 12.982,4.090 C12.118,4.090 11.406,4.402 10.872,4.997 L9.704,5.000 C10.164,3.803 11.505,3.000 12.989,3.000 C15.203,3.000 16.997,4.791 16.997,7.000 C16.997,7.732 16.785,8.410 16.441,9.000 L15.092,9.000 ZM5.008,4.102 C3.404,4.102 2.110,5.399 2.110,7.000 C2.110,8.017 2.638,8.909 3.432,9.426 L2.518,10.112 C1.600,9.379 1.000,8.265 1.000,7.000 C1.000,4.791 2.794,3.000 5.007,3.000 C6.491,3.000 7.960,3.741 8.292,5.000 L7.116,5.005 C6.584,4.412 5.868,4.102 5.008,4.102 ZM6.513,5.987 L11.524,5.987 C12.077,5.987 12.523,6.340 12.523,6.984 C12.523,7.629 12.095,7.971 11.542,7.971 L6.531,7.971 C5.978,7.971 5.508,7.629 5.508,6.984 C5.508,6.340 5.960,5.987 6.513,5.987 ZM7.116,8.995 L8.292,9.000 C8.162,9.565 7.778,10.019 7.268,10.355 L5.858,9.771 C6.345,9.631 6.772,9.379 7.116,8.995 Z" />
<path d="M18.000,15.000 L18.000,18.000 L15.000,18.000 L15.000,17.000 L13.000,17.000 L13.000,18.000 L10.000,18.000 L10.000,15.000 L10.997,15.000 L10.994,12.969 L10.000,12.969 L10.000,10.000 L13.000,10.000 L13.000,11.000 L15.000,11.000 L15.000,10.000 L18.000,10.000 L18.000,13.000 L16.966,13.000 L16.966,15.000 L18.000,15.000 ZM10.991,17.000 L12.000,17.000 L12.000,16.000 L11.000,16.000 L10.991,17.000 ZM12.000,11.000 L10.991,11.000 L10.991,12.000 L12.000,12.000 L12.000,11.000 ZM15.000,12.029 L14.970,12.000 L13.000,12.000 L13.000,12.969 L12.020,12.969 L11.989,13.000 L11.989,15.000 L13.000,15.000 L13.000,16.000 L14.970,16.000 L15.000,15.971 L15.000,15.000 L16.000,15.000 L16.000,13.000 L15.000,13.000 L15.000,12.029 ZM17.000,12.000 L17.000,11.000 L16.000,11.000 L16.000,12.000 L17.000,12.000 ZM16.000,16.000 L16.000,17.000 L17.000,17.000 L17.000,16.000 L16.000,16.000 Z" />
</svg>
