<?xml version="1.0" encoding="utf-8"?>
<svg version="1.1" id="layer-5-linked" xmlns="http://www.w3.org/2000/svg" xmlns:xlink="http://www.w3.org/1999/xlink" x="0px" y="0px"
	 viewBox="0 0 24 24" style="enable-background:new 0 0 24 24;" xml:space="preserve">
<g>
	<path stroke="none" d="M20.2,6.6l-5.5-5.9C14.2,0.3,13.3,0,12.7,0H6c0,0-3,0-3,3v18c0,0,0.1,3,3,3h12c0,0,3,0,3-3V9
		C21,7.8,20.6,7.1,20.2,6.6z M9,8.3c2.1,0,3.7,1.7,3.7,3.7c0,1.2-0.6,2-1.5,2.5V12c0,0,0-2.3-2.2-2.3C6.8,9.8,6.7,12,6.7,12v2.4
		C5.8,14,5.2,13.2,5.2,12C5.2,9.9,6.9,8.3,9,8.3z M9,11.2c0.8,0,0.7,0.8,0.7,0.8v6c0,0-0.1,0.8-0.7,0.7c-0.7,0-0.7-0.7-0.7-0.7v-6
		C8.2,12,8.2,11.2,9,11.2z M9,21.8c-2.1,0-3.7-1.7-3.7-3.7c0-1.2,0.6-2,1.5-2.5V18c0,0,0,1.9,2.2,1.9c2.2,0,2.2-1.9,2.2-1.9v-2.4
		c0.9,0.5,1.5,1.3,1.5,2.5C12.7,20.1,11,21.8,9,21.8z M14.2,8.3c-1.5,0-1.5-1.5-1.5-1.5V1.5l6.7,6.7C19.5,8.3,16,8.3,14.2,8.3z"/>
</g>
</svg>
