<svg version="1.1" id="libraries-addCharStyle" xmlns="http://www.w3.org/2000/svg" xmlns:xlink="http://www.w3.org/1999/xlink" x="0px" y="0px"
	 width="100%" height="100%" viewBox="0 0 14 14" enable-background="new 0 0 14 14" xml:space="preserve">
  <title>
    Add Character Style
  </title>
  <path id="XMLID_882_" d="M5.9,1.1l0,10.8c0,0-0.4,0.6-0.4,0.6c-0.3,0.3-1.8,0.6-1.8,0.6v0.7h6.9v-0.7c0,0-1.6-0.5-1.9-0.7
	c-0.3-0.2-0.4-0.6-0.4-0.6V1.1h2.3c0,0,1.1,0,1.6,0.4C12.7,2,13.3,4,13.3,4H14l-0.6-4H0.7L0,4l0.7,0c0,0,0.7-1.9,1.2-2.4
	c0.5-0.4,1.6-0.5,1.6-0.5L5.9,1.1"/>
</svg>