<svg width="10" height="10" viewBox="0 0 10 10" xmlns="http://www.w3.org/2000/svg">
    <title>
        search
    </title>
    <g fill="none" fill-rule="evenodd">
        <path d="M0 4c0 2.21 1.783 4 3.985 4 2.2 0 3.985-1.79 3.985-4 0-2.208-1.786-4-3.985-4C1.783 0 0 1.792 0 4zm1 .018c0-1.647 1.333-2.98 2.982-2.98 1.645 0 2.98 1.333 2.98 2.98C6.962 5.666 5.628 7 3.982 7 2.332 7 1 5.666 1 4.018zm5.79 3.767l1.714 2.002c.276.283.454.285.735 0l.55-.56c.27-.276.284-.455 0-.748L7.812 6.74 6.79 7.785z" fill-opacity=".5" fill="#fff"/>
        <path d="M1 4c0-1.658 1.34-3 3-3 1.656 0 3 1.342 3 3S5.656 7 4 7C2.34 7 1 5.658 1 4z" stroke-opacity=".697" stroke="#fff"/>
    </g>
</svg>
