<svg id="hdpi" xmlns="http://www.w3.org/2000/svg" xmlns:xlink="http://www.w3.org/1999/xlink" preserveAspectRatio="xMidYMid" width="100%" height="100%" viewBox="0 0 24 16">
<path d="M19.499,5.130 C19.150,5.130 18.935,4.893 18.935,4.555 C18.935,4.217 19.172,3.980 19.510,3.980 C19.871,3.980 20.074,4.228 20.074,4.555 C20.074,4.893 19.849,5.130 19.499,5.130 ZM15.383,10.969 C15.176,10.969 15.050,10.951 14.924,10.933 L14.924,12.827 C14.924,12.863 14.924,12.881 14.879,12.890 C14.672,12.908 14.071,12.953 14.035,12.962 C13.999,12.962 13.990,12.953 13.990,12.908 L13.990,7.300 C13.990,7.219 13.981,7.020 13.972,6.903 C13.972,6.894 13.972,6.876 13.990,6.867 C14.305,6.750 14.899,6.445 15.664,6.445 C16.997,6.445 18.021,7.426 18.021,8.632 C18.021,10.270 16.662,10.969 15.383,10.969 ZM15.762,7.321 C15.447,7.321 15.176,7.469 14.924,7.559 L14.924,10.079 C15.077,10.124 15.266,10.133 15.438,10.133 C16.311,10.133 17.099,9.874 17.099,8.677 C17.099,7.759 16.671,7.321 15.762,7.321 ZM11.162,11.063 C9.911,11.063 8.939,10.306 8.939,8.821 C8.939,7.498 9.920,6.507 11.387,6.507 C11.639,6.507 11.908,6.534 12.079,6.561 L12.079,4.572 C12.079,4.527 12.097,4.518 12.133,4.518 L12.907,4.518 C12.952,4.518 12.961,4.536 12.961,4.563 L12.961,10.234 C12.961,10.360 12.961,10.513 12.979,10.667 C12.979,10.703 12.970,10.712 12.934,10.730 C12.421,10.973 11.666,11.063 11.162,11.063 ZM12.079,7.246 C11.935,7.182 11.594,7.155 11.369,7.155 C10.343,7.155 9.891,7.849 9.891,8.785 C9.891,9.955 10.442,10.405 11.234,10.405 C11.468,10.405 11.872,10.378 12.079,10.288 L12.079,7.246 ZM7.057,11.010 C7.012,11.010 6.994,10.992 6.994,10.938 L6.994,8.364 C6.994,7.671 6.634,7.211 6.004,7.211 C5.563,7.211 5.167,7.391 4.879,7.707 L4.879,10.956 C4.879,11.001 4.870,11.010 4.825,11.010 L4.070,11.010 C4.025,11.010 4.007,10.992 4.007,10.947 L4.007,4.610 C4.007,4.574 4.016,4.556 4.061,4.556 L4.834,4.556 C4.870,4.556 4.879,4.565 4.879,4.601 L4.888,7.067 C5.257,6.725 5.689,6.295 6.220,6.295 C6.859,6.295 7.938,6.579 7.938,8.001 L7.938,10.947 C7.938,10.992 7.920,11.010 7.875,11.010 L7.057,11.010 ZM19.905,6.556 C19.950,6.556 19.973,6.568 19.973,6.624 L19.973,10.895 C19.973,10.951 19.961,10.974 19.894,10.974 L19.116,10.974 C19.059,10.974 19.026,10.951 19.026,10.883 L19.026,6.635 C19.026,6.579 19.048,6.556 19.105,6.556 L19.905,6.556 Z" />
</svg>
