<svg id="libraries-stock" xmlns="http://www.w3.org/2000/svg" xmlns:xlink="http://www.w3.org/1999/xlink" preserveAspectRatio="xMidYMid" width="100%" viewBox="0 0 16 16">
<path d="M0.007,14.967 L0.007,0.969 L14.984,0.969 L14.984,14.967 L0.007,14.967 ZM13.986,1.955 L1.006,1.955 L1.006,13.980 L13.986,13.980 L13.986,1.955 ZM3.879,9.344 C4.288,9.640 4.877,9.936 5.486,9.936 C6.026,9.936 6.265,9.679 6.265,9.373 C6.265,9.058 6.085,8.870 5.376,8.555 C4.228,8.042 3.829,7.499 3.829,6.621 C3.829,5.773 4.518,4.905 5.766,4.905 C6.395,4.905 7.014,5.043 7.234,5.221 C7.284,5.260 7.294,5.299 7.294,5.378 L7.294,6.177 C7.294,6.217 7.244,6.256 7.214,6.237 C6.854,6.029 6.325,5.862 5.756,5.862 C5.187,5.862 4.947,6.256 4.947,6.523 C4.947,6.819 5.097,7.075 5.816,7.401 C7.204,8.022 7.433,8.525 7.433,9.225 C7.433,10.360 6.495,10.922 5.486,10.922 C4.927,10.922 4.268,10.735 3.879,10.429 C3.829,10.380 3.799,10.330 3.799,10.222 L3.789,9.383 C3.789,9.354 3.839,9.314 3.879,9.344 ZM9.139,6.793 C9.169,6.457 9.209,5.704 9.249,5.487 C9.269,5.418 9.289,5.408 9.339,5.388 L10.238,5.221 C10.307,5.201 10.347,5.211 10.347,5.290 C10.327,5.556 10.307,6.467 10.297,6.793 L11.126,6.793 C11.196,6.793 11.216,6.812 11.216,6.881 L11.216,7.513 C11.216,7.572 11.196,7.592 11.126,7.602 L10.287,7.651 L10.287,9.383 C10.287,9.719 10.377,9.936 10.717,9.936 C10.857,9.936 10.966,9.916 11.076,9.886 C11.116,9.877 11.146,9.896 11.146,9.946 L11.146,10.626 C11.146,10.685 11.116,10.725 11.076,10.745 C10.847,10.873 10.527,10.922 10.238,10.922 C9.578,10.922 9.139,10.567 9.139,9.669 L9.139,7.641 L8.590,7.592 C8.560,7.592 8.530,7.562 8.530,7.513 L8.530,6.862 C8.530,6.812 8.550,6.793 8.600,6.793 L9.139,6.793 Z"/>
</svg>
