<?xml version="1.0" encoding="utf-8"?>
<svg version="1.1" id="layer-5" xmlns="http://www.w3.org/2000/svg" xmlns:xlink="http://www.w3.org/1999/xlink" x="0px" y="0px"
	 viewBox="0 0 24 24" style="enable-background:new 0 0 24 24;" xml:space="preserve">
<g>
	<path stroke="none" d="M20.2,6.6l-5.5-5.9C14.2,0.3,13.3,0,12.7,0H6c0,0-3,0-3,3v18c0,0,0.1,3,3,3h12c0,0,3,0,3-3V9
		C21,7.8,20.6,7.1,20.2,6.6z M18,19.5c0,0.8-0.7,1.5-1.5,1.5h-9C6.7,21,6,20.3,6,19.5v-6C6,12.7,6.7,12,7.5,12h9
		c0.8,0,1.5,0.7,1.5,1.5V19.5z M14.2,8.3c-1.5,0-1.5-1.5-1.5-1.5V1.5l6.7,6.7C19.5,8.3,16,8.3,14.2,8.3z"/>
</g>
</svg>
