<svg version="1.1" id="linkedAsset" xmlns="http://www.w3.org/2000/svg" xmlns:xlink="http://www.w3.org/1999/xlink"
	 x="0px" y="0px" width="100%" height="100%" viewBox="-13 14 13 13" enable-background="new -13 14 13 13" xml:space="preserve">
  <title>
    Linked Library Asset
  </title>
	<path id="PrefillD1" d="M-10.5,24c0,0,8.2,0,8.2,0c0.5-0.1,0.8-0.2,0.8-0.2c0.9-0.3,1.6-1.2,1.6-2.5c0-1.2-1.1-2.4-2.5-2.5
		c0.1-0.2,0.2-0.7,0.2-0.9c0-1.1-1-1.9-2.3-1.9c-0.9,0-1.5,0.7-1.8,1.3c-0.3-0.1-0.8-0.4-1.2-0.4c-1.4-0.2-2.6,0.9-2.6,2.2
		c0,0.2,0.1,0.6,0.2,0.8l-0.1,0c-1,0-1.9,1.2-1.9,2.1C-12,22.8-11.4,23.9-10.5,24z"/>
</svg>
