<svg id="layer-smartobject-mask" xmlns="http://www.w3.org/2000/svg" xmlns:xlink="http://www.w3.org/1999/xlink" preserveAspectRatio="xMidYMid" width="100%" height="100%" viewBox="0 0 18 18">
<path d="M17.000,15.000 L17.000,18.000 L14.000,18.000 L14.000,17.000 L12.000,17.000 L12.000,18.000 L9.000,18.000 L9.000,15.000 L9.997,15.000 L9.994,12.969 L9.000,12.969 L9.000,10.000 L12.000,10.000 L12.000,11.000 L14.000,11.000 L14.000,10.000 L17.000,10.000 L17.000,13.000 L15.966,13.000 L15.966,15.000 L17.000,15.000 ZM9.991,17.000 L11.000,17.000 L11.000,16.000 L10.000,16.000 L9.991,17.000 ZM11.000,11.000 L9.991,11.000 L9.991,12.000 L11.000,12.000 L11.000,11.000 ZM14.000,12.029 L13.970,12.000 L12.000,12.000 L12.000,12.969 L11.020,12.969 L10.989,13.000 L10.989,15.000 L12.000,15.000 L12.000,16.000 L13.970,16.000 L14.000,15.971 L14.000,15.000 L15.000,15.000 L15.000,13.000 L14.000,13.000 L14.000,12.029 ZM16.000,12.000 L16.000,11.000 L15.000,11.000 L15.000,12.000 L16.000,12.000 ZM15.000,16.000 L15.000,17.000 L16.000,17.000 L16.000,16.000 L15.000,16.000 Z" />
<path d="M8.000,9.000 L8.000,10.000 L6.000,10.000 L6.000,14.000 L8.000,14.000 L8.000,17.000 L5.001,17.000 C5.001,17.000 5.702,17.000 4.000,17.000 C2.922,17.000 3.000,16.000 3.000,16.000 C3.000,16.000 3.000,3.707 3.000,2.000 C3.000,0.984 4.000,1.000 4.000,1.000 L8.967,1.000 C9.378,1.000 10.233,1.475 10.525,1.750 L14.202,5.676 C14.494,5.951 15.016,6.179 15.016,7.000 L15.012,9.000 L8.000,9.000 ZM8.984,2.000 L8.984,5.991 C8.984,5.991 8.985,6.969 10.011,6.969 C11.200,6.969 14.016,6.969 14.016,6.969 L8.984,2.000 Z" />
</svg>
