<svg id="tool-pen" xmlns="http://www.w3.org/2000/svg" xmlns:xlink="http://www.w3.org/1999/xlink" preserveAspectRatio="xMidYMid" width="100%" height="100%" viewBox="0 0 16 16">
    <path d="M14.958,4.560 L13.108,2.647 L12.048,1.545 C11.373,0.846 11.283,0.759 10.868,0.759 C10.603,0.759 10.343,0.867 10.158,1.069 C9.713,1.535 9.363,2.279 9.298,2.424 C9.273,2.476 9.258,2.522 9.243,2.569 C9.188,2.590 9.128,2.610 9.073,2.641 L4.158,5.248 C3.923,5.372 3.748,5.584 3.663,5.843 L1.298,13.183 C1.153,13.638 1.328,14.160 1.668,14.512 C1.733,14.579 1.928,14.776 1.998,14.838 C2.328,15.128 2.583,15.241 2.923,15.241 C3.028,15.241 3.133,15.226 3.238,15.190 L10.333,12.743 C10.583,12.655 10.788,12.474 10.908,12.236 L13.443,7.172 C13.473,7.115 13.493,7.054 13.513,6.991 C13.573,6.971 13.638,6.945 13.693,6.914 C13.833,6.841 14.543,6.448 14.953,6.019 C15.348,5.615 15.348,4.964 14.958,4.560 ZM10.018,11.760 L2.923,14.207 L7.058,9.935 C7.498,10.105 8.003,10.012 8.353,9.645 C8.833,9.153 8.833,8.357 8.353,7.860 C7.878,7.369 7.108,7.369 6.628,7.860 C6.268,8.238 6.183,8.786 6.368,9.241 L2.248,13.509 L4.613,6.169 L9.528,3.562 L12.553,6.696 L10.018,11.760 Z" />
    <rect x="0" y="0" width="16" height="16" opacity="0"/>
</svg>
