<svg id="properties" xmlns="http://www.w3.org/2000/svg" xmlns:xlink="http://www.w3.org/1999/xlink" preserveAspectRatio="xMidYMid" width="100%" height="100%" viewBox="0 0 16 16">
<path d="M13.031,4.500 C12.099,4.500 11.323,3.860 11.101,2.997 L1.531,2.997 C1.255,2.997 1.031,2.774 1.031,2.497 C1.031,2.221 1.255,2.000 1.531,2.000 L11.103,1.998 C11.326,1.138 12.101,0.500 13.031,0.500 C14.136,0.500 15.031,1.396 15.031,2.500 C15.031,3.605 14.136,4.500 13.031,4.500 ZM1.531,6.966 L6.102,6.968 C6.324,6.106 7.100,5.466 8.031,5.466 C8.963,5.466 9.739,6.106 9.961,6.969 L14.531,6.970 C14.807,6.970 15.031,7.190 15.031,7.466 C15.031,7.742 14.807,7.966 14.531,7.966 L9.961,7.966 C9.738,8.827 8.962,9.466 8.031,9.466 C7.100,9.466 6.325,8.827 6.102,7.966 L1.531,7.966 C1.255,7.966 1.031,7.742 1.031,7.466 C1.031,7.190 1.255,6.966 1.531,6.966 ZM3.031,10.469 C3.961,10.469 4.736,11.106 4.960,11.966 L14.531,11.966 C14.807,11.966 15.031,12.190 15.031,12.466 C15.031,12.742 14.807,12.966 14.531,12.966 L4.961,12.966 C4.739,13.829 3.963,14.469 3.031,14.469 C1.927,14.469 1.031,13.573 1.031,12.469 C1.031,11.364 1.927,10.469 3.031,10.469 Z" class="cls-1"/>
</svg>
