<svg id="menu-commands" xmlns="http://www.w3.org/2000/svg" xmlns:xlink="http://www.w3.org/1999/xlink" preserveAspectRatio="xMidYMid" width="100%" height="100%" viewBox="0 0 16 16">
<path d="M13.441,7.247 L10.528,11.532 L4.397,11.532 C3.977,11.532 3.629,11.553 3.353,11.249 C3.078,10.946 2.941,10.831 2.941,10.467 C2.941,10.057 3.083,9.709 3.368,9.424 C3.652,9.140 3.995,8.997 4.397,8.997 L9.801,8.997 L14.126,2.375 L14.169,2.291 C14.197,2.226 14.180,2.161 14.120,2.095 C14.059,2.030 13.940,1.997 13.762,1.997 L6.301,1.997 L1.625,8.423 L1.512,8.605 C1.447,8.727 1.377,8.951 1.302,9.277 C1.228,9.604 1.191,9.972 1.191,10.383 C1.191,10.392 1.191,10.407 1.191,10.425 L1.191,10.439 C1.191,10.449 1.191,10.458 1.191,10.467 C1.191,11.307 1.508,11.707 2.143,12.356 C2.777,13.005 3.528,12.986 4.397,12.986 L11.284,12.986 L15.149,7.625 L15.190,7.541 C15.219,7.476 15.202,7.411 15.142,7.345 C15.081,7.280 14.962,7.247 14.785,7.247 L14.785,7.247 L13.441,7.247 Z"/>
</svg>
