<svg id="layer-cloud-linked-update-mask" xmlns="http://www.w3.org/2000/svg" xmlns:xlink="http://www.w3.org/1999/xlink" preserveAspectRatio="xMidYMid" width="100%" height="100%" viewBox="0 0 18 18">
<path d="M5.339,11.243 C4.887,11.036 4.404,10.932 3.891,10.932 C3.466,10.932 3.056,11.007 2.662,11.156 C2.268,11.305 1.920,11.509 1.619,11.768 C1.318,12.027 1.064,12.337 0.856,12.696 C0.648,13.055 0.510,13.503 0.440,13.913 L1.630,13.913 C1.760,13.405 2.036,12.923 2.456,12.594 C2.875,12.265 3.354,12.101 3.891,12.101 C4.245,12.101 4.578,12.174 4.888,12.321 C5.198,12.468 5.463,12.673 5.682,12.934 L4.522,13.954 L7.391,13.954 L7.391,10.983 L6.508,12.108 C6.182,11.739 5.792,11.451 5.339,11.243 ZM5.326,16.269 C4.906,16.599 4.427,16.763 3.891,16.763 C3.536,16.763 3.203,16.689 2.893,16.542 C2.583,16.395 2.318,16.191 2.099,15.930 L3.259,15.013 L-0.003,15.013 L-0.003,17.922 L1.273,16.756 C1.599,17.125 1.989,17.413 2.442,17.620 C2.894,17.828 3.377,17.932 3.891,17.932 C4.460,17.932 4.992,17.805 5.487,17.550 C5.981,17.296 6.391,16.947 6.715,16.504 C7.039,16.061 7.248,15.564 7.342,15.013 L6.152,15.013 C6.021,15.522 5.745,15.940 5.326,16.269 Z" />
<path d="M15.881,9.000 C15.596,7.742 14.763,6.780 13.400,6.780 C13.244,6.780 13.105,6.789 12.975,6.809 C12.737,6.844 12.505,6.705 12.427,6.477 C11.921,4.995 10.534,4.000 8.975,4.000 C6.960,4.000 5.320,5.644 5.320,7.665 C5.320,7.765 5.324,7.861 5.333,7.961 C5.347,8.120 5.285,8.275 5.166,8.380 C5.046,8.485 4.885,8.527 4.729,8.494 C4.580,8.461 4.425,8.445 4.270,8.445 C3.271,8.445 2.430,9.099 2.128,10.000 C1.703,10.175 1.317,10.356 0.990,10.521 C1.098,8.792 2.568,7.428 4.325,7.445 C4.440,4.975 6.482,3.000 8.975,3.000 C10.829,3.000 12.492,4.103 13.229,5.783 C13.285,5.781 13.342,5.780 13.400,5.780 C15.317,5.780 16.562,7.190 16.899,9.000 L15.881,9.000 ZM10.000,14.000 L8.555,14.000 C8.530,13.664 8.477,13.318 8.404,12.969 L10.000,12.969 L10.000,14.000 Z" />
<path d="M18.000,15.000 L18.000,18.000 L15.000,18.000 L15.000,17.000 L13.000,17.000 L13.000,18.000 L10.000,18.000 L10.000,15.000 L10.997,15.000 L10.994,12.969 L10.000,12.969 L10.000,10.000 L13.000,10.000 L13.000,11.000 L15.000,11.000 L15.000,10.000 L18.000,10.000 L18.000,13.000 L16.966,13.000 L16.966,15.000 L18.000,15.000 ZM10.991,17.000 L12.000,17.000 L12.000,16.000 L11.000,16.000 L10.991,17.000 ZM12.000,11.000 L10.991,11.000 L10.991,12.000 L12.000,12.000 L12.000,11.000 ZM15.000,12.029 L14.970,12.000 L13.000,12.000 L13.000,12.969 L12.020,12.969 L11.989,13.000 L11.989,15.000 L13.000,15.000 L13.000,16.000 L14.970,16.000 L15.000,15.971 L15.000,15.000 L16.000,15.000 L16.000,13.000 L15.000,13.000 L15.000,12.029 ZM17.000,12.000 L17.000,11.000 L16.000,11.000 L16.000,12.000 L17.000,12.000 ZM16.000,16.000 L16.000,17.000 L17.000,17.000 L17.000,16.000 L16.000,16.000 Z" />
</svg>
