<?xml version="1.0" encoding="utf-8"?>
<!-- Generator: Adobe Illustrator 19.1.0, SVG Export Plug-In . SVG Version: 6.00 Build 0)  -->
<svg version="1.1" id="layer-artboard-collapsed" xmlns="http://www.w3.org/2000/svg" xmlns:xlink="http://www.w3.org/1999/xlink"
	 x="0px" y="0px" viewBox="0 -69 612 861" style="enable-background:new 0 -69 612 861;" xml:space="preserve">
<path d="M514,722H278.8c-0.9,0-9.7,0-33.5,0c-90.9,0-89.6-89.6-89.6-89.6V184.6c0-90.4,89.6-89.6,89.6-89.6h134.4
	c18.4,0,65.4,36.4,65.4,36.4L565,262.5c25.7,25.7,38.5,56.4,38.5,56.4v313.5C603.6,722,514,722,514,722z M379.6,139.8v134.4
	c0,0-0.8,44.8,44.8,44.8s134.4,0,134.4,0L379.6,139.8z M178.1,50.2c-12.3,0-22.4-10.1-22.4-22.4V-38c0-12.3,10.1-22.4,22.4-22.4
	s22.4,10.1,22.4,22.4v65.8C200.5,40.1,190.5,50.2,178.1,50.2z M88.5,139.8H21.4C9.1,139.8-1,129.7-1,117.4S9,94.9,21.4,94.9h67.1
	c12.3,0,22.4,10.1,22.4,22.4C110.9,129.8,100.9,139.8,88.5,139.8z"/>
</svg>
