<svg id="rotation" xmlns="http://www.w3.org/2000/svg" xmlns:xlink="http://www.w3.org/1999/xlink" preserveAspectRatio="xMidYMid" width="100%" height="100%" viewBox="0 0 24 24">
<path d="M10.449,11.983 C10.449,11.173 11.109,10.513 11.919,10.513 C12.729,10.513 13.389,11.173 13.389,11.983 C13.389,12.792 12.729,13.452 11.919,13.452 C11.109,13.452 10.449,12.792 10.449,11.983 ZM22.253,8.431 C22.174,8.918 21.719,9.232 21.247,9.154 L17.004,8.384 C16.532,8.305 15.964,8.023 16.054,7.573 C16.129,7.123 16.846,6.561 17.302,6.656 L19.408,7.033 C18.088,4.927 15.951,3.372 13.357,2.916 C12.823,2.822 12.304,2.775 11.770,2.775 C7.385,2.775 3.629,5.980 2.875,10.411 C2.450,12.830 2.984,15.281 4.367,17.308 C5.750,19.335 7.825,20.670 10.214,21.110 C10.733,21.204 11.267,21.252 11.801,21.252 C16.187,21.252 19.927,18.031 20.697,13.616 L20.791,13.333 C20.901,12.830 21.200,12.453 21.672,12.453 C22.127,12.453 22.520,12.877 22.442,13.333 L22.394,13.914 C21.467,19.256 16.925,23.011 11.801,23.011 C11.173,23.011 10.544,22.948 9.915,22.839 C4.053,21.786 0.140,16.083 1.177,10.096 C2.089,4.770 6.646,1.015 11.770,1.015 C12.383,1.015 13.027,1.062 13.656,1.188 C16.768,1.738 19.330,3.607 20.901,6.137 L21.294,3.796 C21.388,3.325 21.829,2.995 22.300,3.089 C22.772,3.167 23.086,3.623 22.992,4.110 L22.253,8.431 Z"/>
</svg>
