<svg id="libraries-addLayerStyle" xmlns="http://www.w3.org/2000/svg" xmlns:xlink="http://www.w3.org/1999/xlink" preserveAspectRatio="xMidYMid" width="100%" height="100%" viewBox="0 0 56 52">
<path d="M11.323,19.182 C11.323,19.182 2.816,20.050 2.776,20.011 L2.776,18.985 L3.215,17.722 C4.214,15.670 4.653,15.433 4.893,15.433 L12.681,15.433 L13.679,12.080 C16.396,0.005 22.306,-0.034 30.175,-0.034 C32.051,-0.034 35.726,0.558 36.445,0.874 C36.725,1.031 36.844,1.268 36.764,1.505 L35.327,5.056 C35.247,5.372 35.087,5.569 34.848,5.490 C33.928,5.214 31.572,4.405 30.374,4.405 C27.059,4.405 23.409,4.140 20.729,11.725 L19.830,15.236 L30.334,15.433 L32.850,15.670 C33.130,15.670 33.809,16.499 33.889,16.696 L38.762,26.639 L39.081,26.481 L48.027,16.499 C48.267,16.222 49.385,15.670 49.705,15.670 L54.977,15.670 C55.336,15.670 55.416,16.933 55.177,17.131 C51.862,20.918 45.911,26.364 41.997,30.585 L49.785,43.645 C49.944,43.883 49.785,44.119 49.505,44.119 L43.075,44.119 C42.795,44.119 37.883,33.663 37.883,33.663 L37.683,33.663 C35.126,36.898 27.658,44.119 27.339,44.119 L20.589,44.119 C20.390,44.119 20.229,43.804 20.469,43.645 C24.862,38.753 30.813,34.491 35.087,29.756 L28.337,19.932 C26.779,20.011 18.073,20.050 18.073,20.050 C15.277,29.283 8.847,46.131 7.129,51.300 C7.049,51.694 6.890,51.814 6.490,51.853 C4.533,52.129 2.417,51.971 1.777,52.010 C1.458,52.010 0.899,50.787 1.059,50.432 C2.736,45.500 9.375,24.800 10.813,20.736 L11.323,19.182 Z" />
</svg>
