<svg id="add-new" xmlns="http://www.w3.org/2000/svg" xmlns:xlink="http://www.w3.org/1999/xlink" preserveAspectRatio="xMidYMid" width="100%" height="100%" viewBox="0 0 16 16">
<path d="M11.500,9.000 L9.000,9.000 L9.000,11.500 C9.000,12.052 8.552,12.500 8.000,12.500 C7.448,12.500 7.000,12.052 7.000,11.500 L7.000,9.000 L4.500,9.000 C3.948,9.000 3.500,8.552 3.500,8.000 C3.500,7.448 3.948,7.000 4.500,7.000 L7.000,7.000 L7.000,4.500 C7.000,3.948 7.448,3.500 8.000,3.500 C8.552,3.500 9.000,3.948 9.000,4.500 L9.000,7.000 L11.500,7.000 C12.052,7.000 12.500,7.448 12.500,8.000 C12.500,8.552 12.052,9.000 11.500,9.000 Z"/>
</svg>
