<svg id="libraries-cc" xmlns="http://www.w3.org/2000/svg" xmlns:xlink="http://www.w3.org/1999/xlink" preserveAspectRatio="xMidYMid" width="100%" height="100%" viewBox="0 0 56 40">
<path d="M41.197,35.419 C40.599,35.643 39.889,35.848 39.069,36.035 C37.201,36.446 36.082,36.651 35.708,36.651 L35.373,36.651 C31.527,36.651 27.981,35.344 24.732,32.731 C24.247,32.321 23.837,31.947 23.500,31.611 L22.717,30.827 L20.757,28.979 L15.661,23.939 C15.287,23.567 15.101,23.127 15.101,22.623 C15.101,22.119 15.287,21.681 15.661,21.307 C16.034,20.934 16.482,20.747 17.005,20.747 C17.527,20.747 17.975,20.934 18.349,21.307 L26.188,28.979 L26.245,28.979 C26.953,29.688 27.738,30.305 28.597,30.827 C30.650,32.097 32.909,32.731 35.373,32.731 C36.530,32.731 37.593,32.601 38.565,32.339 C39.125,32.191 39.759,31.985 40.469,31.723 C42.037,31.089 43.399,30.174 44.557,28.979 C47.095,26.515 48.365,23.528 48.365,20.019 C48.365,16.511 47.095,13.522 44.557,11.059 C42.018,8.595 38.957,7.363 35.373,7.363 C32.722,7.363 30.313,8.073 28.148,9.491 C27.065,8.670 25.890,7.979 24.621,7.419 C27.905,4.731 31.489,3.387 35.373,3.387 C37.538,3.387 39.647,3.826 41.701,4.703 C43.753,5.581 45.602,6.822 47.245,8.427 C50.529,11.639 52.173,15.510 52.173,20.047 C52.173,24.583 50.529,28.439 47.245,31.611 C45.527,33.329 43.511,34.598 41.197,35.419 L41.197,35.419 ZM7.821,32.507 C5.133,29.895 3.789,26.739 3.789,23.043 C3.789,19.347 5.133,16.192 7.821,13.579 C10.471,10.966 13.664,9.659 17.396,9.659 L17.453,9.659 C18.125,9.659 18.815,9.715 19.525,9.827 C20.271,9.939 20.961,10.089 21.597,10.275 C22.903,10.686 24.117,11.284 25.236,12.067 C25.685,12.366 26.188,12.739 26.749,13.187 L27.141,13.579 L28.093,14.531 L32.629,19.011 C33.001,19.347 33.189,19.777 33.189,20.299 C33.189,20.822 33.001,21.270 32.629,21.643 C32.255,21.979 31.807,22.147 31.285,22.147 C30.762,22.147 30.313,21.979 29.941,21.643 L25.349,17.107 L24.397,16.156 L23.949,15.763 C22.567,14.606 21.018,13.878 19.301,13.579 C18.703,13.468 18.087,13.411 17.453,13.411 L17.172,13.411 C14.559,13.486 12.338,14.438 10.509,16.267 C8.567,18.134 7.597,20.393 7.597,23.043 C7.597,25.694 8.558,27.962 10.481,29.847 C12.403,31.733 14.727,32.675 17.453,32.675 L19.189,32.675 L20.813,34.187 C21.709,35.047 22.586,35.793 23.445,36.427 L17.453,36.427 C13.682,36.427 10.471,35.120 7.821,32.507 L7.821,32.507 ZM35.373,-0.085 C32.647,-0.085 30.025,0.419 27.505,1.427 C24.984,2.435 22.753,3.891 20.813,5.795 L20.421,6.187 C19.487,6.038 18.498,5.963 17.453,5.963 C12.637,5.963 8.511,7.625 5.077,10.947 C1.679,14.307 -0.019,18.340 -0.019,23.043 C-0.019,27.747 1.679,31.779 5.077,35.139 C8.511,38.461 12.637,40.123 17.453,40.123 L35.373,40.123 L35.541,40.123 L35.708,40.123 C38.396,40.086 40.963,39.572 43.409,38.583 C45.854,37.594 48.047,36.167 49.989,34.299 C52.601,31.723 54.375,28.699 55.309,25.227 C56.241,21.755 56.241,18.293 55.309,14.839 C54.375,11.386 52.601,8.371 49.989,5.795 C45.919,1.875 41.047,-0.085 35.373,-0.085 L35.373,-0.085 Z"/>
</svg>
