<svg id="layer-text" xmlns="http://www.w3.org/2000/svg" xmlns:xlink="http://www.w3.org/1999/xlink" preserveAspectRatio="xMidYMid" width="100%" height="100%" viewBox="0 0 18 18">
<path d="M13.013,4.000 L13.013,5.000 C13.013,5.500 13.490,6.000 14.000,6.000 C14.510,6.000 15.000,5.500 15.000,5.000 L15.000,3.000 C15.000,2.500 14.510,2.000 14.000,2.000 L4.015,2.000 C3.505,2.000 3.000,2.500 3.000,3.000 L3.000,5.000 C3.000,5.500 3.490,6.000 4.000,6.000 C4.510,6.000 5.000,5.500 5.000,5.000 L5.000,4.000 L8.000,4.000 L8.000,14.000 L7.000,14.000 C6.490,14.000 6.000,14.500 6.000,15.000 C6.000,15.500 6.490,16.000 7.000,16.000 L11.000,16.000 C11.510,16.000 12.000,15.500 12.000,15.000 C12.000,14.500 11.510,14.000 11.000,14.000 L10.000,14.000 L10.000,4.000 L13.013,4.000 Z" />
</svg>
