<svg id="tool-maskmode" xmlns="http://www.w3.org/2000/svg" xmlns:xlink="http://www.w3.org/1999/xlink" preserveAspectRatio="xMidYMid" width="100%" height="100%" viewBox="0 0 16 16">
<path d="M11.000,9.000 L11.000,8.000 L12.000,8.000 L12.000,9.000 L11.000,9.000 ZM11.000,6.000 L12.000,6.000 L12.000,7.000 L11.000,7.000 L11.000,6.000 ZM10.000,4.000 L11.000,4.000 L11.000,5.000 L10.000,5.000 L10.000,4.000 ZM8.000,11.000 L9.000,11.000 L9.000,12.000 L8.000,12.000 L8.000,11.000 ZM8.000,3.000 L9.000,3.000 L9.000,4.000 L8.000,4.000 L8.000,3.000 ZM6.000,11.000 L7.000,11.000 L7.000,12.000 L6.000,12.000 L6.000,11.000 ZM6.000,3.000 L7.000,3.000 L7.000,4.000 L6.000,4.000 L6.000,3.000 ZM4.000,10.000 L5.000,10.000 L5.000,11.000 L4.000,11.000 L4.000,10.000 ZM4.000,4.000 L5.000,4.000 L5.000,5.000 L4.000,5.000 L4.000,4.000 ZM4.000,7.000 L3.000,7.000 L3.000,6.000 L4.000,6.000 L4.000,7.000 ZM4.000,9.000 L3.000,9.000 L3.000,8.000 L4.000,8.000 L4.000,9.000 ZM11.000,11.000 L10.000,11.000 L10.000,10.000 L11.000,10.000 L11.000,11.000 Z" />
<path d="M15.000,12.000 L15.000,15.000 L12.000,15.000 L12.000,14.000 L3.000,14.000 L3.000,15.000 L0.000,15.000 L0.000,12.000 L1.000,12.000 L1.000,3.000 L0.000,3.000 L0.000,0.000 L3.000,0.000 L3.000,1.000 L12.000,1.000 L12.000,0.000 L15.000,0.000 L15.000,3.000 L14.000,3.000 L14.000,12.000 L15.000,12.000 ZM13.000,14.000 L13.973,14.000 L13.973,12.969 L13.000,12.969 L13.000,14.000 ZM1.000,14.000 L1.991,14.000 L2.000,13.000 L1.000,13.000 L1.000,14.000 ZM2.000,1.000 L1.000,1.000 L1.000,2.000 L2.000,2.000 L2.000,1.000 ZM12.974,3.000 L12.000,3.000 L12.000,2.000 L3.000,2.000 L3.000,3.000 L2.000,3.000 L2.000,12.000 L3.000,12.000 L3.000,13.000 L12.000,13.000 L12.000,12.000 L12.974,12.000 L12.974,3.000 ZM14.000,1.000 L13.000,1.000 L13.000,2.000 L14.000,2.000 L14.000,1.000 Z" />
</svg>
