<svg width="100%" height="100%" id="layer-3" viewBox="0 0 16 12" xmlns="http://www.w3.org/2000/svg"><g stroke="none" fill-rule="evenodd"><path d="M6.525 6.75L5.44 3.795c-.25-.67-.41-1.28-.575-1.87H4.83c-.165.605-.345 1.23-.56 1.855L3.18 6.75h3.345zm-3.64 1.035l-1.15 3.23H.25L4.025.75H5.75l3.79 10.265H8.01l-1.185-3.23h-3.94zM13.98 7.825c-1.315-.03-2.805.195-2.805 1.445 0 .76.52 1.115 1.135 1.115.86 0 1.41-.53 1.6-1.075.04-.12.07-.25.07-.37V7.825zm.175 3.28l-.095-.81h-.04c-.37.505-1.08.955-2.025.955-1.34 0-2.025-.915-2.025-1.845C9.97 7.85 11.395 7 13.95 7.01v-.13c0-.53-.15-1.49-1.505-1.49-.615 0-1.255.185-1.72.48l-.275-.77c.55-.345 1.34-.57 2.175-.57 2.025 0 2.515 1.34 2.515 2.63v2.405c0 .555.03 1.1.11 1.54h-1.095z"/></g></svg>
