<svg id="tool-artboard" width="16" height="16" viewBox="0 0 16 16" xmlns="http://www.w3.org/2000/svg"><g stroke="none" fill-rule="evenodd"><path d="M5.5 4.25c-.55 0-1 .45-1 1v9.5c0 .55.45 1 1 1H15c.55 0 1-.45 1-1v-7c0-.275-.14-.655-.335-.85L13.37 4.605c-.195-.195-.595-.355-.87-.355h-7zm9.5 3.5v7H5.5v-9.5h7l.015 1.755c0 .415.335.75.75.75L15 7.75zM4 .75c0-.275.225-.5.5-.5s.5.225.5.5v2.5c0 .275-.225.5-.5.5s-.5-.225-.5-.5V.75M0 4.75c0-.275.225-.5.5-.5H3c.275 0 .5.225.5.5s-.225.5-.5.5H.5c-.275 0-.5-.225-.5-.5"/></g></svg>
