<svg id="properties" xmlns="http://www.w3.org/2000/svg" xmlns:xlink="http://www.w3.org/1999/xlink" preserveAspectRatio="xMidYMid" width="100%" height="100%" viewBox="0 0 20 17">
  <title>
    Properties
  </title>
  <path d="M19.500,9.008 L12.450,9.008 C12.218,10.149 11.209,11.008 10.000,11.008 C8.791,11.008 7.782,10.149 7.550,9.008 L0.500,9.008 C0.224,9.008 -0.000,8.784 -0.000,8.508 C-0.000,8.232 0.224,8.008 0.500,8.008 L7.550,8.008 C7.782,6.867 8.791,6.008 10.000,6.008 C11.209,6.008 12.218,6.867 12.450,8.008 L19.500,8.008 C19.776,8.008 20.000,8.232 20.000,8.508 C20.000,8.784 19.776,9.008 19.500,9.008 ZM17.500,5.000 C16.290,5.000 15.282,4.141 15.050,3.000 L0.500,3.000 C0.224,3.000 -0.000,2.776 -0.000,2.500 C-0.000,2.224 0.224,2.000 0.500,2.000 L15.050,2.000 C15.282,0.859 16.290,-0.000 17.500,-0.000 C18.881,-0.000 20.000,1.119 20.000,2.500 C20.000,3.881 18.881,5.000 17.500,5.000 ZM2.500,12.000 C3.709,12.000 4.718,12.859 4.950,14.000 L19.500,14.000 C19.776,14.000 20.000,14.224 20.000,14.500 C20.000,14.776 19.776,15.000 19.500,15.000 L4.950,15.000 C4.718,16.141 3.709,17.000 2.500,17.000 C1.119,17.000 -0.000,15.881 -0.000,14.500 C-0.000,13.119 1.119,12.000 2.500,12.000 Z"/>
</svg>
