<svg id="tool-eyedropper" width="100%" height="100%" viewBox="0 0 15 15" xmlns="http://www.w3.org/2000/svg"><path d="M10.075 6.795l-5.85 5.925c-.51.485-1.425.5-1.9.02-.235-.23-.36-.55-.355-.89.005-.355.155-.695.42-.95l5.86-5.93 1.825 1.825zm-6.835 7.31c.62 0 1.23-.24 1.685-.67l5.855-5.93 1.135 1.135 1.975-1.975-1.475-1.475L14.47 3.2c.68-.72.66-1.875-.04-2.575-.7-.7-1.815-.68-2.495.04l-2.05 1.99-1.51-1.505L6.4 3.125l1.14 1.14-5.85 5.92c-.45.425-.71 1.03-.72 1.65-.01.615.22 1.185.645 1.615.425.425 1.005.655 1.625.655z" stroke="none" fill-rule="evenodd"/></svg>