<svg id="maskmode-pen" xmlns="http://www.w3.org/2000/svg" xmlns:xlink="http://www.w3.org/1999/xlink" width="100%" height="100%" viewBox="0 0 14 14">
    <path d="M1107.96,1728.56l-1.85-1.91-1.06-1.11c-0.68-.69-0.77-0.78-1.18-0.78a0.953,0.953,0,0,0-.71.31,5.2,5.2,0,0,0-.86,1.35,1.557,1.557,0,0,0-.06.15c-0.05.02-.11,0.04-0.17,0.07l-4.91,2.61a1.011,1.011,0,0,0-.5.59l-2.36,7.34a1.36,1.36,0,0,0,.37,1.33c0.06,0.07.26,0.27,0.33,0.33a1.286,1.286,0,0,0,.92.4,0.892,0.892,0,0,0,.32-0.05l7.09-2.45a1.022,1.022,0,0,0,.58-0.5l2.53-5.07a0.962,0.962,0,0,0,.07-0.18,0.982,0.982,0,0,0,.18-0.08,5.516,5.516,0,0,0,1.26-.89A1.048,1.048,0,0,0,1107.96,1728.56Zm-4.94,7.2-7.1,2.45,4.14-4.28a1.151,1.151,0,0,0,1.29-.29,1.28,1.28,0,0,0,0-1.78,1.19,1.19,0,0,0-1.72,0,1.291,1.291,0,0,0-.26,1.38l-4.12,4.27,2.36-7.34,4.92-2.61,3.02,3.14Z" transform="translate(-1094 -1725)"/>
</svg>
