<svg id="layer-7" xmlns="http://www.w3.org/2000/svg" xmlns:xlink="http://www.w3.org/1999/xlink" preserveAspectRatio="xMidYMid" width="100%" height="100%" viewBox="0 0 18 18">
<path stroke="red" d="M2.993,6.500 C2.993,4.479 2.993,4.000 2.993,4.000 C2.993,4.000 2.955,2.000 4.991,2.000 L9.480,2.000 C10.448,2.000 10.478,3.000 10.478,3.000 C10.478,3.000 10.485,4.000 10.977,4.000 L15.966,4.000 C15.966,4.000 17.965,4.033 17.965,6.000 L18.000,9.500 L17.000,9.500 L16.966,6.000 C16.966,5.086 15.967,5.000 15.967,5.000 L10.478,5.000 C9.463,5.000 9.480,3.500 9.480,3.500 C9.480,3.500 9.460,3.000 8.980,3.000 C8.501,3.000 4.990,3.000 4.990,3.000 C4.990,3.000 3.991,3.026 3.991,4.000 C3.991,4.000 3.991,5.141 3.991,6.500 C3.991,7.199 2.993,7.131 2.993,6.500 ZM0.497,9.000 C0.497,8.012 1.495,8.000 1.495,8.000 L18.000,8.000 C18.000,8.000 18.000,11.025 18.000,13.000 C18.000,14.975 16.000,15.000 16.000,15.000 C16.000,15.000 9.301,15.000 5.000,15.000 C3.585,15.000 0.497,11.330 0.497,9.000 Z"/>
</svg>
