<svg width="100%" height="100%" id="text-right" viewBox="0 0 14 10" xmlns="http://www.w3.org/2000/svg"><g stroke="none" fill-rule="evenodd"><path d="M.75.5c0-.275.225-.5.5-.5h11.5c.275 0 .5.225.5.5s-.225.5-.5.5H1.25C.975 1 .75.775.75.5M.75 6.5c0-.275.225-.5.5-.5h11.5c.275 0 .5.225.5.5s-.225.5-.5.5H1.25c-.275 0-.5-.225-.5-.5M4.25 3.5c0-.275.225-.5.5-.5h8c.275 0 .5.225.5.5s-.225.5-.5.5h-8c-.275 0-.5-.225-.5-.5M4.25 9.5c0-.275.225-.5.5-.5h8c.275 0 .5.225.5.5s-.225.5-.5.5h-8c-.275 0-.5-.225-.5-.5"/></g></svg>