<svg id="settings" width="100%" height="100%" viewBox="0 0 14 14" xmlns="http://www.w3.org/2000/svg"><path d="M4.605 7c0-1.325 1.07-2.395 2.395-2.395S9.395 5.675 9.395 7 8.325 9.395 7 9.395 4.605 8.325 4.605 7zM7.18.5h-.565c-.4 0-.735.325-.735.725V2.47c-.425.105-.83.27-1.19.485l-1.055-.68c-.29-.28-.76-.28-1.05 0l-.525.51c-.29.28-.29.74 0 1.03l.715 1.04c-.225.38-.39.795-.49 1.24h-1.05c-.4 0-.735.32-.735.725v.72c0 .4.335.725.735.725h1.15c.13.43.34.835.6 1.2l-.66.98c-.295.28-.295.745 0 1.025l.52.515c.3.275.76.275 1.055 0l1.12-.755c.385.175.505.24.885.375v1.17c0 .4.32.725.735.725h.72c.415 0 .735-.325.735-.725v-1.17c.38-.135.5-.2.885-.375l1.12.755c.295.275.76.275 1.055 0l.52-.515c.295-.28.295-.745 0-1.025l-.66-.98c.26-.365.47-.77.6-1.2h1.15c.4 0 .735-.325.735-.725v-.72c0-.405-.335-.725-.735-.725h-1.05c-.1-.445-.265-.86-.495-1.24l.72-1.04c.29-.29.29-.75 0-1.03l-.525-.51c-.29-.28-.76-.28-1.05 0l-1.055.68c-.36-.215-.765-.38-1.19-.485V1.225c0-.4-.335-.725-.735-.725H7.18z" stroke="none" fill-rule="evenodd"/></svg>