<?xml version="1.0" encoding="utf-8"?>
<svg version="1.1" id="layer-artboard-collapsed" xmlns="http://www.w3.org/2000/svg" xmlns:xlink="http://www.w3.org/1999/xlink" x="0px" y="0px"
	 viewBox="0 0 24 24" style="enable-background:new 0 0 24 24;" xml:space="preserve">
<g>
	<path stroke="none" d="M6.1,5.5H3.3C3,5.5,2.8,5.8,2.8,6.1c0,0.3,0.3,0.6,0.6,0.6h2.8c0.3,0,0.6-0.3,0.6-0.6
		C6.7,5.8,6.4,5.5,6.1,5.5z M8.4,4.4c0.3,0,0.6-0.3,0.6-0.6V1.1c0-0.3-0.3-0.6-0.6-0.6S7.8,0.8,7.8,1.1v2.8C7.8,4.2,8,4.4,8.4,4.4z
		 M21.3,12.3c0-0.9-0.3-1.4-0.6-1.8l-4.1-4.4c-0.3-0.3-1-0.6-1.4-0.6h-5c0,0-2.2,0-2.2,2.2v13.5c0,0,0.1,2.2,2.2,2.2h9
		c0,0,2.3,0,2.3-2.2L21.3,12.3z M16.2,11.7c-1.1,0-1.1-1.1-1.1-1.1V6.7l5,5C20.1,11.7,17.3,11.7,16.2,11.7z"/>
</g>
</svg>
