<svg id="layer-cloud-linked-update" xmlns="http://www.w3.org/2000/svg" xmlns:xlink="http://www.w3.org/1999/xlink" preserveAspectRatio="xMidYMid" width="100%" height="100%" viewBox="0 0 18 18">
<path d="M5.339,11.243 C4.887,11.036 4.404,10.932 3.891,10.932 C3.466,10.932 3.056,11.007 2.662,11.156 C2.268,11.305 1.920,11.509 1.619,11.768 C1.318,12.027 1.064,12.337 0.856,12.696 C0.648,13.055 0.510,13.503 0.440,13.913 L1.630,13.913 C1.760,13.405 2.036,12.923 2.456,12.594 C2.875,12.265 3.354,12.101 3.891,12.101 C4.245,12.101 4.578,12.174 4.888,12.321 C5.198,12.468 5.463,12.673 5.682,12.934 L4.522,13.954 L7.391,13.954 L7.391,10.983 L6.508,12.108 C6.182,11.739 5.792,11.451 5.339,11.243 ZM5.326,16.269 C4.906,16.599 4.427,16.763 3.891,16.763 C3.536,16.763 3.203,16.689 2.893,16.542 C2.583,16.395 2.318,16.191 2.099,15.930 L3.259,15.013 L-0.003,15.013 L-0.003,17.922 L1.273,16.756 C1.599,17.125 1.989,17.413 2.442,17.620 C2.894,17.828 3.377,17.932 3.891,17.932 C4.460,17.932 4.992,17.805 5.487,17.550 C5.981,17.296 6.391,16.947 6.715,16.504 C7.039,16.061 7.248,15.564 7.342,15.013 L6.152,15.013 C6.021,15.522 5.745,15.940 5.326,16.269 Z" />
<path d="M13.400,14.000 L9.576,14.000 C9.485,13.665 9.369,13.321 9.216,12.969 L13.400,12.969 C15.109,12.969 16.000,11.715 16.000,10.000 C16.000,8.285 15.109,6.780 13.400,6.780 C13.244,6.780 13.105,6.789 12.975,6.809 C12.737,6.844 12.505,6.705 12.427,6.477 C11.921,4.995 10.534,4.000 8.975,4.000 C6.960,4.000 5.320,5.644 5.320,7.665 C5.320,7.765 5.324,7.861 5.333,7.961 C5.347,8.120 5.285,8.275 5.166,8.380 C5.046,8.485 4.885,8.527 4.729,8.494 C4.580,8.461 4.425,8.445 4.270,8.445 C3.473,8.445 2.773,8.861 2.368,9.486 C1.911,9.552 1.498,9.639 1.144,9.725 C1.581,8.394 2.850,7.431 4.325,7.445 C4.440,4.975 6.482,3.000 8.975,3.000 C10.829,3.000 12.492,4.103 13.229,5.783 C13.285,5.781 13.342,5.780 13.400,5.780 C15.661,5.780 17.000,7.734 17.000,10.000 C17.000,12.266 15.661,14.000 13.400,14.000 Z" />
</svg>
