<svg id="libraries-moveto" xmlns="http://www.w3.org/2000/svg" xmlns:xlink="http://www.w3.org/1999/xlink" preserveAspectRatio="xMidYMid" width="100%" viewBox="0 0 16 16">
<path d="M14.036,5.984 L13.965,2.719 L7.334,9.350 L6.632,8.648 L13.258,2.012 L9.908,1.976 L9.908,0.986 L14.849,1.128 L14.990,6.020 L14.036,5.984 ZM6.718,4.513 C4.099,4.513 1.968,6.644 1.968,9.263 C1.968,11.883 4.099,14.014 6.718,14.014 C9.337,14.014 11.468,11.883 11.468,9.263 C11.468,8.762 11.390,8.279 11.245,7.825 L12.287,7.827 C12.405,8.286 12.468,8.767 12.468,9.263 C12.468,12.439 9.893,15.013 6.718,15.013 C3.542,15.013 0.968,12.439 0.968,9.263 C0.968,6.088 3.542,3.513 6.718,3.513 C7.296,3.513 7.854,3.599 8.381,3.758 L8.377,4.812 C7.860,4.619 7.301,4.513 6.718,4.513 Z" />
</svg>
