<svg id="align-middle" xmlns="http://www.w3.org/2000/svg" xmlns:xlink="http://www.w3.org/1999/xlink" preserveAspectRatio="xMidYMid" width="100%" height="100%" viewBox="0 0 16 16">
<path d="M1.281,7.460 C1.281,7.102 1.725,7.000 2.000,7.000 L3.000,7.000 L3.000,3.027 C3.000,2.451 3.450,1.979 4.000,1.979 L6.000,1.979 C6.550,1.979 7.000,2.451 7.000,3.027 L7.000,7.000 L9.000,7.000 L9.000,5.059 C9.000,4.483 9.450,4.012 10.000,4.012 L12.000,4.012 C12.550,4.012 13.000,4.483 13.000,5.059 L13.000,7.000 L14.000,7.000 C14.275,7.000 14.656,7.072 14.656,7.491 C14.656,7.910 14.275,8.000 14.000,8.000 L13.000,7.984 L13.000,10.000 C13.000,10.576 12.550,11.002 12.000,11.002 L10.000,11.002 C9.450,11.002 9.000,10.576 9.000,10.000 L9.000,8.000 L7.000,8.000 L7.000,11.963 C7.000,12.539 6.550,13.010 6.000,13.010 L4.000,13.010 C3.450,13.010 3.000,12.539 3.000,11.963 L3.000,7.984 L2.000,8.000 C1.624,8.000 1.281,7.818 1.281,7.460 Z"/>
</svg>
