<svg id="distribute-horizontally" xmlns="http://www.w3.org/2000/svg" xmlns:xlink="http://www.w3.org/1999/xlink" preserveAspectRatio="xMidYMid" width="100%" height="100%" viewBox="0 0 16 16">
<path d="M12.500,14.500 C12.225,14.500 12.000,14.275 12.000,14.000 L12.000,2.000 C12.000,1.725 12.225,1.500 12.500,1.500 C12.775,1.500 13.000,1.725 13.000,2.000 L13.000,14.000 C13.000,14.275 12.775,14.500 12.500,14.500 ZM9.000,13.000 L7.000,13.000 C6.450,13.000 6.000,12.550 6.000,12.000 L6.000,4.000 C6.000,3.450 6.450,3.000 7.000,3.000 L9.000,3.000 C9.550,3.000 10.000,3.450 10.000,4.000 L10.000,12.000 C10.000,12.550 9.550,13.000 9.000,13.000 ZM3.500,14.500 C3.225,14.500 3.000,14.275 3.000,14.000 L3.000,2.000 C3.000,1.725 3.225,1.500 3.500,1.500 C3.775,1.500 4.000,1.725 4.000,2.000 L4.000,14.000 C4.000,14.275 3.775,14.500 3.500,14.500 Z"/>
</svg>
