<svg id="libraries-viewonsite" xmlns="http://www.w3.org/2000/svg" xmlns:xlink="http://www.w3.org/1999/xlink" preserveAspectRatio="xMidYMid" width="100%" viewBox="0 0 16 16">
<path d="M13.159,8.482 C13.176,8.439 13.185,8.409 13.185,8.392 C13.176,8.392 13.168,8.392 13.159,8.392 C13.133,8.392 13.116,8.396 13.107,8.404 C13.098,8.422 13.094,8.452 13.094,8.495 C13.094,8.530 13.098,8.552 13.107,8.560 C13.124,8.552 13.142,8.526 13.159,8.482 L13.159,8.482 ZM11.859,12.948 C12.942,12.250 13.744,11.325 14.264,10.173 C14.654,9.297 14.843,8.370 14.830,7.390 C14.817,6.411 14.598,5.488 14.173,4.621 C13.774,3.816 13.222,3.116 12.516,2.522 C11.809,1.928 11.023,1.506 10.156,1.255 C9.246,0.986 8.312,0.925 7.355,1.073 C6.397,1.220 5.519,1.558 4.722,2.086 C3.959,2.598 3.331,3.246 2.837,4.030 C2.343,4.814 2.031,5.662 1.901,6.572 C1.771,7.507 1.840,8.433 2.109,9.347 C2.378,10.262 2.824,11.070 3.448,11.772 C4.063,12.474 4.798,13.020 5.652,13.410 C6.505,13.799 7.400,13.994 8.336,13.994 C9.601,13.994 10.776,13.646 11.859,12.948 ZM5.242,2.437 L5.125,2.425 C5.134,2.425 5.158,2.409 5.197,2.379 C5.236,2.349 5.272,2.325 5.307,2.308 C5.342,2.290 5.363,2.286 5.372,2.295 L5.398,2.295 C5.433,2.312 5.450,2.334 5.450,2.359 C5.433,2.412 5.376,2.437 5.281,2.437 C5.298,2.437 5.320,2.437 5.346,2.437 C5.372,2.437 5.394,2.435 5.411,2.431 C5.428,2.427 5.448,2.425 5.470,2.425 C5.491,2.425 5.511,2.420 5.528,2.412 C5.580,2.412 5.654,2.442 5.749,2.503 C5.844,2.563 5.983,2.611 6.165,2.645 C6.208,2.654 6.234,2.661 6.243,2.665 C6.252,2.669 6.265,2.680 6.282,2.698 C6.299,2.715 6.312,2.758 6.321,2.827 C6.330,2.845 6.360,2.854 6.412,2.854 C6.438,2.854 6.471,2.869 6.510,2.899 C6.549,2.930 6.577,2.949 6.594,2.957 C6.629,2.975 6.694,2.988 6.789,2.997 C6.746,3.066 6.685,3.131 6.607,3.192 C6.573,3.217 6.525,3.211 6.464,3.172 C6.403,3.133 6.365,3.114 6.347,3.114 C6.356,3.131 6.371,3.146 6.393,3.159 C6.414,3.172 6.436,3.185 6.458,3.198 C6.479,3.211 6.495,3.226 6.503,3.244 C6.529,3.287 6.538,3.334 6.529,3.387 C6.521,3.421 6.490,3.424 6.438,3.393 C6.386,3.363 6.360,3.373 6.360,3.426 C6.351,3.426 6.325,3.426 6.282,3.426 C6.239,3.426 6.208,3.421 6.191,3.412 L6.152,3.373 L6.139,3.361 C6.130,3.352 6.113,3.356 6.087,3.373 C6.061,3.373 5.996,3.339 5.892,3.270 C5.875,3.261 5.810,3.256 5.697,3.256 C5.688,3.256 5.669,3.261 5.639,3.270 C5.608,3.278 5.587,3.283 5.574,3.283 C5.561,3.283 5.545,3.274 5.528,3.256 C5.485,3.187 5.485,3.131 5.528,3.088 C5.554,3.061 5.595,3.053 5.652,3.061 C5.708,3.070 5.740,3.070 5.749,3.061 C5.758,3.053 5.766,3.042 5.775,3.029 C5.784,3.016 5.792,3.005 5.801,2.997 C5.810,2.988 5.818,2.979 5.827,2.971 C5.836,2.962 5.849,2.953 5.866,2.944 L5.827,2.918 C5.792,2.997 5.758,3.036 5.723,3.036 C5.706,3.036 5.688,3.031 5.671,3.022 C5.532,2.997 5.515,2.962 5.619,2.918 C5.680,2.884 5.662,2.854 5.567,2.827 C5.541,2.827 5.528,2.823 5.528,2.815 C5.511,2.832 5.478,2.838 5.431,2.834 C5.383,2.830 5.346,2.836 5.320,2.854 C5.407,2.888 5.433,2.936 5.398,2.997 C5.389,3.014 5.333,3.044 5.229,3.088 C5.238,3.096 5.255,3.107 5.281,3.120 C5.307,3.133 5.333,3.146 5.359,3.159 C5.385,3.172 5.407,3.187 5.424,3.205 C5.441,3.222 5.450,3.244 5.450,3.270 C5.450,3.313 5.424,3.341 5.372,3.354 C5.320,3.367 5.285,3.352 5.268,3.309 C5.251,3.291 5.236,3.281 5.223,3.276 C5.210,3.272 5.197,3.272 5.184,3.276 C5.171,3.281 5.153,3.289 5.132,3.302 C5.110,3.315 5.090,3.322 5.073,3.322 C5.030,3.339 4.997,3.334 4.976,3.309 C4.954,3.283 4.960,3.252 4.995,3.217 C4.986,3.217 4.978,3.213 4.969,3.205 C4.960,3.256 4.952,3.287 4.943,3.295 C4.934,3.304 4.915,3.302 4.885,3.289 C4.854,3.276 4.822,3.274 4.787,3.283 C4.770,3.283 4.750,3.291 4.729,3.309 C4.707,3.326 4.683,3.348 4.657,3.373 C4.631,3.400 4.614,3.417 4.605,3.426 C4.579,3.443 4.560,3.458 4.547,3.471 C4.534,3.484 4.527,3.497 4.527,3.510 C4.527,3.523 4.529,3.541 4.534,3.562 C4.538,3.584 4.536,3.607 4.527,3.634 C4.553,3.668 4.573,3.694 4.586,3.712 C4.599,3.729 4.605,3.742 4.605,3.751 C4.657,3.733 4.733,3.744 4.833,3.783 C4.932,3.822 4.995,3.846 5.021,3.855 C5.030,3.855 5.071,3.850 5.145,3.841 C5.218,3.833 5.255,3.841 5.255,3.868 C5.272,3.876 5.298,3.928 5.333,4.024 L5.385,3.946 C5.420,4.075 5.424,4.149 5.398,4.167 C5.398,4.175 5.411,4.182 5.437,4.186 C5.463,4.190 5.480,4.188 5.489,4.180 L5.463,4.050 C5.428,3.963 5.411,3.909 5.411,3.887 C5.411,3.866 5.428,3.855 5.463,3.855 C5.489,3.855 5.513,3.866 5.535,3.887 C5.556,3.909 5.576,3.902 5.593,3.868 C5.628,3.833 5.619,3.790 5.567,3.738 C5.567,3.729 5.556,3.718 5.535,3.705 C5.513,3.692 5.498,3.679 5.489,3.666 C5.480,3.653 5.476,3.638 5.476,3.621 C5.476,3.603 5.487,3.593 5.509,3.588 C5.530,3.584 5.541,3.568 5.541,3.543 C5.524,3.465 5.532,3.410 5.567,3.380 C5.602,3.350 5.658,3.330 5.736,3.322 C5.788,3.322 5.849,3.337 5.918,3.367 C5.987,3.398 6.039,3.417 6.074,3.426 C6.152,3.434 6.200,3.456 6.217,3.490 C6.217,3.508 6.215,3.521 6.211,3.529 C6.206,3.538 6.195,3.549 6.178,3.562 C6.161,3.575 6.152,3.586 6.152,3.595 C6.161,3.612 6.185,3.625 6.224,3.634 C6.263,3.642 6.291,3.642 6.308,3.634 C6.317,3.625 6.339,3.597 6.373,3.549 C6.408,3.502 6.438,3.478 6.464,3.478 C6.507,3.478 6.555,3.517 6.607,3.595 C6.659,3.673 6.694,3.742 6.711,3.802 C6.720,3.837 6.731,3.857 6.744,3.861 C6.757,3.866 6.772,3.863 6.789,3.855 C6.807,3.846 6.828,3.850 6.854,3.868 C6.932,3.894 6.980,3.937 6.997,3.997 C6.997,4.024 7.019,4.041 7.062,4.050 C7.105,4.058 7.127,4.075 7.127,4.102 C7.136,4.119 7.114,4.184 7.062,4.297 C7.053,4.314 7.084,4.327 7.153,4.336 C7.170,4.336 7.186,4.342 7.199,4.355 C7.212,4.368 7.220,4.379 7.225,4.387 C7.229,4.396 7.238,4.412 7.251,4.433 C7.264,4.455 7.270,4.470 7.270,4.479 C7.331,4.582 7.326,4.635 7.257,4.635 C7.240,4.635 7.220,4.626 7.199,4.609 C7.177,4.591 7.157,4.596 7.140,4.621 C7.123,4.630 7.099,4.628 7.069,4.615 C7.038,4.602 7.015,4.596 6.997,4.596 C6.919,4.604 6.867,4.604 6.841,4.596 C6.807,4.578 6.811,4.520 6.854,4.420 C6.897,4.321 6.928,4.270 6.945,4.270 C6.937,4.270 6.923,4.284 6.906,4.309 C6.889,4.336 6.871,4.348 6.854,4.348 C6.785,4.348 6.733,4.357 6.698,4.375 C6.698,4.383 6.694,4.392 6.685,4.401 C6.677,4.435 6.663,4.457 6.646,4.465 C6.594,4.500 6.555,4.504 6.529,4.479 C6.538,4.496 6.538,4.518 6.529,4.543 C6.521,4.570 6.521,4.587 6.529,4.596 C6.581,4.570 6.611,4.561 6.620,4.570 C6.629,4.578 6.642,4.609 6.659,4.660 C6.668,4.660 6.683,4.650 6.705,4.628 C6.726,4.607 6.741,4.594 6.750,4.589 C6.759,4.585 6.776,4.600 6.802,4.635 C6.828,4.721 6.835,4.771 6.822,4.784 C6.809,4.797 6.759,4.816 6.672,4.843 C6.663,4.843 6.642,4.847 6.607,4.855 C6.573,4.864 6.547,4.873 6.529,4.882 C6.451,4.934 6.408,4.960 6.399,4.960 C6.347,4.960 6.321,4.912 6.321,4.816 C6.304,4.834 6.284,4.847 6.263,4.855 C6.241,4.864 6.217,4.871 6.191,4.875 C6.165,4.880 6.148,4.886 6.139,4.894 C6.096,4.921 6.091,4.958 6.126,5.005 C6.161,5.053 6.174,5.085 6.165,5.103 C6.148,5.129 6.126,5.142 6.100,5.142 C6.074,5.142 6.039,5.140 5.996,5.135 C5.953,5.131 5.927,5.129 5.918,5.129 C5.909,5.129 5.901,5.148 5.892,5.187 C5.883,5.226 5.862,5.241 5.827,5.233 C5.818,5.241 5.814,5.250 5.814,5.259 C5.814,5.311 5.808,5.350 5.795,5.376 C5.782,5.402 5.758,5.406 5.723,5.389 C5.723,5.397 5.734,5.419 5.756,5.454 C5.777,5.488 5.786,5.516 5.782,5.538 C5.777,5.560 5.758,5.575 5.723,5.584 C5.654,5.618 5.597,5.670 5.554,5.740 C5.545,5.748 5.515,5.774 5.463,5.818 C5.411,5.861 5.381,5.896 5.372,5.922 C5.363,5.939 5.363,5.961 5.372,5.987 C5.381,6.013 5.392,6.041 5.405,6.071 C5.418,6.101 5.428,6.121 5.437,6.130 C5.463,6.216 5.463,6.286 5.437,6.338 C5.428,6.372 5.411,6.394 5.385,6.403 C5.359,6.411 5.333,6.403 5.307,6.377 C5.220,6.247 5.173,6.138 5.164,6.052 C5.121,6.086 5.077,6.065 5.034,5.987 C4.947,6.013 4.882,6.026 4.839,6.026 C4.822,6.026 4.804,6.041 4.787,6.071 C4.770,6.101 4.744,6.112 4.709,6.104 C4.614,6.069 4.562,6.052 4.553,6.052 C4.492,6.052 4.445,6.069 4.410,6.104 C4.393,6.121 4.367,6.140 4.332,6.162 C4.297,6.184 4.271,6.203 4.254,6.221 C4.280,6.238 4.280,6.312 4.254,6.442 C4.254,6.485 4.258,6.550 4.267,6.637 C4.276,6.689 4.308,6.747 4.365,6.812 C4.421,6.877 4.466,6.897 4.501,6.871 C4.518,6.862 4.540,6.855 4.566,6.851 C4.592,6.847 4.614,6.840 4.631,6.832 C4.648,6.823 4.653,6.810 4.644,6.793 C4.635,6.758 4.640,6.723 4.657,6.689 C4.674,6.654 4.705,6.637 4.748,6.637 C4.757,6.637 4.781,6.634 4.820,6.630 C4.859,6.626 4.887,6.624 4.904,6.624 C4.921,6.624 4.941,6.632 4.963,6.650 C4.984,6.667 4.995,6.693 4.995,6.728 C4.995,6.754 4.991,6.775 4.982,6.793 C4.973,6.810 4.963,6.829 4.950,6.851 C4.937,6.873 4.926,6.892 4.917,6.910 C4.917,6.927 4.917,6.957 4.917,7.001 C4.917,7.044 4.913,7.074 4.904,7.092 C4.913,7.092 4.926,7.096 4.943,7.105 C4.960,7.113 4.973,7.118 4.982,7.118 C4.991,7.118 5.008,7.109 5.034,7.092 C5.060,7.074 5.077,7.066 5.086,7.066 C5.121,7.057 5.160,7.079 5.203,7.131 C5.246,7.183 5.264,7.226 5.255,7.261 C5.203,7.408 5.199,7.516 5.242,7.585 C5.311,7.681 5.376,7.681 5.437,7.585 C5.463,7.560 5.485,7.553 5.502,7.566 C5.519,7.579 5.541,7.599 5.567,7.624 C5.593,7.651 5.610,7.663 5.619,7.663 C5.645,7.663 5.680,7.633 5.723,7.573 C5.766,7.512 5.788,7.477 5.788,7.468 C5.901,7.390 5.974,7.356 6.009,7.365 C6.035,7.373 6.050,7.384 6.055,7.397 C6.059,7.410 6.057,7.423 6.048,7.436 C6.039,7.449 6.033,7.466 6.029,7.488 C6.024,7.510 6.018,7.525 6.009,7.534 C6.052,7.456 6.104,7.417 6.165,7.417 C6.182,7.417 6.208,7.451 6.243,7.521 C6.269,7.495 6.302,7.484 6.341,7.488 C6.380,7.493 6.408,7.512 6.425,7.546 C6.443,7.495 6.481,7.473 6.542,7.482 C6.603,7.490 6.646,7.512 6.672,7.546 C6.715,7.477 6.746,7.456 6.763,7.482 C6.798,7.525 6.789,7.590 6.737,7.677 C6.763,7.694 6.781,7.702 6.789,7.702 C6.833,7.694 6.880,7.724 6.932,7.794 C6.949,7.802 6.963,7.819 6.971,7.846 C6.989,7.863 7.015,7.867 7.049,7.858 C7.101,7.833 7.149,7.833 7.192,7.858 C7.287,7.919 7.370,8.019 7.439,8.158 C7.439,8.166 7.454,8.183 7.485,8.209 C7.515,8.236 7.532,8.257 7.537,8.275 C7.541,8.292 7.534,8.318 7.517,8.353 C7.560,8.353 7.586,8.378 7.595,8.431 C7.612,8.422 7.643,8.417 7.686,8.417 C7.747,8.426 7.842,8.478 7.972,8.573 C7.989,8.591 8.024,8.597 8.076,8.593 C8.128,8.589 8.167,8.595 8.193,8.612 C8.210,8.621 8.226,8.632 8.239,8.645 C8.252,8.658 8.262,8.671 8.271,8.684 C8.280,8.697 8.291,8.706 8.304,8.710 C8.317,8.714 8.330,8.721 8.343,8.730 C8.356,8.738 8.371,8.745 8.388,8.749 C8.405,8.753 8.418,8.755 8.427,8.755 C8.514,8.825 8.555,8.903 8.551,8.989 C8.546,9.076 8.518,9.163 8.466,9.250 C8.449,9.284 8.414,9.328 8.362,9.379 C8.310,9.432 8.275,9.475 8.258,9.510 C8.249,9.535 8.249,9.579 8.258,9.640 C8.267,9.700 8.267,9.744 8.258,9.769 C8.249,9.787 8.241,9.828 8.232,9.893 C8.223,9.958 8.206,10.008 8.180,10.042 C8.171,10.060 8.161,10.090 8.148,10.134 C8.135,10.177 8.117,10.212 8.096,10.237 C8.074,10.264 8.050,10.281 8.024,10.290 C7.903,10.315 7.829,10.337 7.803,10.354 C7.682,10.424 7.617,10.467 7.608,10.485 C7.599,10.502 7.602,10.532 7.615,10.576 C7.628,10.619 7.630,10.656 7.621,10.686 C7.612,10.717 7.586,10.736 7.543,10.745 C7.534,10.745 7.515,10.766 7.485,10.810 C7.454,10.853 7.435,10.879 7.426,10.888 C7.409,10.896 7.396,10.920 7.387,10.959 C7.378,10.998 7.374,11.022 7.374,11.031 C7.365,11.057 7.326,11.104 7.257,11.174 C7.179,11.252 7.101,11.282 7.023,11.265 C7.075,11.299 7.053,11.382 6.958,11.512 C6.932,11.555 6.876,11.581 6.789,11.590 C6.720,11.598 6.672,11.598 6.646,11.590 L6.659,11.694 C6.659,11.746 6.594,11.754 6.464,11.720 L6.477,11.746 C6.486,11.754 6.495,11.759 6.503,11.759 C6.529,11.759 6.547,11.763 6.555,11.772 C6.599,11.789 6.590,11.832 6.529,11.902 C6.477,11.962 6.443,12.001 6.425,12.019 C6.425,12.027 6.408,12.047 6.373,12.077 C6.339,12.107 6.321,12.127 6.321,12.136 L6.347,12.149 C6.417,12.157 6.447,12.192 6.438,12.253 C6.421,12.296 6.369,12.357 6.282,12.435 C6.169,12.539 6.182,12.638 6.321,12.733 C6.339,12.742 6.373,12.749 6.425,12.753 C6.477,12.757 6.507,12.768 6.516,12.786 C6.516,12.811 6.469,12.842 6.373,12.877 C6.356,12.885 6.339,12.892 6.321,12.896 C6.304,12.900 6.284,12.905 6.263,12.909 C6.241,12.913 6.221,12.916 6.204,12.916 C6.195,12.924 6.135,12.907 6.022,12.864 C5.996,12.864 5.957,12.842 5.905,12.799 C5.853,12.755 5.823,12.721 5.814,12.694 C5.805,12.677 5.801,12.653 5.801,12.623 C5.801,12.593 5.792,12.569 5.775,12.552 C5.714,12.517 5.710,12.474 5.762,12.422 C5.701,12.404 5.680,12.365 5.697,12.305 C5.706,12.287 5.714,12.268 5.723,12.246 C5.732,12.224 5.734,12.211 5.730,12.207 C5.725,12.203 5.719,12.183 5.710,12.149 C5.701,12.123 5.704,12.092 5.717,12.058 C5.730,12.023 5.751,11.988 5.782,11.954 C5.812,11.919 5.827,11.889 5.827,11.863 C5.836,11.845 5.838,11.832 5.834,11.824 C5.829,11.815 5.825,11.800 5.821,11.778 C5.816,11.756 5.814,11.741 5.814,11.733 C5.805,11.707 5.810,11.672 5.827,11.629 C5.844,11.585 5.853,11.555 5.853,11.538 C5.853,11.529 5.847,11.513 5.834,11.492 C5.821,11.470 5.814,11.453 5.814,11.440 C5.814,11.427 5.821,11.410 5.834,11.388 C5.847,11.366 5.853,11.351 5.853,11.343 C5.844,11.299 5.862,11.237 5.905,11.154 C5.948,11.072 5.966,11.009 5.957,10.966 C5.948,10.879 5.944,10.831 5.944,10.823 C5.970,10.814 5.979,10.803 5.970,10.790 C5.961,10.777 5.961,10.758 5.970,10.732 C5.970,10.714 5.985,10.695 6.016,10.673 C6.046,10.652 6.057,10.619 6.048,10.576 C6.031,10.506 6.026,10.437 6.035,10.368 C6.061,10.203 6.074,10.095 6.074,10.042 C6.074,9.964 6.057,9.904 6.022,9.861 C5.987,9.817 5.929,9.774 5.847,9.730 C5.764,9.687 5.714,9.661 5.697,9.652 C5.645,9.609 5.619,9.566 5.619,9.523 C5.619,9.496 5.613,9.471 5.600,9.445 C5.587,9.418 5.576,9.391 5.567,9.360 C5.558,9.330 5.550,9.306 5.541,9.289 C5.515,9.115 5.454,8.994 5.359,8.925 C5.333,8.907 5.316,8.888 5.307,8.866 C5.298,8.844 5.294,8.821 5.294,8.794 C5.294,8.769 5.298,8.745 5.307,8.723 C5.316,8.702 5.322,8.677 5.327,8.651 C5.331,8.626 5.333,8.604 5.333,8.587 C5.324,8.448 5.346,8.348 5.398,8.287 C5.433,8.253 5.472,8.218 5.515,8.183 C5.550,8.166 5.567,8.110 5.567,8.014 C5.576,7.971 5.567,7.917 5.541,7.852 C5.515,7.787 5.485,7.755 5.450,7.755 C5.450,7.807 5.435,7.839 5.405,7.852 C5.374,7.865 5.342,7.863 5.307,7.846 C5.272,7.828 5.240,7.807 5.210,7.780 C5.179,7.755 5.151,7.733 5.125,7.716 C5.116,7.707 5.103,7.696 5.086,7.683 C5.069,7.670 5.051,7.659 5.034,7.651 C5.017,7.642 4.999,7.631 4.982,7.618 C4.965,7.605 4.952,7.592 4.943,7.579 C4.934,7.566 4.928,7.536 4.924,7.488 C4.919,7.440 4.904,7.408 4.878,7.390 C4.852,7.373 4.811,7.360 4.755,7.351 C4.698,7.343 4.661,7.334 4.644,7.326 C4.618,7.317 4.581,7.282 4.534,7.222 C4.486,7.161 4.449,7.131 4.423,7.131 C4.406,7.131 4.386,7.146 4.365,7.176 C4.343,7.206 4.323,7.222 4.306,7.222 C4.289,7.222 4.269,7.209 4.248,7.183 C4.226,7.157 4.211,7.144 4.202,7.144 C4.193,7.144 4.163,7.148 4.111,7.157 C4.042,7.165 3.994,7.139 3.968,7.079 C3.959,7.070 3.953,7.048 3.949,7.014 C3.944,6.979 3.938,6.957 3.929,6.949 C3.912,6.923 3.877,6.905 3.825,6.897 C3.773,6.888 3.738,6.879 3.721,6.871 C3.678,6.836 3.647,6.771 3.630,6.676 C3.613,6.580 3.574,6.515 3.513,6.481 C3.496,6.472 3.478,6.455 3.461,6.429 C3.444,6.403 3.424,6.372 3.403,6.338 C3.381,6.303 3.366,6.277 3.357,6.260 C3.348,6.242 3.327,6.216 3.292,6.182 C3.257,6.147 3.236,6.125 3.227,6.117 C3.236,6.134 3.249,6.151 3.266,6.169 C3.283,6.186 3.299,6.203 3.312,6.221 C3.325,6.238 3.335,6.260 3.344,6.286 C3.353,6.329 3.374,6.368 3.409,6.403 C3.470,6.455 3.491,6.502 3.474,6.546 C3.457,6.606 3.422,6.619 3.370,6.585 C3.361,6.576 3.351,6.567 3.338,6.559 C3.325,6.550 3.314,6.539 3.305,6.526 C3.296,6.513 3.288,6.502 3.279,6.494 C3.227,6.476 3.205,6.446 3.214,6.403 C3.214,6.394 3.208,6.383 3.195,6.370 C3.182,6.357 3.169,6.342 3.156,6.325 C3.143,6.307 3.132,6.299 3.123,6.299 C3.114,6.281 3.097,6.275 3.071,6.279 C3.045,6.283 3.023,6.281 3.006,6.273 C2.980,6.247 2.982,6.210 3.013,6.162 C3.043,6.114 3.036,6.086 2.993,6.078 C2.967,6.069 2.948,6.050 2.935,6.019 C2.922,5.989 2.898,5.926 2.863,5.831 C2.820,5.727 2.776,5.675 2.733,5.675 C2.672,5.675 2.642,5.660 2.642,5.629 C2.642,5.599 2.655,5.558 2.681,5.506 C3.071,4.396 3.738,3.473 4.683,2.737 C4.700,2.762 4.718,2.788 4.735,2.815 C4.770,2.788 4.796,2.776 4.813,2.776 C4.787,2.758 4.757,2.737 4.722,2.710 C4.817,2.641 4.926,2.563 5.047,2.476 L5.047,2.476 L5.047,2.476 L5.047,2.476 L5.047,2.476 L5.047,2.476 L5.047,2.476 L5.047,2.476 L5.047,2.476 L5.047,2.476 L5.047,2.476 L5.047,2.476 L5.047,2.476 C5.090,2.451 5.155,2.437 5.242,2.437 L5.242,2.437 ZM11.287,8.092 C11.261,8.084 11.237,8.053 11.216,8.002 C11.194,7.950 11.174,7.915 11.157,7.897 C11.088,7.846 11.012,7.854 10.930,7.924 C10.847,7.993 10.789,8.027 10.754,8.027 C10.728,8.036 10.687,8.036 10.631,8.027 C10.574,8.019 10.529,8.019 10.494,8.027 C10.459,8.036 10.433,8.058 10.416,8.092 C10.399,8.119 10.377,8.131 10.351,8.131 C10.282,8.140 10.173,7.997 10.026,7.702 C9.991,7.642 9.970,7.612 9.961,7.612 C9.944,7.594 9.916,7.579 9.877,7.566 C9.838,7.553 9.805,7.540 9.779,7.527 C9.753,7.514 9.731,7.495 9.714,7.468 C9.697,7.443 9.690,7.408 9.695,7.365 C9.699,7.321 9.697,7.287 9.688,7.261 C9.662,7.217 9.673,7.157 9.721,7.079 C9.768,7.001 9.788,6.940 9.779,6.897 C9.779,6.871 9.770,6.829 9.753,6.773 C9.736,6.717 9.727,6.671 9.727,6.637 C9.727,6.602 9.742,6.550 9.773,6.481 C9.803,6.411 9.822,6.372 9.831,6.364 C9.866,6.242 9.909,6.164 9.961,6.130 C9.970,6.130 9.985,6.123 10.007,6.110 C10.028,6.097 10.050,6.089 10.072,6.084 C10.093,6.080 10.113,6.071 10.130,6.058 C10.147,6.045 10.160,6.034 10.169,6.026 C10.178,6.000 10.186,5.954 10.195,5.889 C10.204,5.824 10.217,5.774 10.234,5.740 C10.243,5.731 10.286,5.692 10.364,5.623 C10.373,5.614 10.386,5.601 10.403,5.584 C10.455,5.549 10.459,5.506 10.416,5.454 C10.407,5.445 10.384,5.443 10.345,5.447 C10.306,5.451 10.282,5.445 10.273,5.428 C10.195,5.341 10.178,5.254 10.221,5.168 C10.230,5.150 10.234,5.135 10.234,5.122 C10.234,5.109 10.232,5.090 10.228,5.064 C10.223,5.038 10.221,5.016 10.221,4.999 C10.212,4.938 10.223,4.894 10.254,4.869 C10.284,4.843 10.323,4.830 10.371,4.830 C10.418,4.830 10.468,4.834 10.520,4.843 C10.650,4.851 10.724,4.851 10.741,4.843 C10.784,4.738 10.780,4.665 10.728,4.621 C10.719,4.621 10.685,4.611 10.624,4.589 C10.563,4.568 10.529,4.543 10.520,4.518 C10.511,4.492 10.520,4.474 10.546,4.465 C10.572,4.457 10.598,4.448 10.624,4.440 C10.650,4.440 10.698,4.426 10.767,4.401 C10.836,4.375 10.880,4.362 10.897,4.362 C10.940,4.353 10.964,4.331 10.969,4.297 C10.973,4.262 10.988,4.240 11.014,4.231 C11.040,4.214 11.083,4.201 11.144,4.192 C11.161,4.167 11.183,4.141 11.209,4.114 C11.278,4.045 11.352,4.019 11.430,4.036 C11.404,4.002 11.396,3.956 11.404,3.900 C11.413,3.844 11.439,3.807 11.482,3.790 C11.448,3.790 11.408,3.781 11.365,3.763 C11.322,3.746 11.287,3.720 11.261,3.685 C11.235,3.651 11.231,3.612 11.248,3.568 C11.248,3.551 11.244,3.527 11.235,3.497 C11.226,3.467 11.222,3.443 11.222,3.426 C11.222,3.408 11.231,3.387 11.248,3.361 C11.309,3.256 11.378,3.187 11.456,3.153 C11.647,3.066 11.755,3.014 11.781,2.997 C11.798,2.979 11.822,2.947 11.853,2.899 C11.883,2.852 11.907,2.823 11.924,2.815 C11.985,2.788 12.020,2.776 12.028,2.776 C12.037,2.776 12.067,2.801 12.119,2.854 C12.136,2.862 12.167,2.882 12.210,2.912 C12.253,2.942 12.284,2.966 12.301,2.983 C12.318,3.001 12.342,3.027 12.373,3.061 C12.403,3.096 12.414,3.127 12.405,3.153 C12.396,3.178 12.383,3.213 12.366,3.256 C12.435,3.213 12.477,3.192 12.490,3.192 C12.503,3.192 12.539,3.222 12.600,3.283 C12.669,3.352 12.747,3.434 12.834,3.529 C12.652,3.547 12.535,3.564 12.483,3.582 C12.431,3.607 12.383,3.584 12.340,3.510 C12.297,3.437 12.288,3.373 12.314,3.322 C12.297,3.330 12.260,3.343 12.204,3.361 C12.147,3.378 12.110,3.404 12.093,3.439 C12.102,3.439 12.115,3.443 12.132,3.451 C12.175,3.469 12.201,3.490 12.210,3.517 C12.227,3.560 12.206,3.607 12.145,3.660 C12.128,3.677 12.108,3.716 12.087,3.777 C12.065,3.837 12.037,3.876 12.002,3.894 C11.855,3.928 11.768,3.950 11.742,3.958 C11.725,3.958 11.710,3.952 11.697,3.939 C11.684,3.926 11.673,3.907 11.664,3.880 C11.656,3.855 11.647,3.831 11.638,3.809 C11.630,3.788 11.621,3.742 11.612,3.673 C11.604,3.681 11.593,3.697 11.580,3.718 C11.567,3.740 11.556,3.755 11.547,3.763 C11.590,3.755 11.619,3.763 11.632,3.790 C11.645,3.816 11.649,3.846 11.645,3.880 C11.640,3.915 11.647,3.946 11.664,3.972 C11.682,3.997 11.720,4.011 11.781,4.011 C11.885,4.011 11.968,3.993 12.028,3.958 C12.063,3.941 12.136,3.946 12.249,3.972 C12.249,3.876 12.271,3.802 12.314,3.751 C12.314,3.716 12.342,3.705 12.399,3.718 C12.455,3.731 12.492,3.738 12.509,3.738 C12.405,3.660 12.401,3.616 12.496,3.607 C12.539,3.599 12.598,3.595 12.672,3.595 C12.745,3.595 12.791,3.595 12.808,3.595 C12.860,3.586 12.899,3.599 12.925,3.634 C12.934,3.651 12.942,3.664 12.951,3.673 C13.020,3.759 13.090,3.846 13.159,3.933 C13.445,4.331 13.683,4.756 13.874,5.207 C14.073,5.683 14.208,6.182 14.277,6.702 C14.294,6.832 14.307,6.966 14.316,7.105 C14.316,7.113 14.316,7.131 14.316,7.157 C14.325,7.209 14.303,7.248 14.251,7.273 C14.242,7.282 14.214,7.300 14.167,7.326 C14.119,7.351 14.084,7.369 14.063,7.378 C14.041,7.386 14.006,7.397 13.959,7.410 C13.911,7.423 13.878,7.421 13.861,7.404 C13.861,7.412 13.861,7.429 13.861,7.456 C13.861,7.482 13.863,7.503 13.868,7.521 C13.872,7.538 13.883,7.546 13.900,7.546 C13.943,7.555 14.000,7.542 14.069,7.507 C14.138,7.464 14.225,7.429 14.329,7.404 C14.329,7.551 14.325,7.690 14.316,7.819 C14.316,7.837 14.310,7.858 14.297,7.885 C14.284,7.911 14.271,7.934 14.258,7.956 C14.245,7.978 14.232,8.000 14.219,8.021 C14.206,8.043 14.195,8.066 14.186,8.092 C14.169,8.136 14.128,8.181 14.063,8.229 C13.998,8.277 13.961,8.300 13.952,8.300 C13.883,8.370 13.805,8.474 13.718,8.612 C13.640,8.708 13.597,8.769 13.588,8.794 C13.579,8.847 13.579,8.911 13.588,8.989 C13.597,9.007 13.631,9.076 13.692,9.198 C13.709,9.206 13.714,9.241 13.705,9.301 C13.696,9.362 13.692,9.397 13.692,9.406 C13.709,9.562 13.636,9.709 13.471,9.847 C13.350,9.952 13.302,10.047 13.328,10.134 C13.354,10.237 13.365,10.305 13.361,10.335 C13.356,10.366 13.293,10.398 13.172,10.432 C13.155,10.450 13.148,10.465 13.153,10.478 C13.157,10.491 13.166,10.515 13.179,10.549 C13.192,10.584 13.194,10.606 13.185,10.615 C13.185,10.641 13.179,10.662 13.166,10.680 C13.153,10.697 13.140,10.714 13.127,10.732 C13.114,10.749 13.098,10.766 13.081,10.784 C13.064,10.801 13.051,10.818 13.042,10.836 C13.033,10.836 13.018,10.853 12.997,10.888 C12.975,10.922 12.960,10.944 12.951,10.953 C12.942,10.961 12.927,10.979 12.906,11.005 C12.884,11.031 12.867,11.046 12.854,11.050 C12.841,11.054 12.823,11.065 12.802,11.083 C12.780,11.100 12.760,11.111 12.743,11.115 C12.726,11.120 12.704,11.124 12.678,11.128 C12.652,11.132 12.626,11.135 12.600,11.135 C12.531,11.135 12.474,11.143 12.431,11.161 C12.414,11.169 12.394,11.182 12.373,11.200 C12.351,11.217 12.329,11.230 12.308,11.239 C12.286,11.247 12.266,11.247 12.249,11.239 C12.206,11.230 12.173,11.213 12.152,11.187 C12.130,11.161 12.115,11.137 12.106,11.115 C12.097,11.093 12.089,11.059 12.080,11.011 C12.071,10.964 12.067,10.931 12.067,10.914 C12.058,10.870 12.024,10.801 11.963,10.706 C11.902,10.610 11.890,10.524 11.924,10.446 C11.942,10.402 11.942,10.357 11.924,10.309 C11.907,10.262 11.876,10.207 11.833,10.147 C11.790,10.086 11.760,10.038 11.742,10.003 C11.673,9.847 11.647,9.705 11.664,9.574 C11.673,9.488 11.708,9.414 11.768,9.354 C11.794,9.328 11.790,9.280 11.755,9.211 C11.738,9.202 11.731,9.161 11.736,9.087 C11.740,9.014 11.742,8.972 11.742,8.964 C11.734,8.946 11.720,8.914 11.703,8.866 C11.686,8.819 11.673,8.790 11.664,8.782 C11.630,8.669 11.590,8.599 11.547,8.573 C11.478,8.539 11.456,8.487 11.482,8.417 C11.482,8.400 11.486,8.359 11.495,8.294 C11.504,8.229 11.521,8.183 11.547,8.158 C11.547,8.131 11.549,8.117 11.554,8.112 C11.558,8.108 11.534,8.084 11.482,8.041 L11.482,8.041 L11.482,8.041 L11.482,8.041 C11.404,8.101 11.339,8.119 11.287,8.092 L11.287,8.092 ZM7.524,3.543 C7.502,3.543 7.487,3.541 7.478,3.536 C7.469,3.532 7.456,3.519 7.439,3.497 C7.422,3.476 7.409,3.460 7.400,3.451 C7.305,3.373 7.248,3.317 7.231,3.283 C7.205,3.231 7.183,3.200 7.166,3.192 C7.149,3.183 7.131,3.157 7.114,3.114 C7.071,3.018 7.071,2.940 7.114,2.879 C7.045,2.871 7.010,2.836 7.010,2.776 C7.010,2.749 7.004,2.737 6.991,2.737 C6.978,2.737 6.971,2.728 6.971,2.710 C6.963,2.693 6.956,2.643 6.952,2.561 C6.947,2.479 6.928,2.429 6.893,2.412 C6.815,2.359 6.707,2.320 6.568,2.295 C6.559,2.295 6.512,2.297 6.425,2.301 C6.339,2.306 6.295,2.295 6.295,2.269 C6.252,2.381 6.182,2.373 6.087,2.242 C6.070,2.225 6.039,2.212 5.996,2.203 C5.953,2.195 5.922,2.186 5.905,2.178 C5.862,2.134 5.862,2.104 5.905,2.086 C5.948,2.069 5.992,2.061 6.035,2.061 C6.061,2.061 6.083,2.056 6.100,2.047 C6.117,2.039 6.128,2.033 6.133,2.028 C6.137,2.024 6.146,2.011 6.159,1.989 C6.172,1.967 6.182,1.957 6.191,1.957 C6.200,1.939 6.226,1.926 6.269,1.918 C6.312,1.909 6.339,1.896 6.347,1.879 C6.347,1.852 6.391,1.827 6.477,1.801 C6.737,1.714 7.006,1.645 7.283,1.593 C7.820,1.497 8.366,1.476 8.921,1.528 C9.042,1.545 9.112,1.562 9.129,1.580 C9.172,1.684 9.224,1.714 9.285,1.671 C9.294,1.662 9.315,1.640 9.350,1.606 C9.385,1.597 9.411,1.597 9.428,1.606 C9.506,1.614 9.597,1.632 9.701,1.657 C9.692,1.675 9.632,1.727 9.519,1.813 C9.484,1.831 9.424,1.887 9.337,1.983 C9.320,2.008 9.305,2.039 9.292,2.074 C9.279,2.108 9.285,2.130 9.311,2.139 C9.354,2.147 9.376,2.158 9.376,2.171 C9.376,2.184 9.363,2.208 9.337,2.242 L9.324,2.269 C9.315,2.295 9.311,2.334 9.311,2.386 C9.311,2.437 9.302,2.472 9.285,2.489 C9.276,2.515 9.242,2.515 9.181,2.489 C9.120,2.464 9.081,2.455 9.064,2.464 C9.055,2.464 9.055,2.483 9.064,2.522 C9.073,2.561 9.086,2.602 9.103,2.645 C9.120,2.689 9.120,2.728 9.103,2.762 C9.086,2.797 9.051,2.810 8.999,2.801 C9.008,2.836 8.997,2.858 8.967,2.866 C8.936,2.875 8.904,2.875 8.869,2.866 C8.843,2.875 8.806,2.891 8.759,2.912 C8.711,2.934 8.678,2.944 8.661,2.944 C8.635,2.953 8.594,2.955 8.538,2.951 C8.481,2.947 8.444,2.949 8.427,2.957 C8.410,2.957 8.397,2.969 8.388,2.990 C8.379,3.012 8.369,3.033 8.356,3.055 C8.343,3.077 8.336,3.092 8.336,3.100 C8.327,3.118 8.310,3.129 8.284,3.133 C8.258,3.137 8.226,3.135 8.187,3.127 C8.148,3.118 8.124,3.114 8.115,3.114 C8.098,3.114 8.072,3.125 8.037,3.146 C8.002,3.168 7.976,3.183 7.959,3.192 C7.950,3.192 7.946,3.222 7.946,3.283 C7.946,3.343 7.916,3.369 7.855,3.361 C7.838,3.473 7.807,3.547 7.764,3.582 C7.729,3.607 7.695,3.614 7.660,3.601 C7.625,3.588 7.604,3.560 7.595,3.517 L7.595,3.517 L7.595,3.517 C7.569,3.534 7.545,3.543 7.524,3.543 ZM13.770,7.163 C13.761,7.107 13.751,7.059 13.738,7.020 C13.725,6.981 13.709,6.944 13.692,6.910 C13.683,6.892 13.657,6.860 13.614,6.812 C13.571,6.764 13.540,6.728 13.523,6.702 C13.497,6.632 13.480,6.572 13.471,6.520 C13.471,6.494 13.460,6.474 13.439,6.461 C13.417,6.448 13.406,6.433 13.406,6.416 C13.397,6.407 13.389,6.392 13.380,6.370 C13.371,6.348 13.365,6.329 13.361,6.312 C13.356,6.294 13.350,6.277 13.341,6.260 C13.332,6.242 13.324,6.225 13.315,6.208 C13.315,6.199 13.306,6.190 13.289,6.182 C13.272,6.190 13.259,6.195 13.250,6.195 C13.267,6.221 13.289,6.270 13.315,6.344 C13.341,6.418 13.363,6.472 13.380,6.507 C13.397,6.533 13.406,6.587 13.406,6.669 C13.406,6.751 13.406,6.806 13.406,6.832 C13.415,6.849 13.458,6.888 13.536,6.949 C13.562,6.975 13.597,7.027 13.640,7.105 C13.657,7.131 13.683,7.161 13.718,7.195 C13.753,7.230 13.774,7.261 13.783,7.287 C13.783,7.261 13.779,7.220 13.770,7.163 ZM12.295,5.837 C12.325,5.772 12.349,5.735 12.366,5.727 C12.383,5.718 12.440,5.731 12.535,5.766 C12.544,5.774 12.581,5.779 12.646,5.779 C12.711,5.779 12.767,5.783 12.815,5.792 C12.862,5.800 12.882,5.822 12.873,5.857 C12.899,5.831 12.951,5.826 13.029,5.844 C13.107,5.861 13.155,5.870 13.172,5.870 C13.189,5.870 13.215,5.822 13.250,5.727 C13.285,5.649 13.298,5.566 13.289,5.480 C13.185,5.523 13.116,5.536 13.081,5.519 C13.055,5.510 13.018,5.508 12.971,5.512 C12.923,5.516 12.886,5.514 12.860,5.506 C12.834,5.497 12.795,5.475 12.743,5.441 C12.691,5.406 12.661,5.380 12.652,5.363 C12.643,5.337 12.639,5.298 12.639,5.246 C12.639,5.194 12.635,5.155 12.626,5.129 C12.609,5.137 12.589,5.153 12.568,5.174 C12.546,5.196 12.526,5.207 12.509,5.207 C12.604,5.276 12.600,5.358 12.496,5.454 C12.383,5.558 12.314,5.588 12.288,5.545 C12.271,5.519 12.262,5.473 12.262,5.408 C12.262,5.343 12.258,5.298 12.249,5.272 C12.206,5.211 12.171,5.185 12.145,5.194 C12.119,5.194 12.097,5.194 12.080,5.194 C12.080,5.202 12.087,5.226 12.100,5.265 C12.113,5.304 12.115,5.337 12.106,5.363 C12.097,5.397 12.082,5.412 12.061,5.408 C12.039,5.404 12.020,5.389 12.002,5.363 C11.976,5.345 11.957,5.319 11.944,5.285 C11.931,5.250 11.916,5.220 11.898,5.194 C11.881,5.168 11.850,5.146 11.807,5.129 C11.686,5.077 11.608,5.016 11.573,4.947 C11.556,4.921 11.541,4.903 11.528,4.894 C11.515,4.886 11.504,4.884 11.495,4.888 C11.486,4.892 11.469,4.903 11.443,4.921 C11.417,4.938 11.396,4.951 11.378,4.960 C11.344,4.977 11.283,4.973 11.196,4.947 C11.179,4.938 11.166,4.940 11.157,4.953 C11.148,4.966 11.140,4.999 11.131,5.051 C11.122,5.077 11.083,5.098 11.014,5.116 C10.988,5.124 10.953,5.155 10.910,5.207 C10.901,5.224 10.904,5.243 10.917,5.265 C10.930,5.287 10.927,5.306 10.910,5.324 C10.901,5.332 10.891,5.343 10.878,5.356 C10.865,5.369 10.852,5.382 10.839,5.395 C10.826,5.408 10.815,5.419 10.806,5.428 C10.780,5.445 10.735,5.458 10.670,5.467 C10.605,5.475 10.568,5.493 10.559,5.519 C10.637,5.527 10.706,5.519 10.767,5.493 C10.784,5.484 10.810,5.471 10.845,5.454 C10.880,5.436 10.906,5.423 10.923,5.415 C11.001,5.380 11.131,5.363 11.313,5.363 C11.322,5.363 11.370,5.354 11.456,5.337 C11.543,5.319 11.590,5.319 11.599,5.337 C11.677,5.363 11.720,5.423 11.729,5.519 C11.738,5.553 11.736,5.577 11.723,5.590 C11.710,5.603 11.690,5.612 11.664,5.616 C11.638,5.621 11.621,5.623 11.612,5.623 C11.621,5.649 11.638,5.670 11.664,5.688 C11.690,5.705 11.716,5.718 11.742,5.727 C11.768,5.735 11.801,5.746 11.840,5.759 C11.879,5.772 11.902,5.783 11.911,5.792 C11.920,5.792 11.963,5.816 12.041,5.863 C12.119,5.911 12.180,5.935 12.223,5.935 L12.223,5.935 C12.240,5.935 12.264,5.902 12.295,5.837 ZM11.989,4.934 C11.972,4.925 11.948,4.906 11.918,4.875 C11.887,4.845 11.859,4.819 11.833,4.797 C11.807,4.775 11.786,4.760 11.768,4.752 C11.760,4.769 11.781,4.804 11.833,4.855 C11.885,4.908 11.920,4.942 11.937,4.960 C11.963,4.977 12.000,5.003 12.048,5.038 C12.095,5.072 12.132,5.098 12.158,5.116 C12.149,5.081 12.093,5.020 11.989,4.934 L11.989,4.934 ZM6.224,4.465 C6.254,4.448 6.280,4.435 6.302,4.426 C6.323,4.418 6.349,4.412 6.380,4.407 C6.410,4.403 6.436,4.403 6.458,4.407 C6.479,4.412 6.499,4.426 6.516,4.453 C6.516,4.444 6.510,4.429 6.497,4.407 C6.484,4.385 6.469,4.368 6.451,4.355 C6.434,4.342 6.417,4.344 6.399,4.362 C6.373,4.387 6.330,4.405 6.269,4.414 C6.208,4.422 6.174,4.448 6.165,4.492 C6.174,4.492 6.193,4.483 6.224,4.465 ZM4.982,2.847 C5.008,2.834 5.025,2.815 5.034,2.788 C5.017,2.788 4.989,2.788 4.950,2.788 C4.911,2.788 4.882,2.788 4.865,2.788 C4.908,2.815 4.930,2.849 4.930,2.893 C4.939,2.875 4.956,2.860 4.982,2.847 ZM12.899,5.051 C12.908,5.051 12.921,5.051 12.938,5.051 C12.964,5.051 12.981,5.051 12.990,5.051 C13.025,5.051 13.046,5.046 13.055,5.038 C13.081,4.994 13.133,4.973 13.211,4.973 C13.237,4.973 13.263,4.973 13.289,4.973 C13.315,4.981 13.354,4.999 13.406,5.025 C13.441,5.042 13.462,5.055 13.471,5.064 C13.480,5.064 13.493,5.064 13.510,5.064 C13.588,5.064 13.653,5.055 13.705,5.038 L13.705,5.025 C13.705,4.990 13.688,4.964 13.653,4.947 C13.627,4.929 13.597,4.903 13.562,4.869 C13.510,4.825 13.471,4.799 13.445,4.791 C13.384,4.773 13.354,4.747 13.354,4.713 C13.337,4.747 13.311,4.777 13.276,4.804 L13.263,4.804 C13.228,4.830 13.202,4.843 13.185,4.843 C13.159,4.843 13.142,4.834 13.133,4.816 C13.098,4.730 13.068,4.678 13.042,4.660 C13.016,4.660 12.994,4.678 12.977,4.713 C12.934,4.799 12.895,4.855 12.860,4.882 C12.834,4.908 12.817,4.934 12.808,4.960 C12.834,4.977 12.843,5.012 12.834,5.064 L12.834,5.064 L12.834,5.064 C12.860,5.055 12.882,5.051 12.899,5.051 L12.899,5.051 Z"/>
</svg>
