<svg version="1.1" id="layer-5" xmlns="http://www.w3.org/2000/svg" xmlns:xlink="http://www.w3.org/1999/xlink" x="0px" y="0px"
	 viewBox="223 0 512 560" enable-background="new 223 0 512 560" xml:space="preserve">
<path d="M462.5,332.5c0-9.6-7.9-17.5-17.5-17.5H252.5c-9.6,0-17.5,7.9-17.5,17.5V525c0,9.6,7.9,17.5,17.5,17.5H445
	c9.6,0,17.5-7.9,17.5-17.5V332.5z M392.5,17.5c-9.6,0-17.5,7.9-17.5,17.5v227.5h70v-35h210V420H515v70h192.5
	c9.6,0,17.5-7.9,17.5-17.5v-315c0-9.6-5.6-23.1-12.4-29.9l-97.7-97.6c-6.8-6.8-20.3-12.4-29.9-12.4H392.5z M585,157.5v-105l105,105
	H585z"/>
</svg>
