<svg id="toggle-disconnected" width="100%" height="100%" viewBox="0 0 16 13" xmlns="http://www.w3.org/2000/svg"><g stroke="none" fill-rule="evenodd"><path d="M11.765 9.62c-.7 0-1.33-.265-1.795-.7H8.7c.615.985 1.76 1.645 3.065 1.645 1.965 0 3.55-1.48 3.55-3.315s-1.585-3.315-3.55-3.315c-1.32 0-2.47.67-3.08 1.67H9.94c.465-.445 1.11-.725 1.825-.725 1.4 0 2.535 1.065 2.535 2.37 0 1.305-1.135 2.37-2.535 2.37M4.235 9.62c.7 0 1.33-.265 1.795-.7H7.3c-.615.985-1.76 1.645-3.065 1.645-1.965 0-3.55-1.48-3.55-3.315s1.585-3.315 3.55-3.315c1.32 0 2.47.67 3.08 1.67H6.06c-.465-.445-1.11-.725-1.825-.725-1.4 0-2.535 1.065-2.535 2.37 0 1.305 1.135 2.37 2.535 2.37M5.815 1.455C5.68 1.215 5.76.91 6 .77c.24-.135.545-.055.685.185l.75 1.3c.135.24.055.545-.185.685-.24.135-.545.055-.685-.185l-.75-1.3M8.315 11.455c-.135-.24-.055-.545.185-.685.24-.135.545-.055.685.185l.75 1.3c.135.24.055.545-.185.685-.24.135-.545.055-.685-.185l-.75-1.3M9.935 1.455c.135-.24.055-.545-.185-.685-.24-.135-.545-.055-.685.185l-.75 1.3c-.135.24-.055.545.185.685.24.135.545.055.685-.185l.75-1.3M7.435 11.455c.135-.24.055-.545-.185-.685-.24-.135-.545-.055-.685.185l-.75 1.3c-.135.24-.055.545.185.685.24.135.545.055.685-.185l.75-1.3"/></g></svg>