<svg id="menu-commands" xmlns="http://www.w3.org/2000/svg" xmlns:xlink="http://www.w3.org/1999/xlink" preserveAspectRatio="xMidYMid" width="100%" height="100%" viewBox="0 0 56 44">
  <defs>
    <style>
      .cls-1 {
        fill: #000;
        fill-rule: evenodd;
      }
    </style>
  </defs>
    <path d="M49.012,20.989 L37.000,38.000 L12.836,38.128 C9.474,38.128 7.012,36.535 7.012,33.869 C7.012,30.583 9.625,27.988 12.836,27.988 L34.452,27.988 L51.756,1.500 L51.924,1.165 C52.036,0.904 51.970,0.642 51.728,0.380 C51.485,0.120 51.009,-0.011 50.300,-0.011 L20.452,-0.011 L1.748,25.692 L1.300,26.420 C1.039,26.907 0.759,27.803 0.460,29.109 C0.161,30.416 0.012,31.890 0.012,33.533 C0.012,33.570 0.012,33.626 0.012,33.701 L0.012,33.756 C0.012,33.794 0.012,33.832 0.012,33.869 C0.012,37.228 1.281,38.830 3.820,41.425 C6.358,44.020 9.364,43.943 12.836,43.943 L40.388,43.943 L55.844,22.501 L56.012,22.165 C56.124,21.904 56.059,21.642 55.816,21.381 C55.572,21.120 55.097,20.989 54.388,20.989 L54.388,20.989 L49.012,20.989 Z" class="cls-1"/>
</svg>
