<svg id="toggle-lock" xmlns="http://www.w3.org/2000/svg" xmlns:xlink="http://www.w3.org/1999/xlink" preserveAspectRatio="xMidYMid" width="100%" height="100%"  viewBox="0 0 16 16">
<path d="M4.000,6.959 L4.000,12.003 C4.000,12.993 4.980,12.996 4.980,12.996 L11.007,12.996 C11.007,12.996 11.998,12.999 11.998,12.006 L11.998,6.928 C11.998,6.012 10.982,6.013 10.982,6.013 L10.544,6.013 L10.544,5.832 C10.544,4.327 9.391,3.018 7.988,3.018 C6.585,3.018 5.454,4.327 5.454,5.832 L5.454,6.013 L4.946,6.013 C4.946,6.013 4.000,6.041 4.000,6.959 ZM9.635,6.013 L6.352,6.013 L6.352,5.832 C6.352,4.930 6.908,3.943 7.999,3.943 C9.079,3.943 9.635,4.930 9.635,5.832 L9.635,6.013 Z"/>
</svg>
