<svg width="100%" height="100%" id="layer-8" viewBox="0 0 14 16" xmlns="http://www.w3.org/2000/svg"><path d="M1 11.433V5.05l5.5 3.193v6.384L1 11.433zM7 16c.085 0 .175-.02.25-.065l6.5-3.773c.155-.09.25-.257.25-.438V4.18c0-.182-.095-.348-.25-.44l-.01-.004L7.245.064c-.15-.085-.34-.085-.49 0L.26 3.736l-.01.005C.095 3.834 0 4 0 4.18v7.544c0 .18.095.347.25.438l6.5 3.773c.075.045.165.065.25.065zm.5-1.373V8.243L13 5.05v6.383l-5.5 3.194zM7 7.373l-5.49-3.19L7 1.076l5.49 3.11L7 7.372z" stroke="none" fill-rule="evenodd"/></svg>
