<svg id="text-left" xmlns="http://www.w3.org/2000/svg" xmlns:xlink="http://www.w3.org/1999/xlink" preserveAspectRatio="xMidYMid" width="100%" height="100%" viewBox="0 0 16 16">
<path d="M12.500,4.000 L2.500,4.000 C2.224,4.000 2.000,3.776 2.000,3.500 C2.000,3.224 2.224,3.000 2.500,3.000 L12.500,3.000 C12.776,3.000 13.000,3.224 13.000,3.500 C13.000,3.776 12.776,4.000 12.500,4.000 ZM2.500,6.000 L11.000,6.000 C11.276,6.000 11.500,6.224 11.500,6.500 C11.500,6.776 11.276,7.000 11.000,7.000 L2.500,7.000 C2.224,7.000 2.000,6.776 2.000,6.500 C2.000,6.224 2.224,6.000 2.500,6.000 ZM2.500,9.000 L12.500,9.000 C12.776,9.000 13.000,9.224 13.000,9.500 C13.000,9.776 12.776,10.000 12.500,10.000 L2.500,10.000 C2.224,10.000 2.000,9.776 2.000,9.500 C2.000,9.224 2.224,9.000 2.500,9.000 ZM2.500,12.000 L6.500,12.000 C6.776,12.000 7.000,12.224 7.000,12.500 C7.000,12.776 6.776,13.000 6.500,13.000 L2.500,13.000 C2.224,13.000 2.000,12.776 2.000,12.500 C2.000,12.224 2.224,12.000 2.500,12.000 Z" />
</svg>
