<svg version="1.1" id="libraries-addLayerStyle" xmlns="http://www.w3.org/2000/svg" xmlns:xlink="http://www.w3.org/1999/xlink" x="0px" y="0px"
	 width="100%" height="100%" viewBox="0 0 14 14" enable-background="new 0 0 14 14" xml:space="preserve">
  <title>
    Add Layer Style
  </title>
  <path id="Effects_Md_N.svg_1_" d="M2.6,5C2.3,6.1,0.4,11.9,0,13.2c0,0.1,0.1,0.4,0.2,0.4c0.2,0,0.7,0,1.2,0c0.1,0,0.2,0,0.2-0.2
	C2,12,3.7,7.6,4.4,5.2c0,0,2.2,0,2.6,0l1.8,2.6C7.7,9,6.1,10.1,5,11.4c-0.1,0,0,0.1,0,0.1h1.8c0.1,0,2-1.9,2.7-2.7h0
	c0,0,1.3,2.7,1.3,2.7h1.6c0.1,0,0.1-0.1,0.1-0.1l-2-3.4c1-1.1,2.6-2.5,3.4-3.5c0.1,0,0-0.4,0-0.4h-1.4c-0.1,0-0.4,0.2-0.4,0.2
	L9.8,6.9l-0.1,0L8.5,4.3c0,0-0.2-0.3-0.3-0.3L7.5,4H4.8l0.1-0.9c0.5-2.4,1.8-2,2.6-2c0.3,0,0.9,0.3,1.2,0.4c0.1,0,0.1,0,0.1-0.1
	l0.4-1c0-0.1,0-0.1-0.1-0.2C8.9,0.2,8,0,7.5,0C5.5,0,4,0,3.3,3.1L3,4H1C0.9,4,0.8,4.1,0.6,4.6L0.4,4.9v0.3C0.5,5.2,2.6,5,2.6,5"/>
</svg>