<svg xmlns="http://www.w3.org/2000/svg" xmlns:xlink="http://www.w3.org/1999/xlink" preserveAspectRatio="xMidYMid" width="13" height="13" viewBox="0 0 13 13">
  <defs>
    <style>
      .cls-1 {
        fill: #e6e6e6;
        fill-rule: evenodd;
      }
    </style>
  </defs>
  <g id="artboard-1">
    <path d="M3.289,3.080 C2.845,3.844 2.623,4.682 2.623,5.594 C2.623,6.570 2.887,7.470 3.415,8.294 L0.991,10.718 C0.911,10.798 0.849,10.864 0.805,10.916 C0.761,10.968 0.719,11.044 0.679,11.144 C0.639,11.244 0.619,11.352 0.619,11.468 C0.619,11.584 0.639,11.692 0.679,11.792 C0.719,11.892 0.761,11.966 0.805,12.014 C0.849,12.062 0.913,12.128 0.997,12.212 C1.081,12.296 1.147,12.360 1.195,12.404 C1.243,12.448 1.317,12.490 1.417,12.530 C1.517,12.570 1.625,12.590 1.741,12.590 C1.857,12.590 1.965,12.570 2.065,12.530 C2.165,12.490 2.241,12.448 2.293,12.404 C2.345,12.360 2.411,12.298 2.491,12.218 L4.915,9.794 C5.739,10.322 6.639,10.586 7.615,10.586 C8.527,10.586 9.365,10.364 10.129,9.920 C10.893,9.476 11.499,8.870 11.947,8.102 C12.395,7.334 12.619,6.496 12.619,5.588 C12.619,4.680 12.395,3.844 11.947,3.080 C11.499,2.316 10.893,1.710 10.129,1.262 C9.365,0.814 8.529,0.590 7.621,0.590 C6.713,0.590 5.875,0.814 5.107,1.262 C4.339,1.710 3.733,2.316 3.289,3.080 ZM4.123,5.594 C4.123,4.954 4.279,4.366 4.591,3.830 C4.903,3.294 5.327,2.870 5.863,2.558 C6.399,2.246 6.983,2.090 7.615,2.090 C8.583,2.090 9.409,2.432 10.093,3.116 C10.777,3.800 11.119,4.624 11.119,5.588 C11.119,6.552 10.777,7.376 10.093,8.060 C9.409,8.744 8.585,9.086 7.621,9.086 C6.657,9.086 5.833,8.744 5.149,8.060 C4.465,7.376 4.123,6.554 4.123,5.594 L4.123,5.594 Z" class="cls-1"/>
  </g>
</svg>
