<svg id="layer-pixel-mask" xmlns="http://www.w3.org/2000/svg" xmlns:xlink="http://www.w3.org/1999/xlink" preserveAspectRatio="xMidYMid" width="100%" height="100%" viewBox="0 0 18 18">
<path d="M17.000,15.000 L17.000,18.000 L14.000,18.000 L14.000,17.000 L12.000,17.000 L12.000,18.000 L9.000,18.000 L9.000,15.000 L9.997,15.000 L9.994,12.969 L9.000,12.969 L9.000,10.000 L12.000,10.000 L12.000,11.000 L14.000,11.000 L14.000,10.000 L17.000,10.000 L17.000,13.000 L15.966,13.000 L15.966,15.000 L17.000,15.000 ZM9.991,17.000 L11.000,17.000 L11.000,16.000 L10.000,16.000 L9.991,17.000 ZM11.000,11.000 L9.991,11.000 L9.991,12.000 L11.000,12.000 L11.000,11.000 ZM14.000,12.029 L13.970,12.000 L12.000,12.000 L12.000,12.969 L11.020,12.969 L10.989,13.000 L10.989,15.000 L12.000,15.000 L12.000,16.000 L13.970,16.000 L14.000,15.971 L14.000,15.000 L15.000,15.000 L15.000,13.000 L14.000,13.000 L14.000,12.029 ZM16.000,12.000 L16.000,11.000 L15.000,11.000 L15.000,12.000 L16.000,12.000 ZM15.000,16.000 L15.000,17.000 L16.000,17.000 L16.000,16.000 L15.000,16.000 Z" />
<path d="M15.000,9.000 L15.000,4.000 L3.000,4.000 L3.000,12.982 L8.000,12.982 L8.000,13.982 L2.000,13.982 L2.000,3.000 L16.000,3.000 L16.000,9.000 L15.000,9.000 ZM4.000,11.982 L4.000,11.095 C4.000,11.095 6.772,8.251 7.302,8.251 C7.492,8.251 7.789,8.582 8.113,9.000 L8.000,9.000 L8.000,11.982 L4.000,11.982 ZM11.025,6.347 C11.025,5.565 11.691,4.931 12.512,4.931 C13.334,4.931 14.000,5.565 14.000,6.347 C14.000,7.130 13.334,7.764 12.512,7.764 C11.691,7.764 11.025,7.130 11.025,6.347 Z" />
</svg>
