<svg id="align-top" xmlns="http://www.w3.org/2000/svg" xmlns:xlink="http://www.w3.org/1999/xlink" preserveAspectRatio="xMidYMid" width="100%" height="100%" viewBox="0 0 16 16">
<path d="M14.000,2.000 L2.000,2.000 C1.725,2.000 1.500,1.797 1.500,1.511 C1.500,1.225 1.725,0.991 2.000,0.991 L14.000,0.991 C14.275,0.991 14.500,1.225 14.500,1.511 C14.500,1.797 14.275,2.000 14.000,2.000 ZM4.000,3.969 L6.000,3.969 C6.550,3.969 7.000,4.437 7.000,5.009 L7.000,13.942 C7.000,14.514 6.550,14.982 6.000,14.982 L4.000,14.982 C3.450,14.982 3.000,14.514 3.000,13.942 L3.000,5.009 C3.000,4.437 3.450,3.969 4.000,3.969 ZM10.000,3.984 L12.000,3.984 C12.550,3.984 13.000,4.452 13.000,5.024 L13.000,9.942 C13.000,10.514 12.550,10.982 12.000,10.982 L10.000,10.982 C9.450,10.982 9.000,10.514 9.000,9.942 L9.000,5.024 C9.000,4.452 9.450,3.984 10.000,3.984 Z"/>
</svg>
