<svg id="workspace" xmlns="http://www.w3.org/2000/svg" xmlns:xlink="http://www.w3.org/1999/xlink" preserveAspectRatio="xMidYMid" width="100%" height="100%" viewBox="0 0 16 16">
    <path d="M-0.000,15.003 L-0.000,1.000 L15.000,1.000 L15.000,15.003 L-0.000,15.003 ZM14.098,1.917 L0.926,1.917 L0.926,14.079 L14.098,14.079 L14.098,1.917 ZM3.861,3.820 C4.260,3.797 4.846,3.797 5.479,3.797 C7.213,3.797 7.893,4.870 7.893,6.076 C7.893,7.653 6.744,8.383 5.338,8.383 C5.103,8.383 5.010,8.383 4.846,8.383 L4.846,10.924 C4.846,10.970 4.822,10.993 4.775,10.993 L3.814,10.993 C3.768,10.993 3.744,10.970 3.744,10.924 L3.744,3.889 L3.721,3.889 C3.721,3.843 3.814,3.820 3.861,3.820 ZM4.822,7.386 C4.963,7.386 5.080,7.386 5.338,7.386 C6.064,7.386 6.768,7.073 6.768,6.099 C6.768,5.310 6.275,4.771 5.432,4.771 C5.174,4.771 4.939,4.771 4.822,4.794 L4.822,7.386 ZM9.744,8.900 C8.853,8.483 8.478,8.042 8.478,7.347 C8.478,6.558 9.111,5.886 10.189,5.886 C10.728,5.886 11.104,5.978 11.314,6.048 C11.361,6.071 11.385,6.141 11.385,6.164 L11.385,7.022 C11.385,7.068 11.361,7.115 11.291,7.092 C11.010,6.906 10.611,6.790 10.213,6.790 C9.721,6.790 9.557,7.045 9.557,7.231 C9.557,7.462 9.674,7.602 10.330,7.949 C11.314,8.413 11.619,8.877 11.619,9.526 C11.619,10.523 10.846,11.057 9.814,11.057 C9.275,11.057 8.807,10.941 8.525,10.802 C8.478,10.779 8.478,10.755 8.478,10.709 L8.478,9.805 C8.478,9.735 8.502,9.712 8.549,9.758 C8.947,10.013 9.393,10.129 9.814,10.129 C10.307,10.129 10.518,9.920 10.518,9.642 C10.518,9.410 10.377,9.225 9.744,8.900 Z" />
</svg>
