<svg id="style-paste" xmlns="http://www.w3.org/2000/svg" xmlns:xlink="http://www.w3.org/1999/xlink" preserveAspectRatio="xMidYMid" width="100%" height="100%" viewBox="0 0 16 16">
<path d="M11.000,6.000 C11.000,7.004 9.988,7.000 9.988,7.000 L5.950,7.000 C5.950,7.000 5.000,7.021 5.000,6.000 C5.000,5.491 5.000,3.969 5.000,3.969 C5.000,3.969 4.000,4.075 4.000,5.000 C4.000,5.925 4.000,10.926 4.000,12.000 C4.000,13.074 5.000,13.000 5.000,13.000 L11.000,13.000 C11.000,13.000 12.000,12.987 12.000,12.000 C12.000,11.013 12.000,5.965 12.000,5.000 C12.000,4.035 11.000,3.969 11.000,3.969 C11.000,3.969 11.000,4.997 11.000,6.000 ZM9.493,3.465 C9.493,3.050 9.347,2.696 9.054,2.404 C8.762,2.111 8.408,1.965 7.993,1.965 C7.576,1.965 7.223,2.111 6.931,2.404 C6.638,2.696 6.492,3.050 6.492,3.465 C6.492,3.642 6.521,3.809 6.577,3.969 L6.000,3.969 L6.000,6.000 L10.000,6.000 L10.000,3.969 L9.409,3.969 C9.464,3.809 9.493,3.642 9.493,3.465 L9.493,3.465 ZM7.993,2.709 C8.409,2.709 8.737,3.050 8.737,3.465 C8.737,3.881 7.993,4.753 7.993,4.753 C7.993,4.753 7.280,3.921 7.280,3.465 C7.280,3.009 7.410,2.709 7.993,2.709 Z" />
</svg>
