<svg id="libraries-addGraphic" xmlns="http://www.w3.org/2000/svg" xmlns:xlink="http://www.w3.org/1999/xlink" preserveAspectRatio="xMidYMid" width="100%" viewBox="0 0 16 16">
<path d="M5.386,11.929 C5.666,13.567 7.034,14.918 8.761,14.918 C10.169,14.918 11.387,14.149 11.946,12.985 L14.971,12.985 L14.971,6.040 L11.976,6.040 L11.976,0.891 L-0.315,11.929 L5.386,11.929 ZM5.336,10.936 L2.091,10.946 L11.165,3.002 L10.968,6.040 L8.981,6.040 C8.981,6.040 8.961,8.013 8.981,8.013 C7.123,8.013 5.476,9.286 5.336,11.061 L5.336,10.936 ZM6.125,11.476 C6.125,10.045 7.303,8.891 8.761,8.891 C10.219,8.891 11.407,10.045 11.407,11.476 C11.407,12.906 10.219,14.060 8.761,14.060 C7.303,14.060 6.125,12.906 6.125,11.476 L6.125,11.476 Z"/>
</svg>
