<svg id="layer-text-mask" xmlns="http://www.w3.org/2000/svg" xmlns:xlink="http://www.w3.org/1999/xlink" preserveAspectRatio="xMidYMid" width="100%" height="100%" viewBox="0 0 18 18">
<path d="M12.000,6.000 C11.490,6.000 11.013,5.500 11.013,5.000 L11.013,4.000 L8.000,4.000 L8.000,14.000 L9.000,14.000 L9.000,16.000 L5.000,16.000 C4.490,16.000 4.000,15.500 4.000,15.000 C4.000,14.500 4.490,14.000 5.000,14.000 L6.000,14.000 L6.000,4.000 L3.000,4.000 L3.000,5.000 C3.000,5.500 2.510,6.000 2.000,6.000 C1.490,6.000 1.000,5.500 1.000,5.000 L1.000,3.000 C1.000,2.500 1.505,2.000 2.015,2.000 L12.000,2.000 C12.510,2.000 13.000,2.500 13.000,3.000 L13.000,5.000 C13.000,5.500 12.510,6.000 12.000,6.000 Z" />
<path d="M18.000,15.000 L18.000,18.000 L15.000,18.000 L15.000,17.000 L13.000,17.000 L13.000,18.000 L10.000,18.000 L10.000,15.000 L10.997,15.000 L10.994,12.969 L10.000,12.969 L10.000,10.000 L13.000,10.000 L13.000,11.000 L15.000,11.000 L15.000,10.000 L18.000,10.000 L18.000,13.000 L16.966,13.000 L16.966,15.000 L18.000,15.000 ZM10.991,17.000 L12.000,17.000 L12.000,16.000 L11.000,16.000 L10.991,17.000 ZM12.000,11.000 L10.991,11.000 L10.991,12.000 L12.000,12.000 L12.000,11.000 ZM15.000,12.029 L14.970,12.000 L13.000,12.000 L13.000,12.969 L12.020,12.969 L11.989,13.000 L11.989,15.000 L13.000,15.000 L13.000,16.000 L14.970,16.000 L15.000,15.971 L15.000,15.000 L16.000,15.000 L16.000,13.000 L15.000,13.000 L15.000,12.029 ZM17.000,12.000 L17.000,11.000 L16.000,11.000 L16.000,12.000 L17.000,12.000 ZM16.000,16.000 L16.000,17.000 L17.000,17.000 L17.000,16.000 L16.000,16.000 Z" />
</svg>
