<svg width="100%" height="100%" viewBox="0 0 16 11" id="layer-1" xmlns="http://www.w3.org/2000/svg"><g stroke="none" fill-rule="evenodd"><path d="M1 1h12v9H1V1zm-1 9.38c0 .34.28.62.62.62h12.76c.34 0 .62-.28.62-.62V.62c0-.34-.28-.62-.62-.62H.62C.28 0 0 .28 0 .62v9.76zM4.548 3.272c.18-.34.45-.37.65-.04.51.92 1.32 2.71 1.72 3.47.18.36.41.37.63-.01.33-.56 1.06-1.71 1.43-2.34.19-.33.52-.32.73 0 .62.98 1.8 3.19 2.23 3.99.18.34-.06.66-.42.66h-9.02c-.36 0-.58-.31-.47-.68.27-.93 1.86-3.78 2.52-5.05"/></g></svg>