<svg xmlns="http://www.w3.org/2000/svg" xmlns:xlink="http://www.w3.org/1999/xlink" preserveAspectRatio="xMidYMid" width="25" height="20" viewBox="0 0 25 20">
  <title>
    Cusror Eyedropper Text
  </title>
  <defs>
    <style>
      .cls-1{
        fill: #fff;
        opacity: 0.35;
      }

      .cls-1, .cls-6 {
        fill-rule: evenodd;
      }

      .cls-6 {
        fill: #191919;
      }
    </style>
  </defs>
  <g>
    <path d="M6.027,3.000 L6.027,3.500 C6.027,3.750 6.418,4.000 7.520,4.000 C8.622,4.000 9.020,3.750 9.020,3.500 L9.020,0.500 C9.020,0.250 8.775,-0.000 8.520,-0.000 L0.496,-0.000 C0.241,-0.000 -0.011,0.250 -0.011,0.500 L-0.011,3.500 C-0.011,3.750 0.473,4.000 1.489,4.000 C2.504,4.000 2.989,3.750 2.989,3.500 L2.989,3.000 L2.989,3.000 L2.989,6.000 L2.489,6.000 C2.234,6.000 1.989,6.510 1.989,7.500 C1.989,8.490 2.234,9.000 2.489,9.000 L6.489,9.000 C6.744,9.000 6.989,8.518 6.989,7.500 C6.989,6.482 6.744,6.000 6.489,6.000 L5.989,6.000 L5.989,3.000 L6.027,3.000 Z" class="cls-1"/>
    <path d="M7.027,2.000 L7.027,2.500 C7.027,2.750 7.265,3.000 7.520,3.000 C7.775,3.000 8.020,2.750 8.020,2.500 L8.020,1.500 C8.020,1.250 7.775,1.000 7.520,1.000 L1.496,1.000 C1.241,1.000 0.989,1.250 0.989,1.500 L0.989,2.500 C0.989,2.750 1.234,3.000 1.489,3.000 C1.744,3.000 1.989,2.750 1.989,2.500 L1.989,2.000 L3.989,2.000 L3.989,7.000 L3.489,7.000 C3.234,7.000 2.989,7.250 2.989,7.500 C2.989,7.750 3.234,8.000 3.489,8.000 L5.489,8.000 C5.744,8.000 5.989,7.750 5.989,7.500 C5.989,7.250 5.744,7.000 5.489,7.000 L4.989,7.000 L4.989,2.000 L7.027,2.000 Z" class="cls-6"/>
  </g>
</svg>
