<svg xmlns="http://www.w3.org/2000/svg" xmlns:xlink="http://www.w3.org/1999/xlink" preserveAspectRatio="xMidYMid" width="21" height="22" viewBox="0 0 21 22">
  <title>
    Cusror Eyedropper Layer FX
  </title>
  <defs>
    <style>
      .cls-6, .cls-7 {
        fill-rule: evenodd;
      }

      .cls-6 {
        opacity: 0.35;
        fill: #FFF;
      }

      .cls-7 {
        fill: #1d1d1d;
      }
    </style>
  </defs>
  <g>
    <path d="M8.474,6.243 C8.723,6.816 9.473,9.437 9.660,9.870 C9.678,9.914 9.660,9.940 9.615,9.940 L6.636,9.940 C6.592,9.940 6.547,9.878 6.547,9.878 L6.421,8.294 L6.047,9.887 C6.047,9.887 6.020,9.931 5.958,9.940 L3.784,9.940 C3.678,10.457 3.588,10.867 3.533,11.035 C3.515,11.088 3.497,11.106 3.444,11.106 C3.168,11.141 0.326,11.096 0.255,11.105 C0.219,11.105 0.202,11.078 0.211,11.034 C0.416,10.381 1.129,6.615 1.262,5.971 L0.349,5.975 C0.322,5.975 -0.023,5.949 -0.014,5.913 L0.528,2.984 C0.537,2.949 0.555,2.931 0.590,2.931 L1.907,2.954 C2.192,1.675 3.280,0.008 4.732,0.008 C5.896,0.008 7.113,0.806 7.143,0.711 C7.019,1.110 6.679,2.199 6.448,2.942 L6.894,2.944 L6.973,4.301 L7.332,2.984 C7.359,2.949 7.376,2.931 7.421,2.931 L10.500,2.931 C10.544,2.931 10.553,2.975 10.526,3.002 C10.152,3.469 8.928,5.722 8.474,6.243 Z" class="cls-6"/>
    <path d="M7.362,6.243 C7.612,6.816 8.330,8.464 8.517,8.896 C8.535,8.940 8.517,8.966 8.473,8.966 L7.492,8.966 C7.447,8.966 7.421,8.949 7.403,8.905 L6.596,6.825 L6.587,6.825 C6.284,7.266 5.472,8.508 5.097,8.976 C5.088,9.002 5.071,9.020 5.008,9.029 L3.956,9.029 C3.921,9.029 3.903,8.994 3.929,8.958 C4.455,8.341 5.553,6.798 6.043,6.216 L5.520,4.938 L3.783,4.935 C3.435,6.628 2.771,9.332 2.584,9.905 C2.566,9.958 2.548,9.976 2.495,9.976 C2.218,10.011 1.469,9.966 1.398,9.975 C1.362,9.975 1.344,9.948 1.353,9.904 C1.558,9.251 2.428,5.579 2.561,4.935 L1.236,4.939 C1.209,4.939 1.182,4.912 1.191,4.877 L1.483,4.052 C1.492,4.016 1.510,3.999 1.546,3.999 L2.816,3.999 L3.088,2.928 C3.373,1.649 4.033,0.977 4.951,0.977 C5.344,0.977 6.233,1.375 6.312,1.435 C6.344,1.459 6.348,1.487 6.332,1.520 L6.050,2.175 C6.034,2.208 6.011,2.231 5.978,2.216 C5.904,2.175 5.209,1.966 4.960,1.966 C4.648,1.966 4.309,2.072 4.140,2.857 L3.850,3.999 L5.205,3.999 L5.253,3.999 L6.319,3.999 C6.364,3.999 6.373,4.008 6.382,4.043 L6.827,5.687 L6.836,5.687 L8.031,3.958 C8.058,3.923 8.076,3.905 8.120,3.905 L9.101,3.905 C9.146,3.905 9.154,3.949 9.128,3.976 C8.753,4.443 7.817,5.722 7.362,6.243 Z" class="cls-7"/>
  </g>
</svg>
