<svg id="align-center" xmlns="http://www.w3.org/2000/svg" xmlns:xlink="http://www.w3.org/1999/xlink" preserveAspectRatio="xMidYMid" width="100%" height="100%" viewBox="0 0 16 16">
<path d="M7.481,1.500 C7.193,1.500 6.988,1.725 6.988,2.000 L6.988,3.000 L5.018,3.000 C4.442,3.000 3.970,3.450 3.970,4.000 L3.970,6.000 C3.970,6.550 4.442,7.000 5.018,7.000 L6.988,7.000 L6.988,9.000 L3.048,9.000 C2.471,9.000 2.000,9.450 2.000,10.000 L2.000,12.000 C2.000,12.550 2.471,13.000 3.048,13.000 L6.988,13.000 L6.988,14.000 C6.988,14.275 7.193,14.500 7.481,14.500 C7.769,14.500 8.005,14.275 8.005,14.000 L8.005,13.000 L11.953,13.000 C12.529,13.000 13.000,12.550 13.000,12.000 L13.000,10.000 C13.000,9.450 12.529,9.000 11.953,9.000 L8.005,9.000 L8.005,7.000 L9.943,7.000 C10.520,7.000 10.991,6.550 10.991,6.000 L10.991,4.000 C10.991,3.450 10.520,3.000 9.943,3.000 L8.005,3.000 L8.005,2.000 C8.005,1.725 7.769,1.500 7.481,1.500 "/>
</svg>
