<svg id="artboard-proportion" xmlns="http://www.w3.org/2000/svg" xmlns:xlink="http://www.w3.org/1999/xlink" preserveAspectRatio="xMidYMid" width="100%" height="100%" viewBox="0 0 16 16">
<path d="M15.163,11.608 L12.000,14.945 C11.725,15.262 11.291,15.262 11.024,14.945 L7.891,11.608 C7.624,11.284 7.746,11.027 8.166,11.027 L10.765,11.027 L11.000,11.027 L11.000,9.000 C11.000,6.815 10.207,5.000 8.000,5.000 L5.942,5.005 L5.942,5.317 L5.942,7.891 C5.942,8.306 5.683,8.427 5.355,8.163 L1.985,5.030 C1.665,4.758 1.665,4.328 1.985,4.064 L5.355,0.961 C5.683,0.697 5.942,0.817 5.942,1.233 L5.942,3.807 L5.942,4.000 L8.000,4.000 C10.758,4.000 12.000,6.270 12.000,9.000 L12.010,11.027 L12.290,11.027 L14.889,11.027 C15.308,11.027 15.430,11.284 15.163,11.608 Z" />
</svg>
