<svg id="tool-maskmode" xmlns="http://www.w3.org/2000/svg" xmlns:xlink="http://www.w3.org/1999/xlink" preserveAspectRatio="xMidYMid" width="100%" height="100%" viewBox="0 0 18 18">
<path d="M12.000,10.000 L12.000,9.000 L13.000,9.000 L13.000,10.000 L12.000,10.000 ZM12.000,7.000 L13.000,7.000 L13.000,8.000 L12.000,8.000 L12.000,7.000 ZM11.000,5.000 L12.000,5.000 L12.000,6.000 L11.000,6.000 L11.000,5.000 ZM9.000,12.000 L10.000,12.000 L10.000,13.000 L9.000,13.000 L9.000,12.000 ZM9.000,4.000 L10.000,4.000 L10.000,5.000 L9.000,5.000 L9.000,4.000 ZM7.000,12.000 L8.000,12.000 L8.000,13.000 L7.000,13.000 L7.000,12.000 ZM7.000,4.000 L8.000,4.000 L8.000,5.000 L7.000,5.000 L7.000,4.000 ZM5.000,11.000 L6.000,11.000 L6.000,12.000 L5.000,12.000 L5.000,11.000 ZM5.000,5.000 L6.000,5.000 L6.000,6.000 L5.000,6.000 L5.000,5.000 ZM5.000,8.000 L4.000,8.000 L4.000,7.000 L5.000,7.000 L5.000,8.000 ZM5.000,10.000 L4.000,10.000 L4.000,9.000 L5.000,9.000 L5.000,10.000 ZM12.000,12.000 L11.000,12.000 L11.000,11.000 L12.000,11.000 L12.000,12.000 Z" />
<path d="M17.000,13.000 L17.000,16.000 L14.000,16.000 L14.000,15.000 L3.000,15.000 L3.000,16.000 L-0.000,16.000 L-0.000,13.000 L1.000,13.000 L1.000,4.000 L-0.000,4.000 L-0.000,1.000 L3.000,1.000 L3.000,2.000 L14.000,2.000 L14.000,1.000 L17.000,1.000 L17.000,4.000 L16.000,4.000 L16.000,13.000 L17.000,13.000 ZM15.000,15.000 L15.973,15.000 L15.973,13.969 L15.000,13.969 L15.000,15.000 ZM1.000,15.000 L1.991,15.000 L2.000,14.000 L1.000,14.000 L1.000,15.000 ZM2.000,2.000 L1.000,2.000 L1.000,3.000 L2.000,3.000 L2.000,2.000 ZM14.974,4.000 L14.000,4.000 L14.000,3.000 L3.000,3.000 L3.000,4.000 L2.000,4.000 L2.000,13.000 L3.000,13.000 L3.000,14.000 L14.000,14.000 L14.000,13.000 L14.974,13.000 L14.974,4.000 ZM16.000,2.000 L15.000,2.000 L15.000,3.000 L16.000,3.000 L16.000,2.000 Z"/>
</svg>
