<svg id="toggle-disconnected" xmlns="http://www.w3.org/2000/svg" xmlns:xlink="http://www.w3.org/1999/xlink" preserveAspectRatio="xMidYMid" width="100%" height="100%" viewBox="0 0 16 16">
<path d="M10.994,12.000 C9.766,12.000 9.296,11.434 9.112,10.562 L10.829,10.562 C10.829,10.562 13.488,10.531 13.488,7.983 C13.488,5.434 10.829,5.403 10.829,5.403 L9.119,5.403 C9.309,4.551 9.782,4.000 10.994,4.000 C13.203,4.000 14.993,5.791 14.993,8.000 C14.993,10.209 13.203,12.000 10.994,12.000 ZM9.089,3.052 C9.089,3.052 8.555,3.892 8.133,3.691 C7.712,3.489 8.216,2.555 8.216,2.555 L8.736,1.667 C8.736,1.667 9.231,0.766 9.691,1.028 C10.152,1.290 9.608,2.164 9.608,2.164 L9.089,3.052 ZM6.191,14.329 C6.191,14.329 5.657,15.169 5.235,14.968 C4.814,14.766 5.318,13.832 5.318,13.832 L5.837,12.944 C5.837,12.944 6.333,12.042 6.793,12.305 C7.254,12.567 6.710,13.441 6.710,13.441 L6.191,14.329 ZM6.803,3.812 C6.397,4.009 5.883,3.189 5.883,3.189 L5.383,2.323 C5.383,2.323 4.860,1.471 5.303,1.215 C5.746,0.959 6.223,1.838 6.223,1.838 L6.723,2.704 C6.723,2.704 7.208,3.616 6.803,3.812 ZM5.876,5.403 L3.722,5.403 C3.722,5.403 1.480,5.421 1.480,7.983 C1.480,10.544 3.722,10.562 3.722,10.562 L5.883,10.562 C5.698,11.434 5.229,12.000 4.000,12.000 C1.791,12.000 -0.000,10.209 -0.000,8.000 C-0.000,5.791 1.791,4.000 4.000,4.000 C5.212,4.000 5.686,4.551 5.876,5.403 ZM9.098,12.838 L9.598,13.704 C9.598,13.704 10.083,14.616 9.678,14.812 C9.272,15.009 8.758,14.189 8.758,14.189 L8.258,13.323 C8.258,13.323 7.735,12.471 8.178,12.215 C8.621,11.959 9.098,12.838 9.098,12.838 Z" />
</svg>
