<svg id="sampler-graphics" xmlns="http://www.w3.org/2000/svg" xmlns:xlink="http://www.w3.org/1999/xlink" preserveAspectRatio="xMidYMid" width="100%" height="100%" viewBox="0 0 14 14">
<path fill="#e6e6e6" d="M5.386,10.992 C5.666,12.629 7.034,13.918 8.761,13.918 C10.169,13.918 11.387,13.149 11.946,11.985 L14.000,12.000 L14.000,6.000 L12.000,6.000 L12.000,-0.000 L-0.000,11.000 L5.386,10.992 ZM5.336,9.999 L2.406,10.000 L11.000,2.406 L11.000,6.000 L9.000,6.000 C9.000,6.000 8.980,7.000 9.000,7.000 C7.143,7.000 5.476,8.286 5.336,10.061 L5.336,9.999 ZM6.125,10.476 C6.125,9.045 7.303,7.891 8.761,7.891 C10.219,7.891 11.407,9.045 11.407,10.476 C11.407,11.906 10.219,13.060 8.761,13.060 C7.303,13.060 6.125,11.906 6.125,10.476 L6.125,10.476 Z" />
</svg>
