<svg id="libraries-share" xmlns="http://www.w3.org/2000/svg" xmlns:xlink="http://www.w3.org/1999/xlink" preserveAspectRatio="xMidYMid" width="100%" viewBox="0 0 16 16">
<path d="M14.970,11.893 L14.970,5.226 C14.970,5.226 8.145,9.988 7.481,10.235 C6.829,10.000 -0.030,5.226 -0.030,5.226 L-0.030,11.893 C-0.030,12.830 0.169,13.017 1.095,13.017 L13.845,13.017 C14.794,13.017 14.970,12.853 14.970,11.893 ZM14.959,3.902 C14.959,3.220 14.760,2.976 13.845,2.976 L1.095,2.976 C0.154,2.976 -0.030,3.268 -0.030,3.951 L-0.019,4.056 C-0.019,4.056 6.757,8.721 7.481,8.976 C8.246,8.680 14.970,3.951 14.970,3.951 L14.959,3.902 Z"/>
</svg>
