<svg id="delete" xmlns="http://www.w3.org/2000/svg" xmlns:xlink="http://www.w3.org/1999/xlink" preserveAspectRatio="xMidYMid" width="100%" height="100%" viewBox="0 0 16 16">
    <path d="M5.500,1.437 C5.220,1.717 5.000,2.258 5.000,2.648 L5.000,2.937 C4.740,2.977 4.480,2.987 4.230,3.038 C3.720,3.158 3.260,3.317 2.890,3.477 C2.380,3.697 2.000,4.157 2.000,4.437 C2.000,4.718 2.220,4.938 2.500,4.938 L12.500,4.938 C12.780,4.938 13.000,4.718 13.000,4.437 C13.000,4.157 12.620,3.707 12.110,3.477 C11.720,3.307 11.230,3.128 10.690,3.007 C10.470,2.967 10.240,2.967 10.000,2.937 L10.000,2.648 C10.000,2.258 9.780,1.717 9.500,1.437 C9.220,1.158 8.680,0.937 8.290,0.937 L6.710,0.937 C6.320,0.937 5.780,1.158 5.500,1.437 L5.500,1.437 ZM6.000,2.937 L6.000,1.937 L9.000,1.937 L9.000,2.937 C8.450,2.907 7.930,2.897 7.500,2.897 C7.080,2.897 6.550,2.897 6.000,2.937 L6.000,2.937 ZM8.000,12.938 L8.000,6.000 L7.000,6.000 L7.000,12.938 L6.000,12.938 L6.000,6.000 L5.000,6.000 L5.000,12.938 L4.000,12.938 L4.000,6.000 L3.000,6.000 L3.000,11.938 C3.000,12.988 3.730,13.937 4.800,13.937 L10.200,13.937 C11.270,13.937 12.000,12.988 12.000,11.938 L12.000,6.000 L11.000,6.000 L11.000,12.938 L10.000,12.938 L10.000,6.000 L9.000,6.000 L9.000,12.938 L8.000,12.938 L8.000,12.938 Z"/>
</svg>
