<svg id="sampler-charStyle" xmlns="http://www.w3.org/2000/svg" xmlns:xlink="http://www.w3.org/1999/xlink" preserveAspectRatio="xMidYMid" width="100%" height="100%" viewBox="0 0 14 14">
<path fill="#e6e6e6" d="M10.013,3.000 L10.013,4.000 C10.013,4.500 10.490,5.000 11.000,5.000 C11.510,5.000 12.000,4.500 12.000,4.000 L12.000,2.000 C12.000,1.500 11.510,1.000 11.000,1.000 L3.015,1.000 C2.505,1.000 2.000,1.500 2.000,2.000 L2.000,4.000 C2.000,4.500 2.490,5.000 3.000,5.000 C3.510,5.000 4.000,4.500 4.000,4.000 L4.000,3.000 L6.000,3.000 L6.000,11.000 L5.000,11.000 C4.490,11.000 4.000,11.500 4.000,12.000 C4.000,12.500 4.490,13.000 5.000,13.000 L9.000,13.000 C9.510,13.000 10.000,12.500 10.000,12.000 C10.000,11.500 9.510,11.000 9.000,11.000 L8.000,11.000 L8.000,3.000 L10.013,3.000 Z"/>
</svg>
