<svg id="layer-cloud-linked-alert" xmlns="http://www.w3.org/2000/svg" xmlns:xlink="http://www.w3.org/1999/xlink" preserveAspectRatio="xMidYMid" width="100%" height="100%" viewBox="0 0 18 18">
<path d="M12.782,12.518 C12.513,11.967 11.953,11.509 11.313,11.455 C11.369,11.318 11.458,10.987 11.458,10.832 C11.458,10.095 10.786,9.500 9.959,9.500 C9.348,9.500 8.965,9.957 8.734,10.424 C8.542,10.357 8.235,10.166 7.934,10.117 C6.997,9.964 6.176,10.703 6.215,11.644 C6.222,11.799 6.275,12.043 6.322,12.186 L6.223,12.181 C5.533,12.181 4.970,13.012 4.970,13.625 C4.970,14.167 5.384,14.902 5.962,15.000 C5.957,14.995 11.066,15.000 11.363,15.000 C11.130,15.794 11.040,16.533 11.006,17.000 L5.718,17.000 C5.768,17.000 5.609,17.000 4.970,17.000 C3.059,17.000 2.974,15.000 2.974,15.000 L2.974,3.000 C2.974,0.980 4.970,1.000 4.970,1.000 L8.972,1.000 C9.384,1.000 10.233,1.475 10.525,1.750 L14.202,5.676 C14.494,5.951 14.984,6.179 14.984,7.000 L14.984,11.542 C14.051,11.642 13.330,12.004 12.782,12.518 ZM9.004,2.098 L9.011,5.985 C9.011,5.985 9.015,7.019 10.040,7.019 C11.229,7.019 13.988,6.982 13.988,6.982 L9.004,2.098 Z"/>
    <path d="M17.339,13.243 C16.887,13.036 16.404,12.932 15.891,12.932 C15.466,12.932 15.056,13.007 14.662,13.156 C14.268,13.305 13.920,13.509 13.619,13.768 C13.318,14.027 13.064,14.336 12.856,14.696 C12.648,15.055 12.510,15.503 12.440,15.913 L13.630,15.913 C13.760,15.405 14.036,14.923 14.456,14.594 C14.875,14.265 15.354,14.101 15.891,14.101 C16.245,14.101 16.578,14.174 16.888,14.321 C17.198,14.468 17.463,14.673 17.682,14.934 L16.522,15.954 L19.391,15.954 L19.391,12.982 L18.508,14.108 C18.182,13.739 17.792,13.451 17.339,13.243 ZM17.326,18.269 C16.906,18.598 16.427,18.763 15.891,18.763 C15.536,18.763 15.203,18.689 14.893,18.542 C14.583,18.395 14.318,18.191 14.099,17.930 L15.259,17.013 L11.997,17.013 L11.997,19.922 L13.273,18.756 C13.599,19.124 13.989,19.413 14.442,19.620 C14.894,19.828 15.377,19.932 15.891,19.932 C16.460,19.932 16.992,19.805 17.487,19.550 C17.981,19.296 18.391,18.947 18.715,18.504 C19.039,18.060 19.248,17.563 19.342,17.013 L18.152,17.013 C18.021,17.522 17.745,17.940 17.326,18.269 Z"/>
</svg>
