<svg id="layer-artboard-mask" xmlns="http://www.w3.org/2000/svg" xmlns:xlink="http://www.w3.org/1999/xlink" preserveAspectRatio="xMidYMid" width="100%" height="100%" viewBox="0 0 18 24">
<path stroke="red" d="M13.000,19.000 L7.747,19.000 C7.728,19.000 7.532,19.000 7.000,19.000 C4.971,19.000 5.000,17.000 5.000,17.000 L5.000,7.000 C5.000,4.980 7.000,5.000 7.000,5.000 L10.000,5.000 C10.412,5.000 11.462,5.813 11.462,5.813 L14.139,8.739 C14.715,9.315 15.000,10.000 15.000,10.000 L15.000,17.000 C15.000,19.000 13.000,19.000 13.000,19.000 ZM10.000,6.000 L10.000,9.000 C10.000,9.000 9.984,10.000 11.000,10.000 C12.016,10.000 14.000,10.000 14.000,10.000 L10.000,6.000 ZM11.000,11.000 C9.116,11.000 9.000,9.000 9.000,9.000 L9.000,6.000 L7.000,6.000 C6.046,6.000 6.000,7.000 6.000,7.000 L6.000,17.000 C6.000,17.000 6.013,18.000 7.000,18.000 L13.000,18.000 C14.032,18.000 13.984,17.000 13.984,17.000 L14.000,11.000 C14.000,11.000 12.884,11.000 11.000,11.000 ZM5.500,4.000 C5.224,4.000 5.000,3.776 5.000,3.500 L5.000,2.031 C5.000,1.755 5.224,1.531 5.500,1.531 C5.776,1.531 6.000,1.755 6.000,2.031 L6.000,3.500 C6.000,3.776 5.776,4.000 5.500,4.000 ZM3.500,6.000 L2.000,6.000 C1.724,6.000 1.500,5.776 1.500,5.500 C1.500,5.224 1.724,5.000 2.000,5.000 L3.500,5.000 C3.776,5.000 4.000,5.224 4.000,5.500 C4.000,5.776 3.776,6.000 3.500,6.000 Z"/>
</svg>
