<svg id="layer-5-linked-alert" xmlns="http://www.w3.org/2000/svg" xmlns:xlink="http://www.w3.org/1999/xlink" preserveAspectRatio="xMidYMid" width="100%" height="100%" viewBox="0 0 18 18">
<path d="M14.770,10.768 C13.961,12.083 12.108,15.663 11.421,17.000 L5.724,17.000 C5.702,17.000 5.502,17.000 4.970,17.000 C3.059,17.000 2.974,15.000 2.974,15.000 L2.974,3.000 C2.974,0.980 4.970,1.000 4.970,1.000 L9.043,1.000 C9.454,1.000 10.264,1.413 10.556,1.687 L14.234,5.614 C14.526,5.888 14.984,6.179 14.984,7.000 L14.984,10.574 C14.893,10.634 14.813,10.698 14.770,10.768 ZM7.498,15.031 C8.876,15.031 9.994,13.926 9.994,12.563 C9.994,11.882 9.598,11.585 8.995,11.452 L8.995,12.531 C8.995,12.531 8.984,14.015 7.498,14.015 C6.011,14.015 6.000,12.531 6.000,12.531 L6.000,11.458 C5.398,11.596 5.002,11.895 5.002,12.563 C5.002,13.926 6.120,15.031 7.498,15.031 ZM7.997,12.531 L7.997,9.500 C7.997,9.500 8.025,9.000 7.498,9.000 C6.971,9.000 6.999,9.500 6.999,9.500 L6.999,12.531 C6.999,12.531 7.035,13.015 7.498,13.031 C7.961,13.047 7.997,12.531 7.997,12.531 ZM5.002,9.471 C5.002,10.171 5.398,10.433 6.000,10.533 L6.000,9.500 C6.000,9.500 6.019,8.000 7.498,8.000 C8.977,8.000 8.995,9.500 8.995,9.500 L8.995,10.519 C9.598,10.409 9.994,10.142 9.994,9.471 C9.994,8.106 8.876,7.000 7.498,7.000 C6.120,7.000 5.002,8.106 5.002,9.471 ZM9.016,2.000 L9.016,5.500 C9.016,5.500 9.467,7.000 10.492,7.000 C11.682,7.000 13.984,7.000 13.984,7.000 L9.016,2.000 Z"/>
<path d="M19.472,19.357 C19.388,19.189 16.005,12.474 16.005,12.474 C16.005,12.474 15.754,11.968 15.503,11.968 C15.252,11.968 15.002,12.474 15.002,12.474 C15.002,12.474 11.618,19.273 11.535,19.442 C11.451,19.610 11.451,20.032 11.952,20.032 C12.453,20.032 19.054,20.032 19.054,20.032 C19.555,20.032 19.555,19.526 19.472,19.357 ZM15.503,19.057 C15.196,19.057 14.946,18.806 14.946,18.495 C14.946,18.185 15.196,17.933 15.503,17.933 C15.810,17.933 16.060,18.185 16.060,18.495 C16.060,18.806 15.810,19.057 15.503,19.057 ZM16.005,14.785 C16.005,15.544 15.880,16.984 15.840,17.189 C15.840,17.210 15.827,17.315 15.767,17.315 L15.239,17.315 C15.199,17.315 15.174,17.217 15.163,17.189 C15.144,16.997 15.002,15.544 15.002,14.785 L15.002,14.088 C15.002,14.061 15.069,14.019 15.119,13.998 C15.239,13.950 15.339,13.953 15.489,13.953 C15.690,13.953 15.771,13.964 15.880,13.998 C15.931,14.019 16.005,14.067 16.005,14.088 L16.005,14.785 Z" />
</svg>
