<svg id="libraries-stock" xmlns="http://www.w3.org/2000/svg" xmlns:xlink="http://www.w3.org/1999/xlink" preserveAspectRatio="xMidYMid" width="100%" height="100%" viewBox="0 0 60 56">
<path d="M0.029,55.991 L0.029,0.001 L59.938,0.001 L59.938,55.991 L0.029,55.991 ZM55.944,3.946 L4.023,3.946 L4.023,52.045 L55.944,52.045 L55.944,3.946 ZM15.515,33.500 C17.153,34.684 19.509,35.868 21.945,35.868 C24.102,35.868 25.061,34.841 25.061,33.618 C25.061,32.356 24.342,31.606 21.506,30.343 C16.913,28.292 15.315,26.122 15.315,22.610 C15.315,19.216 18.071,15.744 23.063,15.744 C25.580,15.744 28.056,16.297 28.935,17.007 C29.135,17.165 29.174,17.322 29.174,17.638 L29.174,20.834 C29.174,20.992 28.975,21.149 28.855,21.071 C27.417,20.242 25.300,19.571 23.024,19.571 C20.747,19.571 19.789,21.149 19.789,22.216 C19.789,23.399 20.388,24.425 23.264,25.727 C28.815,28.213 29.734,30.225 29.734,33.027 C29.734,37.564 25.979,39.813 21.945,39.813 C19.709,39.813 17.073,39.064 15.515,37.841 C15.315,37.643 15.196,37.446 15.196,37.012 L15.156,33.658 C15.156,33.539 15.355,33.382 15.515,33.500 ZM35.525,22.018 L37.681,22.018 C37.801,20.677 37.961,18.940 38.121,18.072 C38.201,17.796 38.280,17.757 38.480,17.677 L42.075,17.007 C42.354,16.927 42.515,16.967 42.515,17.283 C42.434,18.349 42.354,20.716 42.314,22.018 L45.629,22.018 C45.909,22.018 45.989,22.096 45.989,22.373 L45.989,24.898 C45.989,25.135 45.909,25.214 45.629,25.253 L42.274,25.451 L42.274,33.658 C42.274,35.000 42.634,35.868 43.992,35.868 C44.551,35.868 44.990,35.788 45.430,35.670 C45.589,35.631 45.709,35.710 45.709,35.907 L45.709,38.629 C45.709,38.866 45.589,39.024 45.430,39.103 C44.511,39.616 43.233,39.813 42.075,39.813 C39.439,39.813 37.681,38.393 37.681,34.802 L37.681,25.412 L35.485,25.214 C35.365,25.214 35.245,25.096 35.245,24.898 L35.245,22.294 C35.245,22.096 35.325,22.018 35.525,22.018 Z" />
</svg>
