<svg id="layer-cloud-linked-alert-mask" xmlns="http://www.w3.org/2000/svg" xmlns:xlink="http://www.w3.org/1999/xlink" preserveAspectRatio="xMidYMid" width="100%" height="100%" viewBox="0 0 18 18">
<path d="M15.881,9.000 C15.596,7.742 14.763,6.780 13.400,6.780 C13.244,6.780 13.105,6.789 12.975,6.809 C12.737,6.844 12.505,6.705 12.427,6.477 C11.921,4.995 10.534,4.000 8.975,4.000 C6.960,4.000 5.320,5.644 5.320,7.665 C5.320,7.765 5.324,7.861 5.333,7.961 C5.347,8.120 5.285,8.275 5.166,8.380 C5.046,8.485 4.885,8.527 4.729,8.494 C4.580,8.461 4.425,8.445 4.270,8.445 C3.018,8.445 2.000,9.465 2.000,10.720 C2.000,10.824 2.017,10.923 2.031,11.024 L1.078,11.510 C1.013,11.255 0.969,10.994 0.969,10.720 C0.969,8.896 2.500,7.428 4.325,7.445 C4.440,4.975 6.482,3.000 8.975,3.000 C10.829,3.000 12.492,4.103 13.229,5.783 C13.285,5.781 13.342,5.780 13.400,5.780 C15.317,5.780 16.562,7.190 16.899,9.000 L15.881,9.000 ZM9.312,14.000 L7.982,14.000 L7.573,12.969 L9.312,12.969 L9.312,14.000 Z" />
<path d="M8.472,17.357 C8.388,17.189 5.005,10.474 5.005,10.474 C5.005,10.474 4.754,9.968 4.503,9.968 C4.252,9.968 4.002,10.474 4.002,10.474 C4.002,10.474 0.618,17.273 0.535,17.442 C0.451,17.610 0.451,18.032 0.952,18.032 C1.453,18.032 8.054,18.032 8.054,18.032 C8.555,18.032 8.555,17.526 8.472,17.357 ZM4.503,17.057 C4.196,17.057 3.946,16.806 3.946,16.495 C3.946,16.185 4.196,15.933 4.503,15.933 C4.810,15.933 5.060,16.185 5.060,16.495 C5.060,16.806 4.810,17.057 4.503,17.057 ZM5.005,12.785 C5.005,13.544 4.880,14.984 4.840,15.189 C4.840,15.210 4.827,15.315 4.767,15.315 L4.239,15.315 C4.199,15.315 4.174,15.217 4.163,15.189 C4.144,14.997 4.002,13.544 4.002,12.785 L4.002,12.088 C4.002,12.061 4.069,12.019 4.119,11.998 C4.239,11.950 4.339,11.953 4.489,11.953 C4.690,11.953 4.771,11.964 4.880,11.998 C4.931,12.019 5.005,12.067 5.005,12.088 L5.005,12.785 Z" />
<path d="M18.000,15.000 L18.000,18.000 L15.000,18.000 L15.000,17.000 L13.000,17.000 L13.000,18.000 L10.000,18.000 L10.000,15.000 L10.997,15.000 L10.994,12.969 L10.000,12.969 L10.000,10.000 L13.000,10.000 L13.000,11.000 L15.000,11.000 L15.000,10.000 L18.000,10.000 L18.000,13.000 L16.966,13.000 L16.966,15.000 L18.000,15.000 ZM10.991,17.000 L12.000,17.000 L12.000,16.000 L11.000,16.000 L10.991,17.000 ZM12.000,11.000 L10.991,11.000 L10.991,12.000 L12.000,12.000 L12.000,11.000 ZM15.000,12.029 L14.970,12.000 L13.000,12.000 L13.000,12.969 L12.020,12.969 L11.989,13.000 L11.989,15.000 L13.000,15.000 L13.000,16.000 L14.970,16.000 L15.000,15.971 L15.000,15.000 L16.000,15.000 L16.000,13.000 L15.000,13.000 L15.000,12.029 ZM17.000,12.000 L17.000,11.000 L16.000,11.000 L16.000,12.000 L17.000,12.000 ZM16.000,16.000 L16.000,17.000 L17.000,17.000 L17.000,16.000 L16.000,16.000 Z" />
</svg>
