<svg id="layer-smartobject-linked" xmlns="http://www.w3.org/2000/svg" xmlns:xlink="http://www.w3.org/1999/xlink" preserveAspectRatio="xMidYMid" width="100%" height="100%" viewBox="0 0 18 18">
<path d="M12.989,13.000 C11.505,13.000 10.125,12.249 9.704,11.000 L10.872,11.003 C11.406,11.598 12.118,11.910 12.982,11.910 C14.593,11.910 15.898,10.607 15.898,9.000 C15.898,7.393 14.593,6.090 12.982,6.090 C12.118,6.090 11.406,6.402 10.872,6.997 L9.704,7.000 C10.164,5.803 11.505,5.000 12.989,5.000 C15.203,5.000 16.997,6.791 16.997,9.000 C16.997,11.209 15.203,13.000 12.989,13.000 ZM5.508,8.984 C5.508,8.340 5.960,7.987 6.513,7.987 L11.524,7.987 C12.077,7.987 12.523,8.340 12.523,8.984 C12.523,9.629 12.095,9.971 11.542,9.971 L6.531,9.971 C5.978,9.971 5.508,9.629 5.508,8.984 ZM5.008,6.102 C3.404,6.102 2.110,7.399 2.110,9.000 C2.110,10.601 3.411,11.898 5.015,11.898 C5.875,11.898 6.584,11.588 7.116,10.995 L8.292,11.000 C8.002,12.258 6.491,13.000 5.007,13.000 C2.794,13.000 1.000,11.209 1.000,9.000 C1.000,6.791 2.794,5.000 5.007,5.000 C6.491,5.000 7.960,5.741 8.292,7.000 L7.116,7.005 C6.584,6.412 5.868,6.102 5.008,6.102 Z" />
</svg>
