<svg id="layer-cloud-linked" xmlns="http://www.w3.org/2000/svg" xmlns:xlink="http://www.w3.org/1999/xlink" preserveAspectRatio="xMidYMid" width="100%" height="100%" viewBox="0 0 18 18">
<path d="M13.400,14.000 L4.270,14.000 C2.467,14.000 0.969,12.529 0.969,10.720 C0.969,8.896 2.500,7.427 4.325,7.445 C4.440,4.975 6.482,3.000 8.975,3.000 C10.829,3.000 12.492,4.103 13.229,5.783 C13.285,5.781 13.342,5.780 13.400,5.780 C15.661,5.780 17.000,7.734 17.000,10.000 C17.000,12.266 15.661,14.000 13.400,14.000 ZM4.270,8.445 C3.018,8.445 2.000,9.465 2.000,10.720 C2.000,11.977 3.018,12.969 4.270,12.969 L13.400,12.969 C15.109,12.969 16.000,11.715 16.000,10.000 C16.000,8.285 15.109,6.780 13.400,6.780 C13.244,6.780 13.105,6.789 12.975,6.809 C12.737,6.844 12.505,6.705 12.427,6.477 C11.921,4.995 10.534,4.000 8.975,4.000 C6.960,4.000 5.320,5.644 5.320,7.665 C5.320,7.765 5.324,7.861 5.333,7.961 C5.347,8.120 5.285,8.275 5.166,8.380 C5.046,8.485 4.885,8.527 4.729,8.494 C4.580,8.461 4.425,8.445 4.270,8.445 Z" />
</svg>
