<svg id="style-paste" xmlns="http://www.w3.org/2000/svg" xmlns:xlink="http://www.w3.org/1999/xlink" preserveAspectRatio="xMidYMid" width="100%" height="100%" viewBox="0 0 16 21">
    <title>
    Paste Properties
  </title>
  <path d="M14.000,8.000 C14.000,8.973 13.000,9.000 13.000,9.000 L3.000,9.000 C3.000,9.000 2.000,9.009 2.000,8.000 C2.000,6.991 2.000,4.000 2.000,4.000 C2.000,4.000 0.000,3.991 0.000,6.000 C0.000,8.009 0.000,16.999 0.000,19.000 C0.000,21.001 2.000,21.000 2.000,21.000 L14.000,21.000 C14.000,21.000 16.000,20.983 16.000,19.000 C16.000,17.017 16.000,7.035 16.000,6.000 C16.000,3.996 14.000,4.000 14.000,4.000 C14.000,4.000 14.000,7.027 14.000,8.000 ZM10.985,2.993 C10.985,2.162 10.693,1.454 10.109,0.869 C9.525,0.285 8.817,-0.007 7.985,-0.007 C7.153,-0.007 6.445,0.285 5.861,0.869 C5.277,1.454 4.985,2.162 4.985,2.993 C4.985,3.346 5.041,3.682 5.153,4.001 L4.000,4.000 L4.000,7.000 L12.000,7.000 L12.000,4.000 L10.817,4.001 C10.929,3.682 10.985,3.346 10.985,2.993 L10.985,2.993 ZM7.985,1.481 C8.401,1.481 8.753,1.630 9.041,1.925 C9.329,2.222 9.473,2.577 9.473,2.993 C9.473,3.266 9.409,3.518 9.281,3.749 C9.153,3.981 8.973,4.166 8.741,4.301 C8.509,4.437 8.257,4.505 7.985,4.505 C7.569,4.505 7.217,4.358 6.929,4.061 C6.641,3.766 6.497,3.410 6.497,2.993 C6.497,2.577 6.641,2.222 6.929,1.925 C7.217,1.630 7.569,1.481 7.985,1.481 Z" />
</svg>
