<svg id="github" xmlns="http://www.w3.org/2000/svg" xmlns:xlink="http://www.w3.org/1999/xlink" preserveAspectRatio="xMidYMid" width="100%" height="100%" viewBox="0 0 16 16">
<path d="M8.282,-0.145 C10.519,-0.095 12.363,0.672 13.839,2.156 C15.314,3.641 16.076,5.521 16.125,7.748 C16.101,9.529 15.584,11.063 14.601,12.423 C13.617,13.784 12.339,14.699 10.741,15.268 C10.544,15.293 10.396,15.268 10.323,15.194 C10.249,15.095 10.200,14.996 10.200,14.897 L10.224,12.720 C10.224,12.349 10.175,12.052 10.052,11.805 C9.954,11.557 9.831,11.384 9.683,11.261 C10.593,11.211 11.405,10.914 12.142,10.370 C12.855,9.850 13.249,8.836 13.298,7.352 C13.298,6.931 13.224,6.535 13.076,6.189 C12.929,5.842 12.732,5.521 12.486,5.249 C12.536,5.150 12.609,4.903 12.634,4.531 C12.683,4.160 12.609,3.690 12.412,3.146 C12.412,3.121 12.240,3.121 11.896,3.170 C11.552,3.220 11.011,3.492 10.249,3.962 C9.610,3.789 8.970,3.690 8.282,3.690 C7.594,3.690 6.954,3.789 6.315,3.962 C5.577,3.467 5.012,3.220 4.668,3.170 C4.323,3.121 4.151,3.121 4.151,3.146 C3.955,3.690 3.881,4.160 3.930,4.531 C3.979,4.903 4.028,5.150 4.078,5.249 C3.832,5.521 3.610,5.818 3.487,6.189 C3.340,6.535 3.266,6.931 3.266,7.376 C3.315,8.861 3.684,9.850 4.397,10.395 C5.110,10.939 5.922,11.236 6.831,11.285 C6.708,11.384 6.610,11.508 6.536,11.681 C6.438,11.854 6.389,12.077 6.340,12.324 C6.069,12.473 5.725,12.522 5.258,12.498 C4.791,12.473 4.397,12.201 4.053,11.656 C3.881,11.384 3.709,11.186 3.487,11.063 C3.266,10.939 3.070,10.865 2.824,10.840 C2.627,10.815 2.504,10.840 2.455,10.939 C2.406,11.013 2.504,11.137 2.750,11.310 C2.996,11.483 3.192,11.656 3.315,11.854 C3.438,12.052 3.537,12.275 3.635,12.473 C3.758,12.794 4.028,13.067 4.471,13.289 C4.889,13.512 5.504,13.537 6.290,13.388 L6.315,14.848 C6.315,14.972 6.266,15.071 6.192,15.145 C6.118,15.244 5.971,15.268 5.774,15.219 C4.176,14.675 2.897,13.710 1.914,12.374 C0.930,11.038 0.439,9.479 0.414,7.723 C0.463,5.471 1.225,3.616 2.701,2.132 C4.176,0.647 6.044,-0.120 8.257,-0.169 L8.282,-0.145 Z"/>
</svg>
