<svg id="sampler-stroke-swatch-bg" xmlns="http://www.w3.org/2000/svg" xmlns:xlink="http://www.w3.org/1999/xlink" preserveAspectRatio="xMidYMid" width="100%" height="100%" viewBox="0 0 14 14">
    <path d="M12.000,14.000 C9.984,14.000 4.016,14.000 2.000,14.000 C-0.016,14.000 0.000,12.000 0.000,12.000 L0.000,2.000 C0.000,2.000 0.027,-0.000 2.000,-0.000 C3.973,-0.000 10.102,-0.000 12.000,-0.000 C13.898,-0.000 14.000,2.000 14.000,2.000 L14.000,12.000 C14.000,12.000 14.016,14.000 12.000,14.000 ZM8.000,6.000 L6.000,6.000 L6.000,8.000 L8.000,8.000 L8.000,6.000 Z" fill="#fff" opacity="0.25"/>
    <path d="M11.000,13.000 L7.000,13.000 L7.000,9.000 L9.000,9.000 L9.000,7.000 L13.000,7.000 L13.000,11.000 C13.000,12.105 12.105,13.000 11.000,13.000 ZM5.000,7.000 L1.000,7.000 L1.000,3.000 C1.000,1.895 1.895,1.000 3.000,1.000 L7.000,1.000 L7.000,5.000 L5.000,5.000 L5.000,7.000 Z" fill="#e6e6e6"/>
    <path d="M9.000,7.000 L9.000,5.000 L7.000,5.000 L7.000,1.000 L11.000,1.000 C12.105,1.000 13.000,1.895 13.000,3.000 L13.000,7.000 L9.000,7.000 ZM7.000,13.000 L3.000,13.000 C1.895,13.000 1.000,12.105 1.000,11.000 L1.000,7.000 L5.000,7.000 L5.000,9.000 L7.000,9.000 L7.000,13.000 Z" fill="#fff"/>
</svg>
