<svg id="text-tracking" xmlns="http://www.w3.org/2000/svg" xmlns:xlink="http://www.w3.org/1999/xlink" preserveAspectRatio="xMidYMid" width="100%" height="100%" viewBox="0 0 16 16">
<path d="M12.000,7.500 L11.342,6.835 L12.859,5.000 L3.141,5.000 L4.642,6.897 L4.000,7.500 L1.500,4.516 L4.000,1.500 L4.658,2.165 L3.141,4.000 L12.859,4.000 L11.358,2.103 L12.000,1.500 L14.500,4.484 L12.000,7.500 ZM7.175,7.061 C7.175,7.019 7.203,6.991 7.245,6.991 L8.617,6.991 C8.673,6.991 8.687,7.004 8.701,7.061 L11.491,14.896 C11.519,14.952 11.505,14.994 11.435,14.994 L10.371,14.994 C10.315,14.994 10.287,14.967 10.259,14.925 L9.737,13.004 L6.134,13.004 L5.626,14.910 C5.612,14.967 5.584,14.994 5.514,14.994 L4.562,14.994 C4.492,14.994 4.464,14.952 4.478,14.883 L7.077,7.634 C7.119,7.523 7.161,7.424 7.175,7.061 ZM9.415,12.005 C9.107,11.094 8.272,8.895 8.006,7.942 L7.992,7.942 C7.754,8.838 6.988,10.465 6.456,12.005 L9.415,12.005 Z" />
</svg>
