<?xml version="1.0" encoding="utf-8"?>
<svg version="1.1" id="layer-4" xmlns="http://www.w3.org/2000/svg" xmlns:xlink="http://www.w3.org/1999/xlink" x="0px" y="0px"
	 viewBox="260 0 442 494" enable-background="new 260 0 442 494" xml:space="preserve">
<path d="M306.3,148.5v193.1H287c-10.6,0-19.4,8.7-19.4,19.3V438c0,10.6,8.8,19.3,19.3,19.3h77.2c10.6,0,19.3-8.8,19.3-19.3v-19.2
	h193.1V438c0,10.6,8.7,19.3,19.2,19.3H673c10.6,0,19.3-8.8,19.3-19.3v-77.2c0-10.6-8.8-19.3-19.3-19.3h-19.2V148.5H673
	c10.6,0,19.3-8.7,19.3-19.2V51.9c0-10.6-8.8-19.3-19.3-19.3h-77.2c-10.6,0-19.3,8.8-19.3,19.3v19.2H383.5V51.9
	c0-10.6-8.7-19.3-19.2-19.3h-77.3c-10.6,0-19.3,8.8-19.3,19.3v77.2c0,10.6,8.8,19.3,19.3,19.3H306.3L306.3,148.5z M344.9,341.5
	V148.5h19.2c10.6,0,19.3-8.7,19.3-19.2v-19.4h193.1v19.2c0,10.6,8.7,19.3,19.2,19.3h19.4v193.1h-19.2c-10.6,0-19.3,8.7-19.3,19.2
	v19.4H383.5v-19.3c0-10.6-8.7-19.3-19.2-19.3H344.9L344.9,341.5z M615.1,380.1h38.6v38.6h-38.6V380.1L615.1,380.1z M615.1,71.3h38.6
	v38.6h-38.6V71.3L615.1,71.3z M306.3,380.1h38.6v38.6h-38.7L306.3,380.1L306.3,380.1z M306.3,71.3h38.6v38.6h-38.7L306.3,71.3
	L306.3,71.3z"/>
</svg>
