<svg id="distribute-vertically" xmlns="http://www.w3.org/2000/svg" xmlns:xlink="http://www.w3.org/1999/xlink" preserveAspectRatio="xMidYMid" width="100%" height="100%" viewBox="0 0 16 16">
<path d="M14.000,3.969 L2.000,3.969 C1.725,3.969 1.500,3.744 1.500,3.469 C1.500,3.194 1.725,2.969 2.000,2.969 L14.000,2.969 C14.275,2.969 14.500,3.194 14.500,3.469 C14.500,3.744 14.275,3.969 14.000,3.969 ZM4.000,10.000 C3.450,10.000 3.000,9.550 3.000,9.000 L3.000,7.000 C3.000,6.450 3.450,6.000 4.000,6.000 L12.000,6.000 C12.550,6.000 13.000,6.450 13.000,7.000 L13.000,9.000 C13.000,9.550 12.550,10.000 12.000,10.000 L4.000,10.000 ZM2.000,12.000 L14.000,12.000 C14.275,12.000 14.500,12.225 14.500,12.500 C14.500,12.775 14.275,13.000 14.000,13.000 L2.000,13.000 C1.725,13.000 1.500,12.775 1.500,12.500 C1.500,12.225 1.725,12.000 2.000,12.000 Z"/>
</svg>
