<svg id="document" xmlns="http://www.w3.org/2000/svg" xmlns:xlink="http://www.w3.org/1999/xlink" preserveAspectRatio="xMidYMid" width="100%" height="100%" viewBox="0 0 16 16">
<path d="M12.000,16.000 L4.747,16.000 C4.728,16.000 4.532,16.000 4.000,16.000 C1.971,16.000 2.000,14.000 2.000,14.000 L2.000,2.000 C2.000,-0.020 4.000,0.000 4.000,0.000 L8.000,0.000 C8.412,0.000 9.462,0.813 9.462,0.813 L13.139,4.739 C13.715,5.315 14.000,6.000 14.000,6.000 L14.000,14.000 C14.000,16.000 12.000,16.000 12.000,16.000 ZM8.000,1.000 L8.000,5.000 C8.000,5.000 7.984,6.000 9.000,6.000 C10.016,6.000 13.000,6.000 13.000,6.000 L8.000,1.000 ZM9.000,7.000 C7.116,7.000 7.000,5.000 7.000,5.000 L7.000,1.000 L4.000,1.000 C3.046,1.000 3.000,2.000 3.000,2.000 L3.000,14.000 C3.000,14.000 3.013,15.000 4.000,15.000 L12.000,15.000 C13.032,15.000 12.984,14.000 12.984,14.000 L13.000,7.000 C13.000,7.000 10.884,7.000 9.000,7.000 Z"/>
</svg>
