<svg id="layer-5-linked" xmlns="http://www.w3.org/2000/svg" xmlns:xlink="http://www.w3.org/1999/xlink" preserveAspectRatio="xMidYMid" width="100%" height="100%" viewBox="0 0 18 18">
<path stroke="red" d="M11.562,8.044 L11.562,5.171 C11.562,5.171 11.531,2.512 8.983,2.512 C6.434,2.512 6.403,5.171 6.403,5.171 L6.403,8.015 C5.550,7.286 5.000,6.217 5.000,5.006 C5.000,2.797 6.791,1.007 9.000,1.007 C11.209,1.007 13.000,2.797 13.000,5.006 C13.000,6.233 12.435,7.314 11.562,8.044 ZM9.000,13.007 C8.073,12.974 8.000,12.007 8.000,12.007 L8.000,5.007 C8.000,5.007 7.944,4.007 9.000,4.007 C10.056,4.007 10.000,5.007 10.000,5.007 L10.000,12.007 C10.000,12.007 9.927,13.039 9.000,13.007 ZM6.403,8.990 L6.403,12.278 C6.403,12.278 6.421,14.520 8.983,14.520 C11.544,14.520 11.562,12.278 11.562,12.278 L11.562,8.961 C12.435,9.691 13.000,10.773 13.000,12.000 C13.000,14.209 11.209,16.000 9.000,16.000 C6.791,16.000 5.000,14.209 5.000,12.000 C5.000,10.789 5.550,9.720 6.403,8.990 Z"/>
</svg>
