<svg id="layer-5-linked-alert" xmlns="http://www.w3.org/2000/svg" xmlns:xlink="http://www.w3.org/1999/xlink" preserveAspectRatio="xMidYMid" width="100%" height="100%" viewBox="0 0 18 18">
    <path d="M19.472,19.357 C19.388,19.189 16.005,12.474 16.005,12.474 C16.005,12.474 15.754,11.968 15.503,11.968 C15.252,11.968 15.002,12.474 15.002,12.474 C15.002,12.474 11.618,19.273 11.535,19.442 C11.451,19.610 11.451,20.032 11.952,20.032 C12.453,20.032 19.054,20.032 19.054,20.032 C19.555,20.032 19.555,19.526 19.472,19.357 ZM15.503,19.057 C15.196,19.057 14.946,18.806 14.946,18.495 C14.946,18.185 15.196,17.933 15.503,17.933 C15.810,17.933 16.060,18.185 16.060,18.495 C16.060,18.806 15.810,19.057 15.503,19.057 ZM16.005,14.785 C16.005,15.544 15.880,16.984 15.840,17.189 C15.840,17.210 15.827,17.315 15.767,17.315 L15.239,17.315 C15.199,17.315 15.174,17.217 15.163,17.189 C15.144,16.997 15.002,15.544 15.002,14.785 L15.002,14.088 C15.002,14.061 15.069,14.019 15.119,13.998 C15.239,13.950 15.339,13.953 15.489,13.953 C15.690,13.953 15.771,13.964 15.880,13.998 C15.931,14.019 16.005,14.067 16.005,14.088 L16.005,14.785 Z" class="cls-1"/>
    <path d="M12.334,15.236 C11.676,15.712 10.874,16.000 10.000,16.000 C7.791,16.000 6.000,14.209 6.000,12.000 C6.000,10.789 6.550,9.720 7.403,8.990 L7.403,12.278 C7.403,12.278 7.421,14.520 9.983,14.520 C12.544,14.520 12.562,12.278 12.562,12.278 L12.562,8.961 C13.435,9.691 14.000,10.773 14.000,12.000 C14.000,12.047 13.988,12.091 13.986,12.139 C13.465,13.084 12.856,14.237 12.334,15.236 ZM10.000,13.007 C9.073,12.974 9.000,12.007 9.000,12.007 L9.000,5.007 C9.000,5.007 8.944,4.007 10.000,4.007 C11.056,4.007 11.000,5.007 11.000,5.007 L11.000,12.007 C11.000,12.007 10.927,13.039 10.000,13.007 ZM12.562,8.044 L12.562,5.171 C12.562,5.171 12.531,2.512 9.983,2.512 C7.434,2.512 7.403,5.171 7.403,5.171 L7.403,8.015 C6.550,7.286 6.000,6.217 6.000,5.006 C6.000,2.797 7.791,1.007 10.000,1.007 C12.209,1.007 14.000,2.797 14.000,5.006 C14.000,6.233 13.435,7.314 12.562,8.044 Z" />
</svg>
