<svg id="xor-intersect" xmlns="http://www.w3.org/2000/svg" xmlns:xlink="http://www.w3.org/1999/xlink" preserveAspectRatio="xMidYMid" width="100%" height="100%" viewBox="0 0 14 14">
<path d="M11.979,13.000 L4.979,13.000 C4.427,13.000 3.979,12.552 3.979,12.000 L3.979,9.000 L1.000,9.000 C0.448,9.000 0.000,8.552 0.000,8.000 L0.000,1.000 C0.000,0.448 0.448,-0.000 1.000,-0.000 L8.000,-0.000 C8.552,-0.000 9.000,0.448 9.000,1.000 L9.000,4.000 L11.979,4.000 C12.531,4.000 12.979,4.448 12.979,5.000 L12.979,12.000 C12.979,12.552 12.531,13.000 11.979,13.000 ZM8.000,1.000 L1.000,1.000 L1.000,8.000 L4.000,8.000 L4.000,5.000 C4.000,4.448 4.448,4.000 5.000,4.000 L8.000,4.000 L8.000,1.000 ZM12.000,5.000 L9.000,5.000 L9.000,8.000 C9.000,8.552 8.552,9.000 8.000,9.000 L5.000,9.000 L5.000,12.000 L12.000,12.000 L12.000,5.000 Z"/>
</svg>
