<svg id="layer-group-collapsed-mask" xmlns="http://www.w3.org/2000/svg" xmlns:xlink="http://www.w3.org/1999/xlink" preserveAspectRatio="xMidYMid" width="100%" height="100%" viewBox="0 0 18 18">
<path d="M17.000,15.000 L17.000,18.000 L14.000,18.000 L14.000,17.000 L12.000,17.000 L12.000,18.000 L9.000,18.000 L9.000,15.000 L9.997,15.000 L9.994,12.969 L9.000,12.969 L9.000,10.000 L12.000,10.000 L12.000,11.000 L14.000,11.000 L14.000,10.000 L17.000,10.000 L17.000,13.000 L15.966,13.000 L15.966,15.000 L17.000,15.000 ZM9.991,17.000 L11.000,17.000 L11.000,16.000 L10.000,16.000 L9.991,17.000 ZM11.000,11.000 L9.991,11.000 L9.991,12.000 L11.000,12.000 L11.000,11.000 ZM14.000,12.029 L13.970,12.000 L12.000,12.000 L12.000,12.969 L11.020,12.969 L10.989,13.000 L10.989,15.000 L12.000,15.000 L12.000,16.000 L13.970,16.000 L14.000,15.971 L14.000,15.000 L15.000,15.000 L15.000,13.000 L14.000,13.000 L14.000,12.029 ZM16.000,12.000 L16.000,11.000 L15.000,11.000 L15.000,12.000 L16.000,12.000 ZM15.000,16.000 L15.000,17.000 L16.000,17.000 L16.000,16.000 L15.000,16.000 Z" />
<path d="M8.000,9.000 L8.000,15.000 L2.991,15.000 C1.036,15.000 0.993,13.000 0.993,13.000 L0.993,4.500 C0.993,4.500 0.895,2.000 2.991,2.000 L7.479,2.000 C8.479,2.000 8.478,3.000 8.478,3.000 C8.478,3.000 8.526,4.000 8.977,4.000 L14.000,4.000 C16.014,4.000 16.000,6.000 16.000,6.000 L16.000,9.000 L8.000,9.000 Z"/>
</svg>
