<?xml version="1.0" encoding="utf-8"?>
<svg version="1.1" id="toggle-unlock" xmlns="http://www.w3.org/2000/svg" xmlns:xlink="http://www.w3.org/1999/xlink" x="0px" y="0px"
	 viewBox="0 0 24 24" style="enable-background:new 0 0 24 24;" xml:space="preserve">
<path stroke="none" d="M1.7,4.3c0,0,0.3-1.7,3.8-1.7c2.7,0,3.9,2.1,3.9,4.5l0,0.6H6.3c-1,0-1.8,0.8-1.8,1.8v12.2
	c0,1,0.8,1.8,1.8,1.8h15.9c1,0,1.8-0.8,1.8-1.8V9.5c0-1-0.8-1.8-1.8-1.8h-1.8h-2.2h-6.5l0-0.6c0-5.5-3.8-6.7-6.3-6.7
	C0.9,0.4,0,3.2,0,3.2L1.7,4.3z"/>
</svg>
