<svg id="libraries-stock" xmlns="http://www.w3.org/2000/svg" xmlns:xlink="http://www.w3.org/1999/xlink" preserveAspectRatio="xMidYMid" width="100%" viewBox="0 0 16 16">
<path d="M1.007,14.966 L1.007,0.969 L15.984,0.969 L15.984,14.966 L1.007,14.966 ZM14.986,1.955 L2.006,1.955 L2.006,13.980 L14.986,13.980 L14.986,1.955 ZM4.879,9.344 C5.288,9.640 5.877,9.936 6.486,9.936 C7.026,9.936 7.265,9.679 7.265,9.373 C7.265,9.058 7.085,8.870 6.376,8.555 C5.228,8.042 4.829,7.499 4.829,6.621 C4.829,5.773 5.518,4.905 6.766,4.905 C7.395,4.905 8.014,5.043 8.234,5.221 C8.284,5.260 8.294,5.299 8.294,5.378 L8.294,6.177 C8.294,6.217 8.244,6.256 8.214,6.237 C7.854,6.029 7.325,5.862 6.756,5.862 C6.187,5.862 5.947,6.256 5.947,6.523 C5.947,6.819 6.097,7.075 6.816,7.400 C8.204,8.022 8.433,8.525 8.433,9.225 C8.433,10.360 7.495,10.922 6.486,10.922 C5.927,10.922 5.268,10.735 4.879,10.429 C4.829,10.380 4.799,10.330 4.799,10.222 L4.789,9.383 C4.789,9.354 4.839,9.314 4.879,9.344 ZM10.420,6.473 C10.450,6.138 10.490,5.704 10.530,5.487 C10.550,5.418 10.570,5.408 10.620,5.388 L11.519,5.221 C11.589,5.201 11.629,5.211 11.629,5.290 C11.609,5.556 11.589,6.148 11.579,6.473 L12.407,6.473 C12.477,6.473 12.497,6.493 12.497,6.562 L12.497,7.193 C12.497,7.252 12.477,7.272 12.407,7.282 L11.569,7.331 L11.569,9.383 C11.569,9.719 11.658,9.936 11.998,9.936 C12.138,9.936 12.248,9.916 12.357,9.886 C12.397,9.876 12.427,9.896 12.427,9.945 L12.427,10.626 C12.427,10.685 12.397,10.725 12.357,10.744 C12.128,10.873 11.808,10.922 11.519,10.922 C10.860,10.922 10.420,10.567 10.420,9.669 L10.420,7.322 L9.871,7.272 C9.841,7.272 9.811,7.243 9.811,7.193 L9.811,6.542 C9.811,6.493 9.831,6.473 9.881,6.473 L10.420,6.473 Z"/>
</svg>
