<svg id="libraries-cc" xmlns="http://www.w3.org/2000/svg" xmlns:xlink="http://www.w3.org/1999/xlink" preserveAspectRatio="xMidYMid" width="100%" viewBox="0 0 16 16">
<path d="M11.276,11.784 C11.126,11.840 10.949,11.892 10.744,11.938 C10.277,12.041 9.997,12.092 9.904,12.092 L9.820,12.092 C8.858,12.092 7.972,11.766 7.160,11.112 C7.038,11.010 6.936,10.916 6.852,10.832 L6.656,10.636 L6.166,10.174 L4.892,8.914 C4.798,8.821 4.752,8.711 4.752,8.585 C4.752,8.459 4.798,8.350 4.892,8.256 C4.985,8.163 5.097,8.116 5.228,8.116 C5.358,8.116 5.470,8.163 5.564,8.256 L7.524,10.174 L7.538,10.174 C7.715,10.352 7.911,10.506 8.126,10.636 C8.639,10.954 9.204,11.112 9.820,11.112 C10.109,11.112 10.375,11.080 10.618,11.014 C10.758,10.977 10.916,10.926 11.094,10.860 C11.486,10.702 11.826,10.473 12.116,10.174 C12.750,9.558 13.068,8.812 13.068,7.934 C13.068,7.057 12.750,6.310 12.116,5.695 C11.481,5.079 10.716,4.770 9.820,4.770 C9.157,4.770 8.555,4.948 8.014,5.303 C7.743,5.097 7.449,4.925 7.132,4.784 C7.953,4.112 8.849,3.776 9.820,3.776 C10.361,3.776 10.888,3.886 11.402,4.105 C11.915,4.325 12.377,4.635 12.788,5.036 C13.609,5.839 14.020,6.807 14.020,7.941 C14.020,9.075 13.609,10.039 12.788,10.832 C12.358,11.262 11.854,11.579 11.276,11.784 L11.276,11.784 ZM2.932,11.056 C2.260,10.403 1.924,9.615 1.924,8.690 C1.924,7.766 2.260,6.978 2.932,6.324 C3.594,5.671 4.392,5.345 5.326,5.345 L5.340,5.345 C5.508,5.345 5.680,5.358 5.858,5.386 C6.044,5.414 6.217,5.452 6.376,5.498 C6.702,5.601 7.006,5.751 7.286,5.946 C7.398,6.021 7.524,6.115 7.664,6.226 L7.762,6.324 L8.000,6.563 L9.134,7.683 C9.227,7.766 9.274,7.874 9.274,8.005 C9.274,8.135 9.227,8.247 9.134,8.340 C9.040,8.425 8.928,8.466 8.798,8.466 C8.667,8.466 8.555,8.425 8.462,8.340 L7.314,7.207 L7.076,6.969 L6.964,6.870 C6.618,6.581 6.231,6.399 5.802,6.324 C5.652,6.297 5.498,6.282 5.340,6.282 L5.270,6.282 C4.616,6.301 4.061,6.539 3.604,6.996 C3.118,7.463 2.876,8.028 2.876,8.690 C2.876,9.353 3.116,9.920 3.597,10.391 C4.077,10.863 4.658,11.098 5.340,11.098 L5.774,11.098 L6.180,11.477 C6.404,11.691 6.623,11.878 6.838,12.036 L5.340,12.036 C4.397,12.036 3.594,11.710 2.932,11.056 L2.932,11.056 ZM9.820,2.908 C9.138,2.908 8.483,3.034 7.853,3.286 C7.223,3.539 6.665,3.902 6.180,4.378 L6.082,4.477 C5.848,4.439 5.601,4.420 5.340,4.420 C4.136,4.420 3.104,4.836 2.246,5.666 C1.396,6.506 0.972,7.515 0.972,8.690 C0.972,9.867 1.396,10.874 2.246,11.714 C3.104,12.545 4.136,12.960 5.340,12.960 L9.820,12.960 L9.862,12.960 L9.904,12.960 C10.576,12.951 11.217,12.823 11.829,12.575 C12.440,12.328 12.988,11.971 13.474,11.504 C14.127,10.860 14.570,10.104 14.804,9.236 C15.037,8.368 15.037,7.503 14.804,6.639 C14.570,5.776 14.127,5.023 13.474,4.378 C12.456,3.398 11.238,2.908 9.820,2.908 L9.820,2.908 Z"/>
</svg>
