<svg id="style-paste" xmlns="http://www.w3.org/2000/svg" xmlns:xlink="http://www.w3.org/1999/xlink" preserveAspectRatio="xMidYMid" width="100%" height="100%" viewBox="0 0 16 16">
<path d="M12.167,15.000 C11.361,15.000 3.833,15.000 3.833,15.000 C3.036,15.000 3.000,14.008 3.000,14.008 L3.000,4.538 C3.000,4.263 3.187,4.040 3.417,4.040 L3.833,4.040 C4.063,4.040 4.250,4.263 4.250,4.538 L4.250,5.037 C4.250,5.588 4.623,6.034 5.083,6.034 L10.917,6.034 C11.377,6.034 11.750,5.588 11.750,5.037 L11.750,4.538 C11.750,4.263 11.937,4.040 12.167,4.040 L12.583,4.040 C12.813,4.040 13.000,4.263 13.000,4.538 L13.000,14.008 C13.000,14.008 12.972,15.000 12.167,15.000 ZM10.530,5.012 L5.470,5.012 C5.222,5.012 5.020,4.810 5.020,4.560 L5.020,3.983 L6.017,3.983 C5.936,3.743 5.817,3.509 5.817,3.240 C5.817,1.978 6.796,0.954 8.004,0.954 C9.212,0.954 10.191,1.978 10.191,3.240 C10.191,3.509 10.131,3.743 10.050,3.983 L10.980,3.983 L10.980,4.560 C10.980,4.810 10.778,5.012 10.530,5.012 ZM8.004,2.097 C7.400,2.097 6.911,2.609 6.911,3.240 C6.911,3.871 7.400,4.383 8.004,4.383 C8.608,4.383 9.097,3.871 9.097,3.240 C9.097,2.609 8.608,2.097 8.004,2.097 Z"/>
</svg>
