<svg id="export" xmlns="http://www.w3.org/2000/svg" xmlns:xlink="http://www.w3.org/1999/xlink" preserveAspectRatio="xMidYMid" width="100%" height="100%" viewBox="0 0 16 16">
<path d="M12.000,14.000 L4.000,14.000 C3.448,14.000 3.000,13.552 3.000,13.000 C3.000,12.448 3.448,12.000 4.000,12.000 L12.000,12.000 C12.552,12.000 13.000,12.448 13.000,13.000 C13.000,13.552 12.552,14.000 12.000,14.000 ZM8.748,10.646 C8.712,10.688 8.673,10.724 8.630,10.759 L8.622,10.767 C8.554,10.835 8.475,10.883 8.392,10.920 C8.391,10.920 8.390,10.921 8.389,10.921 C8.290,10.964 8.185,10.986 8.079,10.984 C8.052,10.986 8.028,11.000 8.000,11.000 C7.969,11.000 7.944,10.985 7.914,10.983 C7.715,10.988 7.514,10.919 7.363,10.767 L7.317,10.723 C7.304,10.711 7.292,10.701 7.280,10.688 L4.202,7.747 C3.909,7.454 3.909,6.979 4.202,6.686 C4.495,6.393 4.970,6.393 5.263,6.686 L7.000,8.347 L7.000,3.500 C7.000,2.948 7.448,2.500 8.000,2.500 C8.552,2.500 9.000,2.948 9.000,3.500 L9.000,8.332 L10.722,6.686 C11.015,6.393 11.490,6.393 11.782,6.686 C12.075,6.979 12.075,7.454 11.782,7.747 L8.748,10.646 Z" />
</svg>
