<svg width="100%" height="100%" id="layer-6" viewBox="0 0 12 16" xmlns="http://www.w3.org/2000/svg"><path d="M9 .5v1H3v-1H.625C.28.5 0 .78 0 1.125v13.75c0 .345.28.625.625.625H3v-1h6v1h2.375c.345 0 .625-.28.625-.625V1.125C12 .78 11.72.5 11.375.5H9zm-6 2h6v5H3v-5zm0 6h6v5H3v-5zm7 5h1v1h-1v-1zm0-2h1v1h-1v-1zm0-2h1v1h-1v-1zm0-2h1v1h-1v-1zm0-2h1v1h-1v-1zm0-2h1v1h-1v-1zm0-2h1v1h-1v-1zm-9 0h1v1H1v-1zm0 12h1v1H1v-1zm0-2h1v1H1v-1zm0-2h1v1H1v-1zm0-2h1v1H1v-1zm0-2h1v1H1v-1zm0-2h1v1H1v-1z" stroke="none" fill-rule="evenodd"/></svg>