<svg id="layer-6" xmlns="http://www.w3.org/2000/svg" xmlns:xlink="http://www.w3.org/1999/xlink" preserveAspectRatio="xMidYMid" width="100%" height="100%" viewBox="0 0 18 18">
<path d="M15.016,15.984 L3.016,15.984 C3.016,15.984 1.000,15.962 1.000,13.984 L1.000,3.984 C1.000,1.964 3.016,1.984 3.016,1.984 L15.016,1.984 C15.016,1.984 17.000,1.992 17.000,3.984 L17.000,13.984 C17.000,15.961 15.016,15.984 15.016,15.984 ZM16.000,3.984 C16.000,3.432 15.568,2.984 15.016,2.984 L3.016,2.984 C2.464,2.984 2.000,3.432 2.000,3.984 L2.000,13.984 C2.000,14.537 2.448,14.984 3.000,14.984 L15.000,14.984 C15.552,14.984 16.000,14.537 16.000,13.984 L16.000,3.984 ZM13.000,12.000 L14.000,12.000 L14.000,13.000 L13.000,13.000 L13.000,12.000 ZM13.000,10.000 L14.000,10.000 L14.000,11.000 L13.000,11.000 L13.000,10.000 ZM13.000,8.000 L14.000,8.000 L14.000,9.000 L13.000,9.000 L13.000,8.000 ZM13.000,6.000 L14.000,6.000 L14.000,7.000 L13.000,7.000 L13.000,6.000 ZM13.000,4.000 L14.000,4.000 L14.000,5.000 L13.000,5.000 L13.000,4.000 ZM11.000,13.000 C9.954,13.000 7.771,13.000 7.000,13.000 C6.521,13.000 6.000,11.984 6.000,11.984 L6.000,10.000 C6.000,10.000 5.995,9.000 7.000,9.000 C7.761,9.000 9.590,9.000 11.000,9.000 C11.999,9.000 12.000,10.000 12.000,10.000 L12.000,12.000 C12.000,12.000 11.960,13.000 11.000,13.000 ZM11.000,8.000 C9.954,8.000 7.771,8.000 7.000,8.000 C6.059,8.000 6.000,7.000 6.000,7.000 L6.000,4.984 C6.000,4.984 5.948,4.000 7.000,4.000 C7.761,4.000 9.590,4.000 11.000,4.000 C11.965,4.000 12.000,4.984 12.000,4.984 L12.000,7.000 C12.000,7.000 11.941,8.000 11.000,8.000 ZM4.000,11.984 L5.000,11.984 L5.000,12.984 L4.000,12.984 L4.000,11.984 ZM4.000,9.984 L5.000,9.984 L5.000,10.984 L4.000,10.984 L4.000,9.984 ZM4.000,7.984 L5.000,7.984 L5.000,8.984 L4.000,8.984 L4.000,7.984 ZM4.000,5.984 L5.000,5.984 L5.000,6.984 L4.000,6.984 L4.000,5.984 ZM4.000,3.984 L5.000,3.984 L5.000,4.984 L4.000,4.984 L4.000,3.984 Z"/>
</svg>
