<svg id="libraries-addGraphic" xmlns="http://www.w3.org/2000/svg" xmlns:xlink="http://www.w3.org/1999/xlink" preserveAspectRatio="xMidYMid" width="100%" height="100%" viewBox="0 0 60 56">
<path d="M22.000,44.000 C23.116,50.536 28.325,55.985 35.219,55.985 C40.840,55.985 45.768,52.645 48.000,48.000 L60.000,48.000 L60.000,20.000 L48.000,20.000 L48.000,-0.000 L0.000,44.000 L22.000,44.000 ZM22.000,40.000 L9.000,40.000 L44.000,9.000 L44.000,20.000 L36.000,20.000 C36.000,20.000 36.017,28.427 36.096,28.427 C28.683,28.427 22.558,32.914 22.000,40.000 L22.000,40.000 ZM24.697,42.245 C24.697,36.536 29.401,31.931 35.219,31.931 C41.039,31.931 45.782,36.536 45.782,42.245 C45.782,47.954 41.039,52.560 35.219,52.560 C29.401,52.560 24.697,47.954 24.697,42.245 L24.697,42.245 Z"/>
</svg>
