<svg id="libraries-collaborate" xmlns="http://www.w3.org/2000/svg" xmlns:xlink="http://www.w3.org/1999/xlink" preserveAspectRatio="xMidYMid" width="100%" height="100%" viewBox="0 0 64 44">
<path d="M63.277,43.994 L46.777,43.994 C46.053,40.886 43.635,38.114 40.118,36.046 C40.878,35.840 41.669,35.669 42.483,35.538 L42.483,32.820 C40.118,32.213 38.358,30.060 38.358,27.499 L38.358,16.488 C38.358,13.433 40.819,10.994 43.853,10.994 L49.364,10.994 C52.389,10.994 54.858,13.452 54.858,16.488 L54.858,27.499 C54.858,30.079 53.107,32.218 50.733,32.823 L50.733,35.485 C57.278,36.467 62.309,39.827 63.277,43.994 ZM27.306,28.855 L27.306,32.650 L27.304,32.650 C36.026,33.960 42.737,38.439 44.026,43.994 L0.026,43.994 C1.294,38.532 7.797,34.111 16.304,32.719 L16.304,28.858 C13.094,27.725 10.804,24.670 10.804,21.078 L10.804,8.244 C10.804,3.709 14.500,-0.006 19.059,-0.006 L24.551,-0.006 C29.124,-0.006 32.807,3.687 32.807,8.244 L32.807,21.078 C32.807,24.650 30.510,27.716 27.306,28.855 Z"/>
</svg>
