<svg width="100%" height="100%" id="layer-4" viewBox="0 0 14 16" xmlns="http://www.w3.org/2000/svg"><path d="M2.036 4.242v5.516h-.55c-.304 0-.553.248-.553.55v2.207c0 .303.25.552.552.552H3.69c.304 0 .552-.25.552-.552v-.55h5.516v.55c0 .303.248.552.55.552h2.207c.303 0 .552-.25.552-.552V10.31c0-.304-.25-.552-.552-.552h-.55V4.242h.55c.303 0 .552-.248.552-.55V1.484c0-.303-.25-.552-.552-.552H10.31c-.304 0-.552.25-.552.552v.55H4.242v-.55c0-.303-.248-.552-.55-.552H1.484c-.303 0-.552.25-.552.552V3.69c0 .304.25.552.552.552h.55zM3.14 9.758V4.242h.55c.304 0 .552-.248.552-.55v-.553h5.516v.55c0 .304.248.552.55.552h.553v5.516h-.55c-.304 0-.552.248-.552.55v.553H4.242v-.55c0-.304-.248-.552-.55-.552h-.553zm7.72 1.103h1.104v1.104H10.86V10.86zm0-8.824h1.104V3.14H10.86V2.035zM2.037 10.86H3.14v1.104H2.035V10.86zm0-8.824H3.14V3.14H2.035V2.035z" stroke="none" fill-rule="evenodd"/></svg>