<svg id="layer-3d" xmlns="http://www.w3.org/2000/svg" xmlns:xlink="http://www.w3.org/1999/xlink" preserveAspectRatio="xMidYMid" width="100%" height="100%" viewBox="0 0 18 18">
<path d="M2.000,13.982 L2.000,3.000 L16.000,3.000 L16.000,13.982 L2.000,13.982 ZM15.000,4.000 L3.000,4.000 L3.000,13.014 L15.000,13.000 L15.000,4.000 ZM9.469,4.937 L13.604,6.978 L14.004,7.152 L14.000,9.979 L9.469,12.094 L4.996,9.986 L4.996,7.139 L5.113,7.086 L9.469,4.937 ZM9.969,10.884 L12.992,9.533 L13.006,7.596 L9.969,8.888 L9.969,10.884 ZM12.363,7.173 L9.469,5.948 L6.509,7.173 L9.469,8.243 L12.363,7.173 ZM6.000,9.529 L8.969,10.880 L8.969,8.881 L5.998,7.579 L6.000,9.529 Z" />
</svg>
