<svg id="tool-directSelect" xmlns="http://www.w3.org/2000/svg" xmlns:xlink="http://www.w3.org/1999/xlink" preserveAspectRatio="xMidYMid" width="100%" height="100%" viewBox="0 0 16 16">
<path d="M13.290,10.984 L8.490,10.984 C8.110,10.984 7.600,11.172 7.350,11.462 L3.910,14.631 C3.400,15.242 3.000,15.072 3.000,14.282 L3.000,0.752 C3.000,-0.048 3.430,-0.239 3.970,0.322 L13.690,9.954 C14.230,10.524 14.040,10.984 13.290,10.984 ZM11.346,9.048 L4.970,2.822 C4.430,2.261 4.000,2.452 4.000,3.251 L4.000,12.032 C4.000,12.822 4.400,12.992 4.910,12.381 L7.350,10.274 C7.600,9.984 8.110,9.984 8.490,9.984 L10.946,9.984 C11.696,9.984 11.886,9.618 11.346,9.048 Z" />
</svg>
