<svg id="text-leading" xmlns="http://www.w3.org/2000/svg" xmlns:xlink="http://www.w3.org/1999/xlink" preserveAspectRatio="xMidYMid" width="100%" height="100%" viewBox="0 0 16 16">
<path d="M15.435,10.994 L14.371,10.994 C14.315,10.994 14.287,10.966 14.259,10.924 L13.737,9.004 L10.134,9.004 L9.626,10.911 C9.612,10.966 9.584,10.994 9.514,10.994 L8.562,10.994 C8.492,10.994 8.464,10.953 8.478,10.883 L11.077,3.635 C11.119,3.523 11.161,3.425 11.175,3.060 C11.175,3.018 11.203,2.991 11.245,2.991 L12.617,2.991 C12.673,2.991 12.687,3.005 12.701,3.060 L15.491,10.896 C15.519,10.953 15.505,10.994 15.435,10.994 ZM12.006,3.943 L11.992,3.943 C11.754,4.839 10.988,6.465 10.456,8.005 L13.415,8.005 C13.107,7.094 12.272,4.895 12.006,3.943 ZM5.897,11.358 L6.500,12.000 L3.516,14.500 L0.500,12.000 L1.165,11.342 L3.000,12.859 L3.000,3.141 L1.103,4.642 L0.500,4.000 L3.484,1.500 L6.500,4.000 L5.835,4.658 L4.000,3.141 L4.000,12.859 L5.897,11.358 Z" />
</svg>
