<svg id="layer-artboard-collapsed-mask" xmlns="http://www.w3.org/2000/svg" xmlns:xlink="http://www.w3.org/1999/xlink" preserveAspectRatio="xMidYMid" width="100%" height="100%" viewBox="0 0 18 18">
<path d="M9.000,9.000 L9.000,17.000 C7.543,17.000 6.339,17.000 6.000,17.000 C4.971,17.000 5.000,16.000 5.000,16.000 L5.000,5.000 C5.000,4.052 6.000,4.000 6.000,4.000 L12.000,4.000 C12.412,4.000 13.462,4.812 13.462,4.812 L16.139,7.739 C16.715,8.315 17.000,9.000 17.000,9.000 L17.000,9.000 L9.000,9.000 ZM12.000,5.000 L12.000,8.000 C12.000,8.000 11.984,9.000 13.000,9.000 C14.016,9.000 16.000,9.000 16.000,9.000 L12.000,5.000 ZM5.500,3.000 C5.224,3.000 5.000,2.776 5.000,2.500 L5.000,1.031 C5.000,0.755 5.224,0.531 5.500,0.531 C5.776,0.531 6.000,0.755 6.000,1.031 L6.000,2.500 C6.000,2.776 5.776,3.000 5.500,3.000 ZM3.500,5.000 L2.000,5.000 C1.724,5.000 1.500,4.776 1.500,4.500 C1.500,4.224 1.724,4.000 2.000,4.000 L3.500,4.000 C3.776,4.000 4.000,4.224 4.000,4.500 C4.000,4.776 3.776,5.000 3.500,5.000 Z" />
<path d="M18.000,15.000 L18.000,18.000 L15.000,18.000 L15.000,17.000 L13.000,17.000 L13.000,18.000 L10.000,18.000 L10.000,15.000 L10.997,15.000 L10.994,12.969 L10.000,12.969 L10.000,10.000 L13.000,10.000 L13.000,11.000 L15.000,11.000 L15.000,10.000 L18.000,10.000 L18.000,13.000 L16.966,13.000 L16.966,15.000 L18.000,15.000 ZM10.991,17.000 L12.000,17.000 L12.000,16.000 L11.000,16.000 L10.991,17.000 ZM12.000,11.000 L10.991,11.000 L10.991,12.000 L12.000,12.000 L12.000,11.000 ZM15.000,12.029 L14.970,12.000 L13.000,12.000 L13.000,12.969 L12.020,12.969 L11.989,13.000 L11.989,15.000 L13.000,15.000 L13.000,16.000 L14.970,16.000 L15.000,15.971 L15.000,15.000 L16.000,15.000 L16.000,13.000 L15.000,13.000 L15.000,12.029 ZM17.000,12.000 L17.000,11.000 L16.000,11.000 L16.000,12.000 L17.000,12.000 ZM16.000,16.000 L16.000,17.000 L17.000,17.000 L17.000,16.000 L16.000,16.000 Z" />
</svg>
