<svg id="layer-8" xmlns="http://www.w3.org/2000/svg" xmlns:xlink="http://www.w3.org/1999/xlink" preserveAspectRatio="xMidYMid" width="100%" height="100%" viewBox="0 0 18 18">
 <path d="M17.000,14.000 C17.000,15.975 15.000,16.000 15.000,16.000 L3.016,16.009 C3.016,16.009 1.000,15.986 1.000,14.010 L1.000,4.015 C1.000,1.996 3.016,2.016 3.016,2.016 L15.016,2.016 C15.016,2.016 17.016,2.023 17.016,4.015 L17.000,14.000 ZM16.000,4.015 C16.000,3.463 15.568,3.015 15.016,3.015 L3.016,3.015 C2.463,3.015 2.016,3.463 2.016,4.015 L2.016,14.010 C2.016,14.562 2.448,15.010 3.000,15.010 L15.000,15.010 C15.552,15.010 16.000,14.562 16.000,14.010 L16.000,4.015 ZM14.000,10.703 L9.469,12.969 L4.996,10.711 L4.996,7.204 L5.061,7.203 L5.000,7.172 L9.469,4.937 L14.000,7.172 L13.976,7.184 L14.004,7.184 L14.000,10.703 ZM6.000,10.199 L8.969,11.983 L8.969,9.184 L5.997,7.677 L6.000,10.199 ZM9.469,5.869 L6.259,7.172 L9.469,8.757 L12.738,7.172 L9.469,5.869 ZM9.969,9.187 L9.969,11.989 L12.992,10.203 L13.009,7.667 L9.969,9.187 Z" />
</svg>
