<svg id="layer-cloud-linked-alert" xmlns="http://www.w3.org/2000/svg" xmlns:xlink="http://www.w3.org/1999/xlink" preserveAspectRatio="xMidYMid" width="100%" height="100%" viewBox="0 0 18 18">
<path d="M13.400,14.000 L8.791,14.000 C8.656,13.665 8.500,13.321 8.314,12.969 L13.400,12.969 C15.109,12.969 16.000,11.715 16.000,10.000 C16.000,8.285 15.109,6.780 13.400,6.780 C13.244,6.780 13.105,6.789 12.975,6.809 C12.737,6.844 12.505,6.705 12.427,6.477 C11.921,4.995 10.534,4.000 8.975,4.000 C6.960,4.000 5.320,5.644 5.320,7.665 C5.320,7.765 5.324,7.861 5.333,7.961 C5.347,8.120 5.285,8.275 5.166,8.380 C5.046,8.485 4.885,8.527 4.729,8.494 C4.580,8.461 4.425,8.445 4.270,8.445 C3.018,8.445 2.000,9.465 2.000,10.720 C2.000,11.069 2.085,11.394 2.225,11.687 C1.951,11.922 1.692,12.162 1.454,12.400 C1.153,11.907 0.969,11.336 0.969,10.720 C0.969,8.896 2.500,7.427 4.325,7.445 C4.440,4.975 6.482,3.000 8.975,3.000 C10.829,3.000 12.492,4.103 13.229,5.783 C13.285,5.781 13.342,5.780 13.400,5.780 C15.661,5.780 17.000,7.734 17.000,10.000 C17.000,12.266 15.661,14.000 13.400,14.000 Z"/>
<path d="M8.472,17.357 C8.388,17.189 5.005,10.474 5.005,10.474 C5.005,10.474 4.754,9.968 4.503,9.968 C4.252,9.968 4.002,10.474 4.002,10.474 C4.002,10.474 0.618,17.273 0.535,17.442 C0.451,17.610 0.451,18.032 0.952,18.032 C1.453,18.032 8.054,18.032 8.054,18.032 C8.555,18.032 8.555,17.526 8.472,17.357 ZM4.503,17.057 C4.196,17.057 3.946,16.806 3.946,16.495 C3.946,16.185 4.196,15.933 4.503,15.933 C4.810,15.933 5.060,16.185 5.060,16.495 C5.060,16.806 4.810,17.057 4.503,17.057 ZM5.005,12.785 C5.005,13.544 4.880,14.984 4.840,15.189 C4.840,15.210 4.827,15.315 4.767,15.315 L4.239,15.315 C4.199,15.315 4.174,15.217 4.163,15.189 C4.144,14.997 4.002,13.544 4.002,12.785 L4.002,12.088 C4.002,12.061 4.069,12.019 4.119,11.998 C4.239,11.950 4.339,11.953 4.489,11.953 C4.690,11.953 4.771,11.964 4.880,11.998 C4.931,12.019 5.005,12.067 5.005,12.088 L5.005,12.785 Z" />
</svg>
