<svg id="layer-adjustment-mask" xmlns="http://www.w3.org/2000/svg" xmlns:xlink="http://www.w3.org/1999/xlink" preserveAspectRatio="xMidYMid" width="100%" height="100%" viewBox="0 0 18 18">
<path d="M13.365,9.000 C13.382,7.812 12.944,6.619 12.039,5.712 C8.379,9.379 7.927,9.831 5.606,12.157 C6.284,12.836 7.123,13.251 8.000,13.412 L8.000,14.903 C5.156,14.438 2.979,11.983 2.979,9.000 C2.979,5.686 5.658,3.000 8.964,3.000 C12.269,3.000 14.948,5.686 14.948,9.000 C14.948,9.000 14.948,9.000 14.948,9.000 L13.365,9.000 Z" />
<path d="M17.000,15.000 L17.000,18.000 L14.000,18.000 L14.000,17.000 L12.000,17.000 L12.000,18.000 L9.000,18.000 L9.000,15.000 L9.997,15.000 L9.994,12.969 L9.000,12.969 L9.000,10.000 L12.000,10.000 L12.000,11.000 L14.000,11.000 L14.000,10.000 L17.000,10.000 L17.000,13.000 L15.966,13.000 L15.966,15.000 L17.000,15.000 ZM9.991,17.000 L11.000,17.000 L11.000,16.000 L10.000,16.000 L9.991,17.000 ZM11.000,11.000 L9.991,11.000 L9.991,12.000 L11.000,12.000 L11.000,11.000 ZM14.000,12.029 L13.970,12.000 L12.000,12.000 L12.000,12.969 L11.020,12.969 L10.989,13.000 L10.989,15.000 L12.000,15.000 L12.000,16.000 L13.970,16.000 L14.000,15.971 L14.000,15.000 L15.000,15.000 L15.000,13.000 L14.000,13.000 L14.000,12.029 ZM16.000,12.000 L16.000,11.000 L15.000,11.000 L15.000,12.000 L16.000,12.000 ZM15.000,16.000 L15.000,17.000 L16.000,17.000 L16.000,16.000 L15.000,16.000 Z" />
</svg>
