<?xml version="1.0" encoding="utf-8"?>
<svg version="1.1" id="layer-7" xmlns="http://www.w3.org/2000/svg" xmlns:xlink="http://www.w3.org/1999/xlink" x="0px" y="0px"
	 viewBox="0 0 24 24" style="enable-background:new 0 0 24 24;" xml:space="preserve">
<path stroke="none" d="M3.6,8.6c0-2.5,0-2.5,0-2.5s0-2.5,2.5-2.5h6.8c1.2,0,1.2,1.2,1.2,1.2s0,0.6,0.6,0.6H21
	c0,0,2.5,0,2.5,2.5l0,4.3h-1.2l0-4.3c0-1.1-1.2-1.2-1.2-1.2h-6.8c-1.3,0-1.2-1.2-1.2-1.2s0-0.6-0.6-0.6c-0.6,0-6.2,0-6.2,0
	s-1.2,0-1.2,1.2c0,0,0,0.8,0,2.5C4.8,9.5,3.6,9.4,3.6,8.6z M0.5,11.7c0-1.2,1.2-1.2,1.2-1.2l21.8,0c0,0,0,5,0,7.5S21,20.4,21,20.4
	s-9.6,0-14.9,0C4.3,20.4,0.5,14.6,0.5,11.7z"/>
</svg>
