<svg id="style-copy" xmlns="http://www.w3.org/2000/svg" xmlns:xlink="http://www.w3.org/1999/xlink" preserveAspectRatio="xMidYMid" width="100%" height="100%" viewBox="0 0 16 16">
<path d="M11.000,13.000 L6.000,13.000 C6.000,13.000 5.000,13.024 5.000,12.000 C5.000,10.976 5.000,4.996 5.000,4.000 C5.000,3.004 6.000,3.000 6.000,3.000 L8.000,3.000 C8.000,3.000 8.000,4.983 8.000,5.969 C8.000,6.954 9.000,6.969 9.000,6.969 L12.000,6.969 C12.000,6.969 12.000,10.998 12.000,12.000 C12.000,13.002 11.000,13.000 11.000,13.000 ZM9.000,5.469 L9.000,3.000 L12.000,5.969 C12.000,5.969 10.006,5.969 9.500,5.969 C8.994,5.969 9.000,5.469 9.000,5.469 ZM10.000,13.990 C10.000,13.990 10.022,15.000 9.000,15.000 C7.978,15.000 4.500,15.000 4.500,15.000 C4.500,15.000 3.000,15.091 3.000,13.472 C3.000,12.451 3.000,7.490 3.000,6.497 C3.000,5.350 4.000,5.500 4.000,5.500 C4.000,5.500 4.000,12.010 4.000,12.993 C4.000,13.975 5.000,13.990 5.000,13.990 L10.000,13.990 Z"/>
</svg>
