<svg id="iOS" xmlns="http://www.w3.org/2000/svg" xmlns:xlink="http://www.w3.org/1999/xlink" preserveAspectRatio="xMidYMid" width="100%" height="100%" viewBox="0 0 24 16">
<path d="M17.579,6.047 C17.230,5.853 16.682,5.756 16.113,5.756 C15.076,5.756 14.859,6.107 14.859,6.478 C14.859,6.875 15.056,7.112 15.944,7.447 L16.372,7.606 C17.599,8.064 17.993,8.674 17.993,9.335 C17.993,10.288 17.185,10.975 15.729,10.975 C15.041,10.975 14.432,10.843 14.043,10.640 C13.994,10.623 13.984,10.587 13.984,10.534 L13.984,9.774 C13.984,9.739 14.014,9.722 14.053,9.748 C14.572,10.057 15.210,10.180 15.759,10.180 C16.716,10.180 17.092,9.926 17.092,9.397 C17.092,8.982 16.851,8.736 15.944,8.375 L15.505,8.216 C14.268,7.748 13.989,7.130 13.989,6.539 C13.989,5.622 14.787,4.970 16.133,4.970 C16.761,4.970 17.300,5.058 17.609,5.208 C17.649,5.225 17.659,5.252 17.659,5.296 L17.659,6.012 C17.659,6.047 17.629,6.074 17.579,6.047 ZM10.480,10.976 C8.870,10.976 7.926,9.735 7.926,7.965 C7.926,6.159 8.997,4.982 10.464,4.982 C12.048,4.982 12.993,6.249 13.001,7.947 C13.010,9.879 11.939,10.976 10.480,10.976 ZM10.455,5.781 C9.444,5.781 8.768,6.429 8.768,7.965 C8.768,9.268 9.283,10.114 10.497,10.114 C11.619,10.114 12.128,9.394 12.120,7.965 C12.120,6.573 11.560,5.781 10.455,5.781 ZM6.476,5.015 C6.140,5.015 5.934,4.787 5.934,4.462 C5.934,4.136 6.162,3.909 6.487,3.909 C6.834,3.909 7.029,4.147 7.029,4.462 C7.029,4.787 6.812,5.015 6.476,5.015 ZM6.867,5.993 C6.910,5.993 6.932,6.004 6.932,6.058 L6.932,10.905 C6.932,10.960 6.921,10.981 6.856,10.981 L6.108,10.981 C6.053,10.981 6.021,10.960 6.021,10.895 L6.021,6.069 C6.021,6.015 6.042,5.993 6.097,5.993 L6.867,5.993 Z" />
</svg>
