<svg id="toggle-unlock" xmlns="http://www.w3.org/2000/svg" xmlns:xlink="http://www.w3.org/1999/xlink" preserveAspectRatio="xMidYMid" width="100%" height="100%" viewBox="0 0 16 16">
<path d="M2.857,4.560 C2.857,4.560 2.980,3.856 4.409,3.856 C5.526,3.856 5.996,4.718 5.996,5.723 L6.003,5.988 L4.971,5.988 C4.971,5.988 4.002,6.009 4.002,6.975 L4.002,12.003 C4.002,12.956 5.002,12.996 5.002,12.996 L10.966,12.996 C10.966,12.996 12.000,12.966 12.000,12.013 L12.000,7.015 C12.000,6.051 10.963,5.988 10.963,5.988 L6.990,5.988 L7.001,5.723 C7.001,3.467 5.453,2.975 4.420,2.975 C2.488,2.975 2.138,4.103 2.138,4.103 L2.857,4.560 Z" />
</svg>
