<svg id="libraries-viewonsite" xmlns="http://www.w3.org/2000/svg" xmlns:xlink="http://www.w3.org/1999/xlink" preserveAspectRatio="xMidYMid" width="100%" height="100%" viewBox="0 0 56 52">
<path d="M47.262,29.930 C47.331,29.757 47.366,29.636 47.366,29.566 C47.331,29.566 47.296,29.566 47.262,29.566 C47.158,29.566 47.088,29.584 47.054,29.618 C47.019,29.688 47.001,29.809 47.001,29.982 C47.001,30.121 47.019,30.208 47.054,30.242 C47.123,30.208 47.192,30.104 47.262,29.930 L47.262,29.930 ZM42.062,47.792 C46.395,45.001 49.602,41.301 51.682,36.690 C53.242,33.189 53.996,29.480 53.943,25.562 C53.892,21.645 53.016,17.953 51.318,14.486 C49.723,11.262 47.513,8.463 44.688,6.088 C41.861,3.714 38.716,2.024 35.250,1.018 C31.610,-0.056 27.874,-0.299 24.044,0.291 C20.212,0.880 16.703,2.232 13.514,4.346 C10.462,6.392 7.950,8.983 5.974,12.120 C3.998,15.258 2.750,18.646 2.229,22.287 C1.709,26.030 1.987,29.731 3.062,33.388 C4.136,37.046 5.921,40.278 8.417,43.086 C10.878,45.894 13.816,48.078 17.231,49.638 C20.646,51.198 24.226,51.978 27.970,51.978 C33.031,51.978 37.728,50.582 42.062,47.792 ZM15.594,5.750 L15.126,5.698 C15.160,5.698 15.255,5.638 15.412,5.516 C15.567,5.395 15.715,5.300 15.854,5.230 C15.992,5.161 16.079,5.144 16.114,5.178 L16.218,5.178 C16.355,5.248 16.426,5.334 16.426,5.438 C16.355,5.646 16.131,5.750 15.750,5.750 C15.819,5.750 15.906,5.750 16.010,5.750 C16.114,5.750 16.200,5.742 16.270,5.724 C16.339,5.707 16.417,5.698 16.503,5.698 C16.590,5.698 16.667,5.681 16.738,5.646 C16.946,5.646 17.240,5.768 17.621,6.010 C18.003,6.253 18.557,6.444 19.285,6.582 C19.459,6.617 19.563,6.643 19.597,6.660 C19.632,6.678 19.684,6.721 19.753,6.790 C19.823,6.860 19.875,7.033 19.909,7.310 C19.944,7.380 20.065,7.414 20.273,7.414 C20.377,7.414 20.508,7.475 20.664,7.596 C20.820,7.718 20.932,7.796 21.001,7.830 C21.140,7.900 21.400,7.952 21.781,7.986 C21.608,8.264 21.365,8.524 21.053,8.766 C20.915,8.870 20.724,8.844 20.481,8.688 C20.239,8.532 20.083,8.454 20.013,8.454 C20.048,8.524 20.108,8.584 20.196,8.636 C20.281,8.688 20.369,8.740 20.456,8.792 C20.542,8.844 20.603,8.905 20.637,8.974 C20.741,9.148 20.776,9.338 20.741,9.546 C20.707,9.685 20.585,9.694 20.377,9.572 C20.169,9.451 20.065,9.494 20.065,9.702 C20.031,9.702 19.927,9.702 19.753,9.702 C19.580,9.702 19.459,9.685 19.389,9.650 L19.233,9.494 L19.181,9.442 C19.147,9.408 19.077,9.425 18.973,9.494 C18.869,9.494 18.609,9.356 18.193,9.078 C18.124,9.044 17.864,9.026 17.414,9.026 C17.379,9.026 17.300,9.044 17.180,9.078 C17.058,9.113 16.972,9.130 16.919,9.130 C16.868,9.130 16.807,9.096 16.738,9.026 C16.563,8.749 16.563,8.524 16.738,8.350 C16.842,8.246 17.006,8.212 17.231,8.246 C17.457,8.281 17.587,8.281 17.621,8.246 C17.656,8.212 17.691,8.168 17.725,8.116 C17.760,8.064 17.795,8.021 17.829,7.986 C17.864,7.952 17.899,7.917 17.933,7.882 C17.968,7.848 18.020,7.813 18.089,7.778 L17.933,7.674 C17.795,7.986 17.656,8.142 17.517,8.142 C17.448,8.142 17.379,8.125 17.310,8.090 C16.755,7.986 16.686,7.848 17.102,7.674 C17.344,7.536 17.275,7.414 16.894,7.310 C16.790,7.310 16.738,7.293 16.738,7.258 C16.667,7.328 16.538,7.354 16.348,7.336 C16.156,7.319 16.010,7.345 15.906,7.414 C16.251,7.553 16.355,7.744 16.218,7.986 C16.183,8.056 15.958,8.177 15.542,8.350 C15.576,8.385 15.646,8.428 15.750,8.480 C15.854,8.532 15.958,8.584 16.062,8.636 C16.166,8.688 16.251,8.749 16.322,8.818 C16.391,8.888 16.426,8.974 16.426,9.078 C16.426,9.252 16.322,9.364 16.114,9.416 C15.906,9.468 15.767,9.408 15.698,9.234 C15.627,9.165 15.567,9.122 15.516,9.104 C15.463,9.087 15.412,9.087 15.359,9.104 C15.308,9.122 15.238,9.156 15.151,9.208 C15.064,9.260 14.987,9.286 14.918,9.286 C14.744,9.356 14.614,9.338 14.527,9.234 C14.440,9.130 14.467,9.009 14.606,8.870 C14.571,8.870 14.536,8.853 14.502,8.818 C14.467,9.026 14.432,9.148 14.398,9.182 C14.363,9.217 14.284,9.208 14.164,9.156 C14.042,9.104 13.912,9.096 13.774,9.130 C13.704,9.130 13.626,9.165 13.540,9.234 C13.453,9.304 13.358,9.390 13.254,9.494 C13.150,9.598 13.080,9.668 13.046,9.702 C12.942,9.772 12.863,9.832 12.812,9.884 C12.759,9.936 12.734,9.988 12.734,10.040 C12.734,10.092 12.742,10.162 12.759,10.248 C12.777,10.335 12.768,10.430 12.734,10.534 C12.838,10.673 12.916,10.777 12.967,10.846 C13.020,10.916 13.046,10.968 13.046,11.002 C13.254,10.933 13.556,10.976 13.956,11.132 C14.354,11.288 14.606,11.384 14.710,11.418 C14.744,11.418 14.908,11.401 15.204,11.366 C15.498,11.332 15.646,11.366 15.646,11.470 C15.715,11.505 15.819,11.713 15.958,12.094 L16.166,11.782 C16.304,12.302 16.322,12.597 16.218,12.666 C16.218,12.701 16.270,12.727 16.374,12.744 C16.478,12.762 16.547,12.753 16.582,12.718 L16.478,12.198 C16.339,11.852 16.270,11.635 16.270,11.548 C16.270,11.462 16.339,11.418 16.478,11.418 C16.582,11.418 16.676,11.462 16.764,11.548 C16.850,11.635 16.928,11.609 16.998,11.470 C17.136,11.332 17.102,11.158 16.894,10.950 C16.894,10.916 16.850,10.872 16.764,10.820 C16.676,10.768 16.616,10.716 16.582,10.664 C16.547,10.612 16.530,10.552 16.530,10.482 C16.530,10.413 16.572,10.370 16.660,10.352 C16.746,10.335 16.790,10.274 16.790,10.170 C16.720,9.858 16.755,9.642 16.894,9.520 C17.032,9.399 17.258,9.321 17.569,9.286 C17.777,9.286 18.020,9.347 18.297,9.468 C18.575,9.590 18.783,9.668 18.921,9.702 C19.233,9.737 19.424,9.824 19.493,9.962 C19.493,10.032 19.484,10.084 19.468,10.118 C19.449,10.153 19.407,10.196 19.337,10.248 C19.268,10.300 19.233,10.344 19.233,10.378 C19.268,10.448 19.364,10.500 19.520,10.534 C19.676,10.569 19.788,10.569 19.857,10.534 C19.892,10.500 19.979,10.387 20.117,10.196 C20.256,10.006 20.377,9.910 20.481,9.910 C20.655,9.910 20.845,10.066 21.053,10.378 C21.261,10.690 21.400,10.968 21.469,11.210 C21.504,11.349 21.548,11.427 21.600,11.444 C21.652,11.462 21.712,11.453 21.781,11.418 C21.851,11.384 21.938,11.401 22.042,11.470 C22.354,11.574 22.544,11.748 22.613,11.990 C22.613,12.094 22.700,12.164 22.874,12.198 C23.047,12.233 23.133,12.302 23.133,12.406 C23.168,12.476 23.082,12.736 22.874,13.186 C22.839,13.257 22.960,13.308 23.237,13.342 C23.306,13.342 23.368,13.368 23.420,13.420 C23.472,13.472 23.505,13.516 23.524,13.550 C23.541,13.585 23.576,13.646 23.628,13.732 C23.680,13.819 23.706,13.881 23.706,13.914 C23.948,14.330 23.930,14.538 23.653,14.538 C23.584,14.538 23.505,14.505 23.420,14.434 C23.333,14.365 23.255,14.382 23.186,14.486 C23.116,14.521 23.021,14.512 22.900,14.460 C22.777,14.408 22.683,14.382 22.613,14.382 C22.301,14.418 22.093,14.418 21.989,14.382 C21.851,14.313 21.868,14.079 22.042,13.680 C22.215,13.282 22.336,13.082 22.405,13.082 C22.371,13.082 22.319,13.134 22.250,13.238 C22.180,13.342 22.111,13.394 22.042,13.394 C21.764,13.394 21.556,13.429 21.417,13.498 C21.417,13.533 21.400,13.569 21.365,13.602 C21.331,13.741 21.279,13.828 21.209,13.862 C21.001,14.001 20.845,14.018 20.741,13.914 C20.776,13.984 20.776,14.070 20.741,14.174 C20.707,14.278 20.707,14.349 20.741,14.382 C20.949,14.278 21.071,14.244 21.105,14.278 C21.140,14.313 21.192,14.434 21.261,14.642 C21.296,14.642 21.356,14.599 21.444,14.512 C21.529,14.426 21.591,14.374 21.625,14.356 C21.660,14.339 21.729,14.400 21.833,14.538 C21.938,14.886 21.964,15.084 21.912,15.136 C21.860,15.188 21.660,15.266 21.313,15.370 C21.279,15.370 21.192,15.388 21.053,15.422 C20.915,15.457 20.811,15.492 20.741,15.526 C20.429,15.735 20.256,15.838 20.221,15.838 C20.013,15.838 19.909,15.648 19.909,15.266 C19.840,15.336 19.761,15.388 19.676,15.422 C19.588,15.457 19.493,15.483 19.389,15.500 C19.285,15.518 19.216,15.544 19.181,15.578 C19.008,15.682 18.991,15.830 19.129,16.020 C19.268,16.211 19.320,16.341 19.285,16.410 C19.216,16.515 19.129,16.566 19.025,16.566 C18.921,16.566 18.783,16.558 18.609,16.540 C18.436,16.523 18.332,16.515 18.297,16.515 C18.263,16.515 18.228,16.592 18.193,16.748 C18.159,16.904 18.072,16.965 17.933,16.930 C17.899,16.965 17.881,17.000 17.881,17.034 C17.881,17.242 17.855,17.398 17.804,17.502 C17.751,17.607 17.656,17.624 17.517,17.554 C17.517,17.589 17.561,17.676 17.647,17.814 C17.734,17.953 17.769,18.066 17.751,18.152 C17.734,18.239 17.656,18.300 17.517,18.334 C17.240,18.474 17.015,18.681 16.842,18.958 C16.807,18.993 16.686,19.098 16.478,19.270 C16.270,19.444 16.147,19.582 16.114,19.686 C16.079,19.756 16.079,19.842 16.114,19.947 C16.147,20.050 16.191,20.163 16.244,20.284 C16.295,20.406 16.339,20.484 16.374,20.518 C16.478,20.865 16.478,21.142 16.374,21.351 C16.339,21.489 16.270,21.576 16.166,21.610 C16.062,21.645 15.958,21.610 15.854,21.507 C15.507,20.986 15.315,20.553 15.282,20.206 C15.107,20.345 14.935,20.259 14.762,19.947 C14.415,20.050 14.155,20.103 13.982,20.103 C13.912,20.103 13.843,20.163 13.774,20.284 C13.704,20.406 13.600,20.449 13.462,20.415 C13.080,20.276 12.872,20.206 12.838,20.206 C12.595,20.206 12.403,20.276 12.266,20.415 C12.195,20.484 12.091,20.562 11.954,20.648 C11.814,20.735 11.710,20.813 11.642,20.883 C11.746,20.952 11.746,21.246 11.642,21.766 C11.642,21.940 11.659,22.200 11.694,22.546 C11.728,22.755 11.858,22.988 12.083,23.248 C12.309,23.508 12.491,23.586 12.630,23.482 C12.699,23.448 12.786,23.422 12.890,23.404 C12.994,23.387 13.080,23.361 13.150,23.326 C13.219,23.292 13.235,23.240 13.202,23.170 C13.167,23.032 13.184,22.893 13.254,22.755 C13.323,22.616 13.443,22.546 13.618,22.546 C13.651,22.546 13.748,22.537 13.903,22.520 C14.060,22.503 14.171,22.494 14.242,22.494 C14.311,22.494 14.388,22.529 14.476,22.599 C14.562,22.668 14.606,22.772 14.606,22.911 C14.606,23.014 14.587,23.101 14.554,23.170 C14.519,23.240 14.476,23.317 14.423,23.404 C14.372,23.491 14.328,23.569 14.294,23.638 C14.294,23.708 14.294,23.829 14.294,24.003 C14.294,24.176 14.275,24.297 14.242,24.366 C14.275,24.366 14.328,24.384 14.398,24.418 C14.467,24.453 14.519,24.471 14.554,24.471 C14.587,24.471 14.658,24.436 14.762,24.366 C14.866,24.297 14.935,24.262 14.970,24.262 C15.107,24.228 15.264,24.315 15.438,24.522 C15.611,24.730 15.680,24.904 15.646,25.042 C15.438,25.632 15.419,26.065 15.594,26.342 C15.871,26.724 16.131,26.724 16.374,26.342 C16.478,26.238 16.563,26.212 16.634,26.264 C16.703,26.316 16.790,26.394 16.894,26.498 C16.998,26.602 17.067,26.654 17.102,26.654 C17.206,26.654 17.344,26.533 17.517,26.290 C17.691,26.048 17.777,25.909 17.777,25.874 C18.228,25.562 18.523,25.424 18.661,25.458 C18.765,25.493 18.826,25.536 18.844,25.588 C18.860,25.640 18.852,25.692 18.817,25.744 C18.783,25.796 18.756,25.866 18.740,25.952 C18.722,26.039 18.696,26.100 18.661,26.134 C18.835,25.822 19.043,25.666 19.285,25.666 C19.355,25.666 19.459,25.805 19.597,26.082 C19.701,25.978 19.832,25.935 19.988,25.952 C20.144,25.970 20.256,26.048 20.325,26.186 C20.395,25.978 20.551,25.892 20.793,25.926 C21.036,25.961 21.209,26.048 21.313,26.186 C21.487,25.909 21.608,25.822 21.677,25.926 C21.816,26.100 21.781,26.360 21.573,26.706 C21.677,26.776 21.747,26.810 21.781,26.810 C21.955,26.776 22.146,26.897 22.354,27.174 C22.423,27.209 22.475,27.278 22.509,27.382 C22.579,27.452 22.683,27.469 22.821,27.434 C23.029,27.330 23.220,27.330 23.394,27.434 C23.774,27.677 24.104,28.076 24.381,28.630 C24.381,28.665 24.441,28.734 24.564,28.838 C24.685,28.942 24.753,29.029 24.772,29.098 C24.789,29.168 24.762,29.272 24.693,29.410 C24.866,29.410 24.970,29.514 25.005,29.722 C25.074,29.688 25.196,29.670 25.370,29.670 C25.612,29.705 25.994,29.913 26.514,30.294 C26.583,30.364 26.722,30.390 26.930,30.372 C27.138,30.355 27.293,30.381 27.397,30.450 C27.466,30.485 27.527,30.528 27.579,30.580 C27.631,30.632 27.674,30.684 27.709,30.736 C27.744,30.788 27.787,30.823 27.839,30.840 C27.891,30.858 27.943,30.884 27.995,30.918 C28.047,30.953 28.108,30.979 28.178,30.996 C28.247,31.014 28.298,31.022 28.333,31.022 C28.680,31.300 28.845,31.612 28.827,31.958 C28.810,32.305 28.698,32.652 28.490,32.998 C28.420,33.137 28.282,33.310 28.074,33.518 C27.866,33.726 27.727,33.900 27.658,34.038 C27.623,34.142 27.623,34.316 27.658,34.558 C27.692,34.801 27.692,34.974 27.658,35.078 C27.623,35.148 27.588,35.312 27.554,35.572 C27.519,35.832 27.450,36.033 27.346,36.170 C27.311,36.240 27.267,36.361 27.216,36.534 C27.164,36.708 27.094,36.846 27.008,36.950 C26.921,37.054 26.826,37.125 26.722,37.158 C26.236,37.262 25.941,37.350 25.837,37.418 C25.352,37.696 25.092,37.869 25.058,37.938 C25.022,38.008 25.032,38.130 25.084,38.302 C25.136,38.476 25.144,38.623 25.109,38.744 C25.074,38.866 24.970,38.944 24.797,38.979 C24.762,38.979 24.685,39.066 24.564,39.238 C24.441,39.412 24.364,39.516 24.330,39.550 C24.260,39.585 24.208,39.680 24.173,39.836 C24.138,39.992 24.122,40.088 24.122,40.122 C24.086,40.227 23.930,40.417 23.653,40.695 C23.341,41.007 23.029,41.128 22.717,41.058 C22.925,41.197 22.839,41.526 22.458,42.046 C22.354,42.219 22.128,42.324 21.781,42.358 C21.504,42.393 21.313,42.393 21.209,42.358 L21.261,42.774 C21.261,42.982 21.001,43.017 20.481,42.879 L20.533,42.982 C20.568,43.017 20.603,43.035 20.637,43.035 C20.741,43.035 20.811,43.051 20.845,43.086 C21.019,43.155 20.984,43.329 20.741,43.606 C20.533,43.848 20.395,44.004 20.325,44.074 C20.325,44.109 20.256,44.186 20.117,44.308 C19.979,44.429 19.909,44.508 19.909,44.542 L20.013,44.595 C20.291,44.628 20.412,44.767 20.377,45.010 C20.308,45.183 20.100,45.426 19.753,45.738 C19.303,46.155 19.355,46.552 19.909,46.934 C19.979,46.968 20.117,46.994 20.325,47.012 C20.533,47.029 20.655,47.073 20.689,47.142 C20.689,47.246 20.499,47.367 20.117,47.506 C20.048,47.541 19.979,47.566 19.909,47.584 C19.840,47.602 19.761,47.618 19.676,47.636 C19.588,47.653 19.511,47.662 19.441,47.662 C19.407,47.697 19.164,47.628 18.713,47.454 C18.609,47.454 18.453,47.367 18.245,47.194 C18.037,47.020 17.916,46.882 17.881,46.778 C17.847,46.708 17.829,46.613 17.829,46.492 C17.829,46.370 17.795,46.275 17.725,46.206 C17.483,46.068 17.466,45.894 17.673,45.687 C17.431,45.616 17.344,45.460 17.414,45.219 C17.448,45.148 17.483,45.070 17.517,44.984 C17.552,44.897 17.561,44.845 17.543,44.828 C17.526,44.810 17.500,44.733 17.466,44.595 C17.431,44.490 17.439,44.368 17.492,44.230 C17.543,44.091 17.630,43.953 17.751,43.815 C17.873,43.675 17.933,43.554 17.933,43.450 C17.968,43.380 17.977,43.329 17.959,43.294 C17.942,43.260 17.924,43.198 17.908,43.112 C17.890,43.025 17.881,42.964 17.881,42.930 C17.847,42.826 17.864,42.687 17.933,42.514 C18.003,42.340 18.037,42.219 18.037,42.150 C18.037,42.115 18.012,42.054 17.959,41.968 C17.908,41.881 17.881,41.812 17.881,41.760 C17.881,41.708 17.908,41.638 17.959,41.552 C18.012,41.466 18.037,41.406 18.037,41.370 C18.003,41.197 18.072,40.946 18.245,40.616 C18.419,40.287 18.488,40.036 18.453,39.862 C18.419,39.516 18.401,39.325 18.401,39.291 C18.505,39.256 18.540,39.212 18.505,39.160 C18.471,39.108 18.471,39.030 18.505,38.926 C18.505,38.857 18.566,38.779 18.687,38.692 C18.809,38.606 18.852,38.476 18.817,38.302 C18.748,38.025 18.731,37.749 18.765,37.470 C18.869,36.813 18.921,36.378 18.921,36.170 C18.921,35.858 18.852,35.616 18.713,35.442 C18.575,35.269 18.340,35.096 18.012,34.922 C17.682,34.749 17.483,34.645 17.414,34.610 C17.206,34.437 17.102,34.264 17.102,34.090 C17.102,33.986 17.076,33.882 17.023,33.778 C16.972,33.674 16.928,33.562 16.894,33.440 C16.859,33.319 16.824,33.224 16.790,33.154 C16.686,32.461 16.443,31.976 16.062,31.698 C15.958,31.629 15.888,31.551 15.854,31.464 C15.819,31.378 15.802,31.282 15.802,31.178 C15.802,31.074 15.819,30.979 15.854,30.892 C15.888,30.806 15.914,30.710 15.932,30.606 C15.948,30.502 15.958,30.416 15.958,30.346 C15.923,29.792 16.010,29.393 16.218,29.150 C16.355,29.012 16.512,28.873 16.686,28.734 C16.824,28.665 16.894,28.440 16.894,28.058 C16.928,27.885 16.894,27.668 16.790,27.408 C16.686,27.148 16.563,27.018 16.426,27.018 C16.426,27.226 16.364,27.356 16.244,27.408 C16.122,27.460 15.992,27.452 15.854,27.382 C15.715,27.313 15.584,27.226 15.463,27.122 C15.342,27.018 15.230,26.932 15.126,26.862 C15.091,26.828 15.039,26.784 14.970,26.732 C14.899,26.680 14.831,26.637 14.762,26.602 C14.691,26.568 14.623,26.524 14.554,26.472 C14.483,26.420 14.432,26.368 14.398,26.316 C14.363,26.264 14.336,26.143 14.319,25.952 C14.302,25.762 14.242,25.632 14.138,25.562 C14.034,25.493 13.868,25.441 13.644,25.406 C13.418,25.372 13.271,25.337 13.202,25.302 C13.098,25.268 12.950,25.129 12.759,24.886 C12.569,24.644 12.422,24.522 12.318,24.522 C12.248,24.522 12.170,24.583 12.083,24.704 C11.997,24.826 11.918,24.886 11.850,24.886 C11.779,24.886 11.702,24.834 11.615,24.730 C11.529,24.627 11.467,24.574 11.434,24.574 C11.398,24.574 11.278,24.592 11.070,24.627 C10.792,24.661 10.602,24.557 10.498,24.315 C10.462,24.280 10.437,24.193 10.419,24.054 C10.402,23.916 10.375,23.829 10.342,23.794 C10.271,23.691 10.134,23.621 9.926,23.586 C9.718,23.552 9.579,23.517 9.510,23.482 C9.336,23.344 9.214,23.084 9.146,22.702 C9.076,22.321 8.920,22.061 8.678,21.922 C8.608,21.888 8.539,21.819 8.470,21.714 C8.400,21.610 8.322,21.489 8.235,21.351 C8.149,21.212 8.088,21.108 8.054,21.039 C8.019,20.969 7.932,20.865 7.793,20.727 C7.654,20.588 7.568,20.501 7.534,20.466 C7.568,20.536 7.620,20.605 7.689,20.674 C7.758,20.744 7.819,20.813 7.871,20.883 C7.923,20.952 7.966,21.039 8.001,21.142 C8.036,21.316 8.123,21.472 8.262,21.610 C8.504,21.819 8.590,22.009 8.521,22.182 C8.452,22.425 8.313,22.477 8.105,22.338 C8.070,22.304 8.027,22.269 7.975,22.234 C7.923,22.200 7.880,22.156 7.846,22.105 C7.811,22.052 7.776,22.009 7.742,21.975 C7.534,21.905 7.446,21.784 7.481,21.610 C7.481,21.576 7.456,21.532 7.404,21.481 C7.352,21.428 7.300,21.368 7.248,21.298 C7.196,21.229 7.152,21.195 7.118,21.195 C7.083,21.125 7.014,21.099 6.910,21.116 C6.806,21.133 6.718,21.125 6.649,21.090 C6.545,20.986 6.554,20.839 6.676,20.648 C6.797,20.458 6.771,20.345 6.598,20.310 C6.494,20.276 6.416,20.198 6.364,20.077 C6.312,19.955 6.216,19.704 6.078,19.323 C5.904,18.906 5.730,18.699 5.558,18.699 C5.314,18.699 5.193,18.638 5.193,18.516 C5.193,18.395 5.246,18.231 5.350,18.022 C6.910,13.585 9.579,9.893 13.358,6.946 C13.427,7.050 13.496,7.154 13.566,7.258 C13.704,7.154 13.808,7.102 13.878,7.102 C13.774,7.033 13.651,6.946 13.514,6.842 C13.895,6.565 14.328,6.253 14.814,5.906 L14.814,5.906 L14.814,5.906 L14.814,5.906 L14.814,5.906 L14.814,5.906 L14.814,5.906 L14.814,5.906 L14.814,5.906 L14.814,5.906 L14.814,5.906 L14.814,5.906 L14.814,5.906 C14.987,5.802 15.247,5.750 15.594,5.750 L15.594,5.750 ZM39.773,28.370 C39.669,28.336 39.573,28.214 39.488,28.006 C39.400,27.798 39.323,27.660 39.253,27.590 C38.976,27.382 38.672,27.417 38.344,27.694 C38.014,27.972 37.780,28.110 37.641,28.110 C37.537,28.145 37.373,28.145 37.147,28.110 C36.922,28.076 36.740,28.076 36.602,28.110 C36.463,28.145 36.359,28.232 36.290,28.370 C36.220,28.474 36.134,28.526 36.030,28.526 C35.751,28.561 35.319,27.989 34.730,26.810 C34.591,26.568 34.503,26.446 34.470,26.446 C34.399,26.377 34.288,26.316 34.131,26.264 C33.976,26.212 33.846,26.160 33.742,26.108 C33.638,26.056 33.551,25.978 33.482,25.874 C33.412,25.770 33.386,25.632 33.403,25.458 C33.420,25.285 33.412,25.146 33.378,25.042 C33.274,24.869 33.316,24.627 33.507,24.315 C33.698,24.003 33.775,23.760 33.742,23.586 C33.742,23.482 33.707,23.317 33.638,23.092 C33.567,22.867 33.534,22.685 33.534,22.546 C33.534,22.408 33.594,22.200 33.715,21.922 C33.836,21.645 33.915,21.489 33.950,21.454 C34.087,20.969 34.262,20.657 34.470,20.518 C34.503,20.518 34.564,20.492 34.651,20.440 C34.738,20.389 34.824,20.354 34.912,20.336 C34.998,20.319 35.076,20.284 35.146,20.233 C35.215,20.180 35.267,20.137 35.302,20.103 C35.335,19.998 35.371,19.816 35.406,19.556 C35.439,19.296 35.492,19.098 35.562,18.958 C35.596,18.924 35.770,18.768 36.082,18.490 C36.116,18.456 36.167,18.404 36.238,18.334 C36.446,18.196 36.463,18.022 36.290,17.814 C36.255,17.780 36.160,17.771 36.003,17.788 C35.848,17.806 35.751,17.780 35.718,17.710 C35.406,17.364 35.335,17.017 35.510,16.671 C35.543,16.602 35.562,16.540 35.562,16.488 C35.562,16.436 35.552,16.359 35.536,16.254 C35.518,16.150 35.510,16.064 35.510,15.994 C35.475,15.753 35.518,15.578 35.640,15.474 C35.760,15.370 35.917,15.318 36.107,15.318 C36.298,15.318 36.498,15.336 36.706,15.370 C37.225,15.405 37.520,15.405 37.589,15.370 C37.763,14.954 37.745,14.661 37.537,14.486 C37.503,14.486 37.364,14.443 37.121,14.356 C36.879,14.270 36.740,14.174 36.706,14.070 C36.671,13.966 36.706,13.897 36.810,13.862 C36.914,13.828 37.017,13.793 37.121,13.758 C37.225,13.758 37.416,13.706 37.693,13.602 C37.971,13.498 38.144,13.446 38.213,13.446 C38.387,13.413 38.482,13.325 38.500,13.186 C38.517,13.048 38.577,12.961 38.681,12.926 C38.785,12.857 38.959,12.805 39.201,12.770 C39.271,12.666 39.357,12.562 39.461,12.458 C39.739,12.181 40.033,12.077 40.345,12.146 C40.241,12.008 40.207,11.826 40.241,11.600 C40.276,11.375 40.380,11.228 40.553,11.158 C40.415,11.158 40.259,11.124 40.085,11.054 C39.912,10.985 39.773,10.881 39.669,10.742 C39.565,10.604 39.548,10.448 39.617,10.274 C39.617,10.205 39.600,10.110 39.565,9.988 C39.531,9.867 39.513,9.772 39.513,9.702 C39.513,9.633 39.548,9.546 39.617,9.442 C39.860,9.026 40.137,8.749 40.449,8.610 C41.212,8.264 41.646,8.056 41.750,7.986 C41.819,7.917 41.914,7.787 42.036,7.596 C42.157,7.406 42.252,7.293 42.321,7.258 C42.564,7.154 42.703,7.102 42.737,7.102 C42.772,7.102 42.894,7.206 43.102,7.414 C43.170,7.449 43.292,7.527 43.465,7.648 C43.638,7.770 43.760,7.865 43.830,7.934 C43.898,8.004 43.994,8.108 44.116,8.246 C44.237,8.385 44.280,8.506 44.246,8.610 C44.210,8.714 44.158,8.853 44.089,9.026 C44.366,8.853 44.532,8.766 44.584,8.766 C44.636,8.766 44.782,8.888 45.025,9.130 C45.302,9.408 45.614,9.737 45.961,10.118 C45.233,10.188 44.766,10.257 44.558,10.326 C44.350,10.430 44.158,10.335 43.985,10.040 C43.812,9.746 43.777,9.494 43.881,9.286 C43.812,9.321 43.665,9.373 43.440,9.442 C43.213,9.512 43.066,9.616 42.998,9.754 C43.032,9.754 43.084,9.772 43.153,9.806 C43.326,9.876 43.430,9.962 43.465,10.066 C43.534,10.240 43.448,10.430 43.206,10.638 C43.136,10.708 43.058,10.864 42.972,11.106 C42.885,11.349 42.772,11.505 42.633,11.574 C42.044,11.713 41.697,11.800 41.593,11.834 C41.524,11.834 41.464,11.808 41.412,11.756 C41.360,11.704 41.316,11.626 41.281,11.522 C41.247,11.418 41.212,11.323 41.177,11.236 C41.143,11.150 41.108,10.968 41.073,10.690 C41.039,10.725 40.996,10.786 40.944,10.872 C40.892,10.959 40.848,11.020 40.813,11.054 C40.987,11.020 41.100,11.054 41.152,11.158 C41.204,11.262 41.221,11.384 41.204,11.522 C41.186,11.661 41.212,11.782 41.281,11.886 C41.351,11.990 41.507,12.042 41.750,12.042 C42.166,12.042 42.495,11.973 42.737,11.834 C42.876,11.765 43.170,11.782 43.622,11.886 C43.622,11.505 43.708,11.210 43.881,11.002 C43.881,10.864 43.994,10.820 44.220,10.872 C44.445,10.924 44.592,10.950 44.662,10.950 C44.246,10.638 44.228,10.465 44.609,10.430 C44.782,10.396 45.017,10.378 45.312,10.378 C45.605,10.378 45.788,10.378 45.857,10.378 C46.065,10.344 46.222,10.396 46.326,10.534 C46.360,10.604 46.395,10.656 46.430,10.690 C46.707,11.037 46.984,11.384 47.262,11.730 C48.406,13.325 49.358,15.024 50.122,16.827 C50.918,18.733 51.456,20.727 51.734,22.806 C51.803,23.326 51.854,23.864 51.890,24.418 C51.890,24.453 51.890,24.522 51.890,24.627 C51.923,24.834 51.838,24.990 51.630,25.094 C51.595,25.129 51.482,25.198 51.292,25.302 C51.101,25.406 50.962,25.476 50.875,25.510 C50.789,25.545 50.650,25.588 50.459,25.640 C50.269,25.692 50.139,25.684 50.070,25.614 C50.070,25.649 50.070,25.718 50.070,25.822 C50.070,25.926 50.078,26.013 50.095,26.082 C50.113,26.152 50.155,26.186 50.226,26.186 C50.398,26.221 50.624,26.169 50.902,26.030 C51.179,25.857 51.526,25.718 51.942,25.614 C51.942,26.204 51.923,26.758 51.890,27.278 C51.890,27.348 51.863,27.434 51.812,27.538 C51.759,27.642 51.708,27.738 51.655,27.824 C51.604,27.911 51.551,27.998 51.500,28.084 C51.447,28.171 51.403,28.266 51.370,28.370 C51.299,28.544 51.135,28.726 50.875,28.916 C50.615,29.107 50.467,29.202 50.434,29.202 C50.155,29.480 49.843,29.896 49.498,30.450 C49.186,30.832 49.011,31.074 48.978,31.178 C48.942,31.386 48.942,31.646 48.978,31.958 C49.011,32.028 49.150,32.305 49.394,32.790 C49.462,32.825 49.479,32.964 49.446,33.206 C49.411,33.449 49.394,33.588 49.394,33.622 C49.462,34.246 49.167,34.836 48.510,35.390 C48.024,35.806 47.833,36.189 47.938,36.534 C48.042,36.950 48.085,37.219 48.067,37.340 C48.050,37.462 47.798,37.593 47.313,37.730 C47.244,37.800 47.218,37.860 47.235,37.912 C47.253,37.964 47.287,38.060 47.339,38.198 C47.391,38.337 47.400,38.424 47.366,38.458 C47.366,38.562 47.339,38.649 47.287,38.718 C47.235,38.788 47.183,38.857 47.131,38.926 C47.079,38.996 47.019,39.066 46.950,39.135 C46.880,39.204 46.828,39.273 46.793,39.342 C46.758,39.342 46.698,39.412 46.612,39.550 C46.525,39.690 46.464,39.776 46.430,39.810 C46.395,39.846 46.333,39.915 46.248,40.018 C46.161,40.122 46.092,40.183 46.040,40.200 C45.988,40.218 45.917,40.261 45.832,40.330 C45.745,40.400 45.667,40.443 45.598,40.460 C45.528,40.478 45.441,40.495 45.337,40.512 C45.233,40.530 45.129,40.539 45.025,40.539 C44.748,40.539 44.522,40.573 44.350,40.642 C44.280,40.677 44.202,40.729 44.116,40.798 C44.029,40.868 43.941,40.920 43.856,40.954 C43.769,40.989 43.690,40.989 43.622,40.954 C43.448,40.920 43.317,40.851 43.232,40.746 C43.145,40.642 43.084,40.547 43.049,40.460 C43.014,40.374 42.980,40.235 42.945,40.044 C42.910,39.854 42.894,39.724 42.894,39.654 C42.858,39.481 42.720,39.204 42.478,38.823 C42.235,38.442 42.183,38.094 42.321,37.782 C42.391,37.609 42.391,37.427 42.321,37.236 C42.252,37.046 42.131,36.829 41.958,36.586 C41.784,36.345 41.663,36.153 41.593,36.014 C41.316,35.390 41.212,34.818 41.281,34.298 C41.316,33.952 41.455,33.657 41.697,33.414 C41.801,33.310 41.784,33.120 41.646,32.842 C41.576,32.808 41.549,32.643 41.568,32.348 C41.584,32.054 41.593,31.889 41.593,31.854 C41.559,31.785 41.507,31.655 41.438,31.464 C41.368,31.274 41.316,31.161 41.281,31.126 C41.143,30.676 40.987,30.398 40.813,30.294 C40.536,30.156 40.449,29.948 40.553,29.670 C40.553,29.601 40.571,29.436 40.605,29.176 C40.640,28.916 40.709,28.734 40.813,28.630 C40.813,28.526 40.821,28.466 40.840,28.448 C40.856,28.431 40.761,28.336 40.553,28.162 L40.553,28.162 L40.553,28.162 L40.553,28.162 C40.241,28.405 39.981,28.474 39.773,28.370 L39.773,28.370 ZM24.720,10.170 C24.633,10.170 24.572,10.162 24.538,10.144 C24.502,10.127 24.450,10.075 24.381,9.988 C24.312,9.902 24.260,9.841 24.226,9.806 C23.844,9.494 23.618,9.269 23.549,9.130 C23.445,8.922 23.358,8.801 23.290,8.766 C23.220,8.732 23.151,8.628 23.082,8.454 C22.908,8.073 22.908,7.761 23.082,7.518 C22.804,7.484 22.666,7.345 22.666,7.102 C22.666,6.998 22.640,6.946 22.588,6.946 C22.536,6.946 22.509,6.912 22.509,6.842 C22.475,6.773 22.449,6.574 22.432,6.244 C22.414,5.915 22.336,5.716 22.197,5.646 C21.885,5.438 21.452,5.282 20.897,5.178 C20.863,5.178 20.672,5.187 20.325,5.204 C19.979,5.222 19.805,5.178 19.805,5.074 C19.632,5.525 19.355,5.490 18.973,4.970 C18.904,4.901 18.783,4.849 18.609,4.814 C18.436,4.780 18.315,4.745 18.245,4.710 C18.072,4.537 18.072,4.416 18.245,4.346 C18.419,4.277 18.592,4.242 18.765,4.242 C18.869,4.242 18.956,4.225 19.025,4.190 C19.095,4.156 19.138,4.130 19.156,4.112 C19.172,4.095 19.208,4.043 19.260,3.956 C19.312,3.870 19.355,3.826 19.389,3.826 C19.424,3.757 19.528,3.705 19.701,3.670 C19.875,3.636 19.979,3.584 20.013,3.514 C20.013,3.410 20.187,3.306 20.533,3.202 C21.573,2.856 22.648,2.578 23.757,2.370 C25.906,1.989 28.090,1.902 30.310,2.110 C30.794,2.180 31.071,2.249 31.142,2.319 C31.314,2.734 31.522,2.856 31.766,2.682 C31.799,2.648 31.887,2.561 32.026,2.422 C32.164,2.388 32.268,2.388 32.338,2.422 C32.650,2.457 33.014,2.526 33.430,2.630 C33.395,2.700 33.151,2.908 32.702,3.254 C32.562,3.324 32.319,3.549 31.974,3.930 C31.903,4.034 31.843,4.156 31.792,4.294 C31.739,4.433 31.766,4.520 31.870,4.554 C32.042,4.589 32.130,4.632 32.130,4.684 C32.130,4.736 32.078,4.832 31.974,4.970 L31.922,5.074 C31.887,5.178 31.870,5.334 31.870,5.542 C31.870,5.750 31.834,5.889 31.766,5.958 C31.730,6.062 31.591,6.062 31.350,5.958 C31.106,5.854 30.951,5.820 30.882,5.854 C30.847,5.854 30.847,5.932 30.882,6.088 C30.916,6.244 30.967,6.409 31.038,6.582 C31.106,6.756 31.106,6.912 31.038,7.050 C30.967,7.189 30.830,7.241 30.622,7.206 C30.655,7.345 30.613,7.432 30.491,7.466 C30.370,7.501 30.239,7.501 30.102,7.466 C29.998,7.501 29.850,7.562 29.659,7.648 C29.469,7.735 29.338,7.778 29.270,7.778 C29.166,7.813 29.001,7.822 28.775,7.804 C28.550,7.787 28.402,7.796 28.333,7.830 C28.264,7.830 28.212,7.874 28.178,7.960 C28.143,8.047 28.099,8.134 28.047,8.220 C27.995,8.307 27.970,8.368 27.970,8.402 C27.935,8.472 27.866,8.515 27.762,8.532 C27.658,8.550 27.527,8.541 27.371,8.506 C27.216,8.472 27.120,8.454 27.085,8.454 C27.016,8.454 26.912,8.498 26.773,8.584 C26.634,8.671 26.530,8.732 26.461,8.766 C26.426,8.766 26.410,8.888 26.410,9.130 C26.410,9.373 26.288,9.477 26.045,9.442 C25.976,9.893 25.854,10.188 25.682,10.326 C25.542,10.430 25.404,10.456 25.266,10.404 C25.126,10.352 25.040,10.240 25.005,10.066 L25.005,10.066 L25.005,10.066 C24.901,10.136 24.806,10.170 24.720,10.170 ZM49.706,24.652 C49.670,24.427 49.627,24.236 49.575,24.080 C49.523,23.924 49.462,23.777 49.394,23.638 C49.358,23.569 49.254,23.439 49.082,23.248 C48.907,23.058 48.787,22.911 48.718,22.806 C48.614,22.529 48.544,22.287 48.510,22.078 C48.510,21.975 48.466,21.896 48.379,21.844 C48.293,21.793 48.250,21.732 48.250,21.663 C48.214,21.628 48.180,21.567 48.146,21.481 C48.110,21.394 48.085,21.316 48.067,21.246 C48.050,21.177 48.024,21.108 47.990,21.039 C47.955,20.969 47.920,20.900 47.886,20.830 C47.886,20.796 47.851,20.761 47.782,20.727 C47.712,20.761 47.660,20.778 47.625,20.778 C47.694,20.883 47.782,21.082 47.886,21.376 C47.990,21.671 48.076,21.888 48.146,22.026 C48.214,22.131 48.250,22.347 48.250,22.676 C48.250,23.005 48.250,23.223 48.250,23.326 C48.284,23.396 48.458,23.552 48.770,23.794 C48.874,23.898 49.011,24.106 49.186,24.418 C49.254,24.522 49.358,24.644 49.498,24.782 C49.635,24.921 49.723,25.042 49.758,25.146 C49.758,25.042 49.739,24.878 49.706,24.652 ZM43.804,19.348 C43.925,19.088 44.020,18.942 44.089,18.906 C44.158,18.872 44.384,18.924 44.766,19.062 C44.800,19.098 44.948,19.114 45.208,19.114 C45.468,19.114 45.693,19.132 45.884,19.167 C46.074,19.201 46.152,19.288 46.118,19.426 C46.222,19.323 46.430,19.305 46.742,19.374 C47.054,19.444 47.244,19.479 47.313,19.479 C47.382,19.479 47.486,19.288 47.625,18.906 C47.764,18.594 47.816,18.265 47.782,17.919 C47.366,18.092 47.088,18.144 46.950,18.075 C46.846,18.040 46.698,18.031 46.508,18.048 C46.317,18.066 46.169,18.057 46.065,18.022 C45.961,17.988 45.806,17.901 45.598,17.763 C45.390,17.624 45.268,17.520 45.233,17.451 C45.198,17.346 45.182,17.190 45.182,16.983 C45.182,16.774 45.164,16.618 45.129,16.515 C45.060,16.549 44.981,16.610 44.896,16.696 C44.809,16.783 44.730,16.827 44.662,16.827 C45.042,17.104 45.025,17.433 44.609,17.814 C44.158,18.231 43.881,18.352 43.777,18.178 C43.708,18.075 43.673,17.892 43.673,17.632 C43.673,17.372 43.656,17.190 43.622,17.086 C43.448,16.844 43.310,16.740 43.206,16.774 C43.102,16.774 43.014,16.774 42.945,16.774 C42.945,16.809 42.972,16.904 43.024,17.060 C43.076,17.216 43.084,17.346 43.049,17.451 C43.014,17.589 42.954,17.650 42.868,17.632 C42.781,17.615 42.703,17.554 42.633,17.451 C42.529,17.382 42.452,17.277 42.400,17.139 C42.348,17.000 42.287,16.878 42.217,16.774 C42.148,16.671 42.027,16.584 41.854,16.515 C41.368,16.306 41.056,16.064 40.917,15.786 C40.848,15.682 40.788,15.613 40.736,15.578 C40.684,15.544 40.640,15.535 40.605,15.552 C40.571,15.570 40.501,15.613 40.397,15.682 C40.293,15.753 40.207,15.804 40.137,15.838 C39.999,15.908 39.756,15.891 39.409,15.786 C39.340,15.753 39.288,15.760 39.253,15.812 C39.219,15.864 39.184,15.994 39.149,16.203 C39.115,16.306 38.959,16.393 38.681,16.462 C38.577,16.497 38.439,16.618 38.265,16.827 C38.231,16.896 38.240,16.974 38.292,17.060 C38.344,17.147 38.335,17.226 38.265,17.295 C38.231,17.329 38.187,17.372 38.136,17.424 C38.083,17.476 38.032,17.528 37.979,17.580 C37.928,17.632 37.884,17.676 37.849,17.710 C37.745,17.780 37.563,17.832 37.304,17.866 C37.043,17.901 36.896,17.970 36.862,18.075 C37.173,18.109 37.451,18.075 37.693,17.970 C37.763,17.936 37.867,17.884 38.005,17.814 C38.144,17.745 38.248,17.694 38.317,17.658 C38.629,17.520 39.149,17.451 39.877,17.451 C39.912,17.451 40.103,17.416 40.449,17.346 C40.796,17.277 40.987,17.277 41.021,17.346 C41.333,17.451 41.507,17.694 41.542,18.075 C41.576,18.213 41.568,18.308 41.516,18.360 C41.464,18.412 41.385,18.448 41.281,18.464 C41.177,18.482 41.108,18.490 41.073,18.490 C41.108,18.594 41.177,18.681 41.281,18.750 C41.385,18.820 41.489,18.872 41.593,18.906 C41.697,18.942 41.828,18.984 41.984,19.036 C42.140,19.088 42.235,19.132 42.270,19.167 C42.304,19.167 42.478,19.262 42.790,19.452 C43.102,19.643 43.344,19.738 43.518,19.738 L43.518,19.738 C43.586,19.738 43.682,19.609 43.804,19.348 ZM42.582,15.735 C42.512,15.700 42.417,15.622 42.296,15.500 C42.173,15.379 42.062,15.275 41.958,15.188 C41.854,15.102 41.767,15.042 41.697,15.006 C41.663,15.076 41.750,15.214 41.958,15.422 C42.166,15.630 42.304,15.769 42.374,15.838 C42.478,15.908 42.625,16.012 42.816,16.150 C43.005,16.290 43.153,16.393 43.257,16.462 C43.222,16.324 42.998,16.081 42.582,15.735 L42.582,15.735 ZM19.520,13.862 C19.641,13.793 19.745,13.741 19.832,13.706 C19.917,13.672 20.021,13.646 20.144,13.628 C20.265,13.611 20.369,13.611 20.456,13.628 C20.542,13.646 20.620,13.706 20.689,13.810 C20.689,13.776 20.664,13.715 20.612,13.628 C20.560,13.542 20.499,13.472 20.429,13.420 C20.360,13.368 20.291,13.377 20.221,13.446 C20.117,13.550 19.944,13.620 19.701,13.654 C19.459,13.689 19.320,13.793 19.285,13.966 C19.320,13.966 19.397,13.932 19.520,13.862 ZM14.554,7.388 C14.658,7.336 14.727,7.258 14.762,7.154 C14.691,7.154 14.580,7.154 14.423,7.154 C14.268,7.154 14.155,7.154 14.086,7.154 C14.259,7.258 14.346,7.397 14.346,7.570 C14.379,7.501 14.450,7.440 14.554,7.388 ZM46.222,16.203 C46.256,16.203 46.308,16.203 46.377,16.203 C46.481,16.203 46.550,16.203 46.585,16.203 C46.724,16.203 46.811,16.185 46.846,16.150 C46.950,15.978 47.158,15.891 47.470,15.891 C47.574,15.891 47.678,15.891 47.782,15.891 C47.886,15.925 48.042,15.994 48.250,16.098 C48.388,16.168 48.475,16.220 48.510,16.254 C48.544,16.254 48.595,16.254 48.666,16.254 C48.978,16.254 49.238,16.220 49.446,16.150 L49.446,16.098 C49.446,15.960 49.375,15.856 49.238,15.786 C49.134,15.717 49.011,15.613 48.874,15.474 C48.666,15.301 48.510,15.198 48.406,15.162 C48.163,15.093 48.042,14.989 48.042,14.850 C47.972,14.989 47.868,15.110 47.729,15.214 L47.678,15.214 C47.539,15.318 47.435,15.370 47.366,15.370 C47.262,15.370 47.192,15.336 47.158,15.266 C47.019,14.920 46.897,14.712 46.793,14.642 C46.689,14.642 46.603,14.712 46.534,14.850 C46.360,15.198 46.204,15.422 46.065,15.526 C45.961,15.630 45.892,15.735 45.857,15.838 C45.961,15.908 45.996,16.047 45.961,16.254 L45.961,16.254 L45.961,16.254 C46.065,16.220 46.152,16.203 46.222,16.203 L46.222,16.203 Z" />
</svg>
