<svg id="bird" xmlns="http://www.w3.org/2000/svg" xmlns:xlink="http://www.w3.org/1999/xlink" preserveAspectRatio="xMidYMid" width="100%" height="100%" viewBox="0 0 16 16">
<path d="M13.568,5.150 C13.574,5.278 13.576,5.407 13.576,5.534 C13.576,9.462 10.688,13.989 5.407,13.989 C3.784,13.989 2.276,13.498 1.005,12.654 C1.230,12.681 1.458,12.695 1.689,12.695 C3.036,12.695 4.273,12.220 5.255,11.424 C4.000,11.400 2.938,10.542 2.573,9.361 C2.748,9.395 2.928,9.413 3.113,9.413 C3.376,9.413 3.630,9.378 3.870,9.310 C2.557,9.036 1.567,7.836 1.567,6.395 L1.567,6.358 C1.954,6.581 2.398,6.715 2.868,6.731 C2.097,6.197 1.590,5.288 1.590,4.257 C1.590,3.713 1.731,3.202 1.979,2.763 C3.395,4.561 5.512,5.743 7.898,5.868 C7.849,5.650 7.824,5.424 7.824,5.190 C7.824,3.550 9.109,2.220 10.695,2.220 C11.521,2.220 12.267,2.580 12.791,3.158 C13.444,3.024 14.059,2.777 14.614,2.437 C14.400,3.130 13.944,3.713 13.352,4.080 C13.933,4.008 14.485,3.850 15.001,3.613 C14.616,4.209 14.129,4.732 13.568,5.150 L13.568,5.150 Z" />
</svg>
