<svg version="1.1" id="layer-5-linked" xmlns="http://www.w3.org/2000/svg" xmlns:xlink="http://www.w3.org/1999/xlink" x="0px" y="0px"
	 viewBox="223 0 512 560" enable-background="new 223 0 512 560" xml:space="preserve">
<g>
	<path d="M585,157V52l105,105H585z M391.8,17c-9.4,0-16.8,7.7-16.8,17.5v161.7c5.2-0.4,9.8-1.1,15-1.1c31.5,0,63.7,11.2,80.5,31.8
		H655v210H505.5c3.5,11.5,5.6,24.1,5.6,36.8c0,11.6-1.8,22.8-4.5,33.2h200.9c9.8,0,17.5-7.7,17.5-17.5V157c0-9.8-5.6-23.1-12.2-30.1
		l-98-97.6c-7-6.6-20.3-12.2-30.1-12.2H391.8z M444.6,314.9v70.4c21.7-15.8,35.7-41.3,35.7-70.4c0-48.3-39.2-87.5-87.9-87.5
		c-48.3,0-87.5,39.2-87.5,87.5c0,28.4,13.3,53.2,34.3,69.3v-34.6c0-6.6,1.4-29.4,1.4-34.6c0-28.7,23.5-51.8,51.8-51.8
		C421.2,263.1,444.6,286.1,444.6,314.9 M480.4,454.5c0-28.7-14-54.6-35.7-70.4v70.4c0,28.7-23.4,51.8-52.1,51.8
		c-28.3,0-51.8-23.1-51.8-51.8c0-5.2-1.4-28.4-1.4-35.4v-34c-21,16.1-34.3,41.3-34.3,69.3c0,48.3,39.2,87.5,87.5,87.5
		C441.1,542,480.4,502.8,480.4,454.5 M375,349.5c0-9.8,7.7-17.5,17.5-17.5s17.5,7.7,17.5,17.5v70c0,9.8-7.7,17.5-17.5,17.5
		s-17.5-7.7-17.5-17.5V349.5"/>
</g>
</svg>
