<svg xmlns="http://www.w3.org/2000/svg" viewBox="0 -25 508 611" width="100%" height="100%" id="layer-8" enable-background="new 0 -25 508 611"><path d="M46 400.2V176.8l192.5 111.8V512L46 400.2zM256 560c3 0 6.1-.7 8.8-2.3l227.5-132.1c5.4-3.1 8.8-9 8.8-15.3v-264c0-6.4-3.3-12.2-8.8-15.4l-.4-.1L264.6 2.2c-5.2-3-11.9-3-17.1 0L20.1 130.8l-.4.2c-5.4 3.3-8.8 9.1-8.8 15.4v264c0 6.3 3.3 12.1 8.8 15.3l227.5 132.1c2.7 1.5 5.8 2.2 8.8 2.2zm17.5-48.1V288.5L466 176.8v223.4L273.5 511.9zM256 258.1L63.9 146.4 256 37.7l192.1 108.8L256 258.1z"/></svg>