<svg id="layer-pixel" xmlns="http://www.w3.org/2000/svg" xmlns:xlink="http://www.w3.org/1999/xlink" preserveAspectRatio="xMidYMid" width="100%" height="100%" viewBox="0 0 18 18">
<path d="M3.000,4.000 L15.000,4.000 L15.000,12.982 L3.000,12.982 L3.000,4.000 ZM2.000,3.000 L2.000,13.982 L16.000,13.982 L16.000,3.000 L2.000,3.000 ZM11.025,6.347 C11.025,7.130 11.691,7.764 12.512,7.764 C13.334,7.764 14.000,7.130 14.000,6.347 C14.000,5.565 13.334,4.931 12.512,4.931 C11.691,4.931 11.025,5.565 11.025,6.347 ZM4.000,11.982 L14.000,11.982 L14.000,10.951 C14.000,10.951 12.492,9.253 12.244,9.267 C11.812,9.291 10.196,10.785 9.664,10.785 C9.188,10.785 7.831,8.251 7.302,8.251 C6.772,8.251 4.000,11.095 4.000,11.095 L4.000,11.982 Z" />
</svg>
