<svg id="align-left" xmlns="http://www.w3.org/2000/svg" xmlns:xlink="http://www.w3.org/1999/xlink" preserveAspectRatio="xMidYMid" width="100%" height="100%" viewBox="0 0 16 16">
<path d="M13.960,13.000 L5.026,13.000 C4.454,13.000 3.986,12.550 3.986,12.000 L3.986,10.000 C3.986,9.450 4.454,9.000 5.026,9.000 L13.960,9.000 C14.532,9.000 15.000,9.450 15.000,10.000 L15.000,12.000 C15.000,12.550 14.532,13.000 13.960,13.000 ZM9.945,7.000 L5.026,7.000 C4.454,7.000 3.986,6.550 3.986,6.000 L3.986,4.000 C3.986,3.450 4.454,3.000 5.026,3.000 L9.945,3.000 C10.517,3.000 10.985,3.450 10.985,4.000 L10.985,6.000 C10.985,6.550 10.517,7.000 9.945,7.000 ZM1.489,14.500 C1.203,14.500 1.000,14.275 1.000,14.000 L1.000,2.000 C1.000,1.725 1.203,1.500 1.489,1.500 C1.775,1.500 2.009,1.725 2.009,2.000 L2.009,14.000 C2.009,14.275 1.775,14.500 1.489,14.500 Z" />
</svg>
