<svg id="libraries-addLayerStyle" xmlns="http://www.w3.org/2000/svg" xmlns:xlink="http://www.w3.org/1999/xlink" preserveAspectRatio="xMidYMid" width="100%" viewBox="0 0 16 16">
<path d="M3.612,5.764 C3.612,5.764 1.485,5.981 1.475,5.971 L1.475,5.715 L1.585,5.399 C1.835,4.886 1.945,4.827 2.005,4.827 L3.951,4.827 L4.201,3.989 C4.880,0.970 6.358,0.960 8.325,0.960 C8.794,0.960 9.713,1.108 9.892,1.187 C9.962,1.227 9.992,1.286 9.972,1.345 L9.613,2.233 C9.593,2.312 9.553,2.361 9.493,2.341 C9.263,2.272 8.674,2.070 8.375,2.070 C7.546,2.070 6.633,2.004 5.964,3.900 L5.739,4.778 L8.365,4.827 L8.994,4.886 C9.064,4.886 9.234,5.093 9.253,5.143 L10.472,7.628 L10.552,7.589 L12.788,5.093 C12.848,5.024 13.128,4.886 13.207,4.886 L14.525,4.886 C14.615,4.886 14.635,5.202 14.575,5.251 C13.747,6.198 12.259,7.560 11.280,8.615 L13.227,11.880 C13.267,11.939 13.227,11.998 13.157,11.998 L11.550,11.998 C11.480,11.998 10.252,9.384 10.252,9.384 L10.202,9.384 C9.563,10.193 7.696,11.998 7.616,11.998 L5.928,11.998 C5.879,11.998 5.839,11.920 5.899,11.880 C6.997,10.657 8.485,9.592 9.553,8.408 L7.865,5.952 C7.476,5.971 5.299,5.981 5.299,5.981 C4.601,8.289 2.993,12.501 2.563,13.794 C2.544,13.892 2.504,13.922 2.404,13.932 C1.915,14.001 1.385,13.962 1.226,13.971 C1.146,13.971 1.006,13.666 1.046,13.577 C1.465,12.344 3.125,7.169 3.484,6.153 L3.612,5.764 Z"/>
</svg>
