<svg id="dropdown-arrow" xmlns="http://www.w3.org/2000/svg" xmlns:xlink="http://www.w3.org/1999/xlink" preserveAspectRatio="xMidYMid" width="100%" height="100%" viewBox="0 0 11 6">
<path d="M9.054,-0.000 C8.798,-0.000 8.542,0.097 8.346,0.293 L5.054,3.585 L1.762,0.293 C1.567,0.097 1.312,-0.000 1.056,-0.000 C0.800,-0.000 0.544,0.097 0.348,0.293 C-0.042,0.683 -0.042,1.316 0.349,1.707 L0.349,1.706 L4.347,5.706 C4.537,5.895 4.787,5.999 5.054,5.999 C5.322,5.999 5.573,5.895 5.761,5.706 L9.761,1.706 C10.151,1.316 10.151,0.683 9.761,0.293 C9.566,0.097 9.310,-0.000 9.054,-0.000 "/>
</svg>
