<svg id="layer-smartobject" xmlns="http://www.w3.org/2000/svg" xmlns:xlink="http://www.w3.org/1999/xlink" preserveAspectRatio="xMidYMid" width="100%" height="100%" viewBox="0 0 18 18">
<path d="M15.000,16.000 C15.000,17.008 14.000,17.000 14.000,17.000 L5.001,17.000 C5.001,17.000 5.702,17.000 4.000,17.000 C2.922,17.000 3.000,16.000 3.000,16.000 C3.000,16.000 3.000,3.707 3.000,2.000 C3.000,0.984 4.000,1.000 4.000,1.000 L8.967,1.000 C9.378,1.000 10.233,1.475 10.525,1.750 L14.202,5.676 C14.494,5.951 15.016,6.179 15.016,7.000 L15.000,16.000 ZM6.000,10.000 L6.000,14.000 L12.000,14.000 L12.000,10.000 L6.000,10.000 ZM8.984,2.000 L8.984,5.991 C8.984,5.991 8.985,6.969 10.011,6.969 C11.200,6.969 14.016,6.969 14.016,6.969 L8.984,2.000 Z" />
</svg>
