<svg id="sampler-layerStyle" xmlns="http://www.w3.org/2000/svg" xmlns:xlink="http://www.w3.org/1999/xlink" preserveAspectRatio="xMidYMid" width="100%" height="100%" viewBox="0 0 14 14">
<path fill="#e6e6e6" d="M2.612,4.764 C2.612,4.764 0.485,4.981 0.475,4.971 L0.475,4.715 L0.585,4.399 C0.835,3.886 0.945,3.827 1.005,3.827 L2.951,3.827 L3.201,2.989 C3.880,-0.030 5.358,-0.040 7.325,-0.040 C7.794,-0.040 8.713,0.108 8.892,0.187 C8.962,0.227 8.992,0.286 8.972,0.345 L8.613,1.233 C8.593,1.312 8.553,1.361 8.493,1.341 C8.263,1.272 7.674,1.070 7.375,1.070 C6.546,1.070 5.633,1.004 4.964,2.900 L4.739,3.778 L7.365,3.827 L7.994,3.886 C8.064,3.886 8.234,4.093 8.253,4.143 L9.472,6.628 L9.552,6.589 L11.788,4.093 C11.848,4.024 12.128,3.886 12.207,3.886 L13.525,3.886 C13.615,3.886 13.635,4.202 13.575,4.251 C12.747,5.198 11.259,6.560 10.280,7.615 L12.227,10.880 C12.267,10.939 12.227,10.998 12.157,10.998 L10.550,10.998 C10.480,10.998 9.252,8.384 9.252,8.384 L9.202,8.384 C8.563,9.193 6.696,10.998 6.616,10.998 L4.928,10.998 C4.879,10.998 4.839,10.920 4.899,10.880 C5.997,9.657 7.485,8.592 8.553,7.408 L6.865,4.952 C6.476,4.971 4.299,4.981 4.299,4.981 C3.601,7.289 1.993,11.501 1.563,12.794 C1.544,12.892 1.504,12.922 1.404,12.932 C0.915,13.001 0.385,12.962 0.226,12.971 C0.146,12.971 0.006,12.666 0.046,12.577 C0.465,11.344 2.125,6.169 2.484,5.153 L2.612,4.764 Z"/>
</svg>
