<svg id="libraries-collaborate" xmlns="http://www.w3.org/2000/svg" xmlns:xlink="http://www.w3.org/1999/xlink" preserveAspectRatio="xMidYMid" width="100%" viewBox="0 0 16 16">
  <path d="M15.843,12.975 L11.718,12.975 C11.537,12.198 10.932,11.505 10.053,10.988 C10.243,10.937 10.441,10.894 10.644,10.861 L10.644,10.182 C10.053,10.030 9.613,9.491 9.613,8.851 L9.613,6.099 C9.613,5.335 10.228,4.725 10.987,4.725 L12.364,4.725 C13.121,4.725 13.738,5.340 13.738,6.099 L13.738,8.851 C13.738,9.496 13.300,10.031 12.707,10.182 L12.707,10.848 C14.343,11.093 15.601,11.933 15.843,12.975 ZM6.850,9.190 L6.850,10.139 L6.849,10.139 C9.030,10.466 10.708,11.586 11.030,12.975 L0.030,12.975 C0.347,11.610 1.973,10.504 4.099,10.156 L4.099,9.191 C3.297,8.908 2.724,8.144 2.724,7.246 L2.724,4.038 C2.724,2.904 3.648,1.975 4.788,1.975 L6.161,1.975 C7.304,1.975 8.225,2.898 8.225,4.038 L8.225,7.246 C8.225,8.139 7.651,8.906 6.850,9.190 Z"/>
</svg>
