<svg width="100%" height="100%" id="layer-1" viewBox="0 0 16 14" xmlns="http://www.w3.org/2000/svg"><g stroke="none" fill-rule="evenodd"><path d="M1.5 1.75h13v10.5h-13V1.75zm-1 10.875c0 .345.28.625.625.625h13.75c.345 0 .625-.28.625-.625V1.375c0-.345-.28-.625-.625-.625H1.125C.78.75.5 1.03.5 1.375v11.25zM5.49 5.585c.175-.3.46-.305.645-.01.5.8 1.45 2.45 1.875 3.075.205.305.42.29.615-.01.315-.48.85-1.455 1.2-2.005.185-.29.515-.29.715-.005.605.865 1.825 2.835 2.235 3.54.175.295-.055.58-.4.58h-8.75c-.345 0-.555-.27-.45-.6.265-.82 1.675-3.445 2.315-4.565"/></g></svg>