<svg version="1.1" id="libraries-addGraphic" xmlns="http://www.w3.org/2000/svg" xmlns:xlink="http://www.w3.org/1999/xlink" x="0px" y="0px"
	 width="100%" height="100%" viewBox="0 0 14 13" enable-background="new 0 0 14 13" xml:space="preserve">
  <title>
    Add Graphic
  </title>
  <path d="M5.2,10.2C5.5,11.8,6.8,13,8.3,13c1.3,0,2.4-0.8,2.9-1.8H14V4.8h-2.8V0L0,10.2H5.2z M5.2,9.4H2L10.4,2v2.8H8.6v1.8
	C6.8,6.6,5.3,7.8,5.2,9.4L5.2,9.4z M5.9,9.8c0-1.3,1.1-2.4,2.4-2.4s2.4,1.1,2.4,2.4s-1.1,2.4-2.4,2.4S5.9,11.1,5.9,9.8L5.9,9.8z"/>
</svg>
