<svg id="layer-text-missing" xmlns="http://www.w3.org/2000/svg" xmlns:xlink="http://www.w3.org/1999/xlink" preserveAspectRatio="xMidYMid" width="100%" height="100%" viewBox="0 0 18 18">
<path d="M14.000,6.000 C13.490,6.000 13.013,5.500 13.013,5.000 L13.013,4.000 L10.000,4.000 L10.000,14.000 L11.000,14.000 C11.510,14.000 12.000,14.500 12.000,15.000 C12.000,15.500 11.510,16.000 11.000,16.000 L9.235,16.000 L9.000,15.600 L8.000,13.400 L8.000,4.000 L5.000,4.000 L5.000,5.000 C5.000,5.500 4.510,6.000 4.000,6.000 C3.490,6.000 3.000,5.500 3.000,5.000 L3.000,3.000 C3.000,2.500 3.505,2.000 4.015,2.000 L14.000,2.000 C14.510,2.000 15.000,2.500 15.000,3.000 L15.000,5.000 C15.000,5.500 14.510,6.000 14.000,6.000 Z" />
<path d="M8.472,17.357 C8.388,17.189 5.005,10.474 5.005,10.474 C5.005,10.474 4.754,9.968 4.503,9.968 C4.252,9.968 4.002,10.474 4.002,10.474 C4.002,10.474 0.618,17.273 0.535,17.442 C0.451,17.610 0.451,18.032 0.952,18.032 C1.453,18.032 8.054,18.032 8.054,18.032 C8.555,18.032 8.555,17.526 8.472,17.357 ZM4.503,17.057 C4.196,17.057 3.946,16.806 3.946,16.495 C3.946,16.185 4.196,15.933 4.503,15.933 C4.810,15.933 5.060,16.185 5.060,16.495 C5.060,16.806 4.810,17.057 4.503,17.057 ZM5.005,12.785 C5.005,13.544 4.880,14.984 4.840,15.189 C4.840,15.210 4.827,15.315 4.767,15.315 L4.239,15.315 C4.199,15.315 4.174,15.217 4.163,15.189 C4.144,14.997 4.002,13.544 4.002,12.785 L4.002,12.088 C4.002,12.061 4.069,12.019 4.119,11.998 C4.239,11.950 4.339,11.953 4.489,11.953 C4.690,11.953 4.771,11.964 4.880,11.998 C4.931,12.019 5.005,12.067 5.005,12.088 L5.005,12.785 Z" />
</svg>
