<svg id="flip-vertical" xmlns="http://www.w3.org/2000/svg" xmlns:xlink="http://www.w3.org/1999/xlink" preserveAspectRatio="xMidYMid" width="100%" height="100%" viewBox="0 0 16 16">
<path d="M13.969,8.000 L1.969,8.000 C1.969,8.000 1.469,7.983 1.469,7.500 C1.469,7.017 1.969,7.000 1.969,7.000 L13.969,7.000 C13.969,7.000 14.469,6.937 14.469,7.500 C14.469,8.063 13.969,8.000 13.969,8.000 ZM12.000,5.000 L4.000,5.000 C3.448,5.000 3.000,4.552 3.000,4.000 L3.000,2.000 C3.000,1.448 3.448,1.000 4.000,1.000 L12.000,1.000 C12.552,1.000 13.000,1.448 13.000,2.000 L13.000,4.000 C13.000,4.552 12.552,5.000 12.000,5.000 ZM4.000,9.969 L12.000,9.969 C12.552,9.969 13.000,10.416 13.000,10.969 L13.000,12.969 C13.000,13.521 12.552,13.969 12.000,13.969 L4.000,13.969 C3.448,13.969 3.000,13.521 3.000,12.969 L3.000,10.969 C3.000,10.416 3.448,9.969 4.000,9.969 ZM4.000,12.969 L12.000,12.969 L12.000,10.969 L4.000,10.969 L4.000,12.969 Z"/>
</svg>
