<svg id="document" xmlns="http://www.w3.org/2000/svg" xmlns:xlink="http://www.w3.org/1999/xlink" preserveAspectRatio="xMidYMid" width="100%" height="100%" viewBox="0 0 48 64">
  <defs>
    <style>
      .cls-1 {
        fill: #000;
        fill-rule: evenodd;
      }
    </style>
  </defs>
    <path d="M40.000,64.000 L7.881,64.000 C7.881,64.000 14.809,64.000 8.000,64.000 C-0.115,64.000 -0.000,56.000 -0.000,56.000 L-0.000,8.000 C-0.000,-0.081 8.000,-0.000 8.000,-0.000 L24.000,-0.000 C25.646,-0.000 29.847,3.250 29.847,3.250 L44.557,18.958 C46.860,21.261 48.000,24.000 48.000,24.000 L48.000,56.000 C48.000,63.999 40.000,64.000 40.000,64.000 ZM23.000,3.000 L23.000,20.000 C23.000,20.000 23.938,25.000 28.000,25.000 C32.062,25.000 45.000,25.000 45.000,25.000 L23.000,3.000 ZM45.000,28.000 C45.000,28.000 35.537,28.000 28.000,28.000 C20.463,28.000 20.000,20.000 20.000,20.000 L20.000,3.000 L8.000,3.000 C4.184,3.000 3.000,8.000 3.000,8.000 L3.000,56.000 C3.000,56.000 4.053,61.000 8.000,61.000 L40.000,61.000 C44.127,61.000 45.000,56.000 45.000,56.000 L45.000,28.000 Z" class="cls-1"/>
</svg>
