<svg id="sendto" xmlns="http://www.w3.org/2000/svg" xmlns:xlink="http://www.w3.org/1999/xlink" preserveAspectRatio="xMidYMid" width="100%" height="100%" viewBox="0 0 16 16">
<path d="M11.000,16.000 L4.000,16.000 C4.000,16.000 2.000,16.025 2.000,13.980 C2.000,11.879 2.000,11.090 2.000,9.003 C2.000,6.977 4.000,7.000 4.000,7.000 L4.904,7.000 L4.904,8.000 L3.000,8.000 L3.000,15.000 L12.000,15.000 L12.000,8.000 L9.994,8.000 L9.994,7.000 L11.000,7.000 C11.000,7.000 13.000,7.015 13.000,9.000 C13.000,9.989 13.000,12.806 13.000,14.000 C13.000,15.990 11.000,16.000 11.000,16.000 ZM7.994,2.750 L7.994,12.000 L7.001,12.000 L6.994,2.750 L4.694,5.000 L3.994,4.300 L7.494,1.000 L10.944,4.250 L10.244,4.900 L7.994,2.750 Z"/>
</svg>
