<svg id="style-copy" xmlns="http://www.w3.org/2000/svg" xmlns:xlink="http://www.w3.org/1999/xlink" preserveAspectRatio="xMidYMid" width="100%" height="100%" viewBox="0 0 16 16">
<path d="M13.000,11.000 L14.000,11.000 L14.000,12.000 L13.000,12.000 L13.000,11.000 ZM13.000,9.000 L14.000,9.000 L14.000,10.000 L13.000,10.000 L13.000,9.000 ZM13.000,7.000 L14.000,7.000 L14.000,8.000 L13.000,8.000 L13.000,7.000 ZM13.000,5.000 C13.998,5.000 14.000,6.000 14.000,6.000 L13.000,6.000 L13.000,5.000 ZM11.000,13.000 L12.000,13.000 L12.000,14.000 L11.000,14.000 L11.000,13.000 ZM11.000,5.000 L12.000,5.000 L12.000,6.000 L11.000,6.000 L11.000,5.000 ZM9.000,13.000 L10.000,13.000 L10.000,14.000 L9.000,14.000 L9.000,13.000 ZM9.000,5.000 L10.000,5.000 L10.000,6.000 L9.000,6.000 L9.000,5.000 ZM9.000,2.000 L2.000,2.000 L2.000,9.000 L4.000,9.000 L4.000,10.000 C4.000,10.000 3.035,10.000 2.000,10.000 C0.965,10.000 1.000,9.000 1.000,9.000 L1.000,2.000 C1.000,2.000 1.006,1.000 2.000,1.000 C2.994,1.000 8.032,1.000 9.000,1.000 C9.968,1.000 10.000,2.000 10.000,2.000 L10.000,4.000 L9.000,4.000 L9.000,2.000 ZM6.000,5.000 L6.000,6.000 C6.000,6.000 5.664,6.000 5.000,6.000 C5.000,5.014 6.000,5.000 6.000,5.000 ZM6.000,8.000 L5.000,8.000 L5.000,7.000 L6.000,7.000 L6.000,8.000 ZM6.000,10.000 L5.000,10.000 L5.000,9.000 L6.000,9.000 L6.000,10.000 ZM6.000,12.000 L5.000,12.000 L5.000,11.000 L6.000,11.000 L6.000,12.000 ZM6.000,14.000 C5.014,14.000 5.000,13.000 5.000,13.000 L6.000,13.000 C6.000,13.000 6.000,13.336 6.000,14.000 ZM8.000,6.000 L7.000,6.000 L7.000,5.000 L8.000,5.000 L8.000,6.000 ZM8.000,14.000 L7.000,14.000 L7.000,13.000 L8.000,13.000 L8.000,14.000 ZM13.000,14.000 L13.000,13.000 C13.000,13.000 13.336,13.000 14.000,13.000 C14.000,13.986 13.000,14.000 13.000,14.000 Z"/>
</svg>
