<svg id="sampler-charStyle" xmlns="http://www.w3.org/2000/svg" xmlns:xlink="http://www.w3.org/1999/xlink" preserveAspectRatio="xMidYMid" width="100%" height="100%" viewBox="0 0 14 14">
<path fill="#e6e6e6" d="M11.013,2.000 L11.013,3.000 C11.013,3.500 11.490,4.000 12.000,4.000 C12.510,4.000 13.000,3.500 13.000,3.000 L13.000,1.000 C13.000,0.500 12.510,0.000 12.000,0.000 L2.015,0.000 C1.505,0.000 1.000,0.500 1.000,1.000 L1.000,3.000 C1.000,3.500 1.490,4.000 2.000,4.000 C2.510,4.000 3.000,3.500 3.000,3.000 L3.000,2.000 L6.000,2.000 L6.000,12.000 L5.000,12.000 C4.490,12.000 4.000,12.500 4.000,13.000 C4.000,13.500 4.490,14.000 5.000,14.000 L9.000,14.000 C9.510,14.000 10.000,13.500 10.000,13.000 C10.000,12.500 9.510,12.000 9.000,12.000 L8.000,12.000 L8.000,2.000 L11.013,2.000 Z"/>
</svg>
