<svg id="tool-typeCreateOrEdit" xmlns="http://www.w3.org/2000/svg" xmlns:xlink="http://www.w3.org/1999/xlink" preserveAspectRatio="xMidYMid" width="100%" height="100%" viewBox="0 0 16 16">
    <path d="M12.000,3.000 L12.000,4.000 C12.000,4.500 12.490,5.000 13.000,5.000 C13.510,5.000 14.000,4.500 14.000,4.000 L14.000,2.000 C14.000,1.500 13.510,1.000 13.000,1.000 L3.000,1.000 C2.490,1.000 2.000,1.500 2.000,2.000 L2.000,4.000 C2.000,4.500 2.490,5.000 3.000,5.000 C3.510,5.000 4.000,4.500 4.000,4.000 L4.000,3.000 L7.000,3.000 L7.000,13.000 L6.000,13.000 C5.490,13.000 5.000,13.500 5.000,14.000 C5.000,14.500 5.490,15.000 6.000,15.000 L10.000,15.000 C10.510,15.000 11.000,14.500 11.000,14.000 C11.000,13.500 10.510,13.000 10.000,13.000 L9.000,13.000 L9.000,3.000 L12.000,3.000 Z"/>
</svg>
