<svg id="text-right" xmlns="http://www.w3.org/2000/svg" xmlns:xlink="http://www.w3.org/1999/xlink" preserveAspectRatio="xMidYMid" width="100%" height="100%" viewBox="0 0 16 16">
<path d="M12.500,10.000 L2.500,10.000 C2.224,10.000 2.000,9.776 2.000,9.500 C2.000,9.224 2.224,9.000 2.500,9.000 L12.500,9.000 C12.776,9.000 13.000,9.224 13.000,9.500 C13.000,9.776 12.776,10.000 12.500,10.000 ZM12.500,7.000 L4.000,7.000 C3.724,7.000 3.500,6.776 3.500,6.500 C3.500,6.224 3.724,6.000 4.000,6.000 L12.500,6.000 C12.776,6.000 13.000,6.224 13.000,6.500 C13.000,6.776 12.776,7.000 12.500,7.000 ZM12.500,4.000 L2.500,4.000 C2.224,4.000 2.000,3.776 2.000,3.500 C2.000,3.224 2.224,3.000 2.500,3.000 L12.500,3.000 C12.776,3.000 13.000,3.224 13.000,3.500 C13.000,3.776 12.776,4.000 12.500,4.000 ZM8.500,12.000 L12.500,12.000 C12.776,12.000 13.000,12.224 13.000,12.500 C13.000,12.776 12.776,13.000 12.500,13.000 L8.500,13.000 C8.224,13.000 8.000,12.776 8.000,12.500 C8.000,12.224 8.224,12.000 8.500,12.000 Z" />
</svg>
