<svg id="tool-eyedropper" xmlns="http://www.w3.org/2000/svg" xmlns:xlink="http://www.w3.org/1999/xlink" preserveAspectRatio="xMidYMid" width="100%" height="100%" viewBox="0 0 16 16">
    <path d="M3.272,15.000 C3.892,15.000 4.502,14.760 4.957,14.330 L10.812,8.400 L11.947,9.535 L13.922,7.560 L12.447,6.085 L14.502,4.095 C15.182,3.375 15.162,2.220 14.462,1.520 C13.762,0.820 12.647,0.840 11.967,1.560 L9.917,3.550 L8.407,2.045 L6.432,4.020 L7.572,5.160 L1.722,11.080 C1.272,11.505 1.012,12.110 1.002,12.730 C0.992,13.345 1.222,13.915 1.647,14.345 C2.072,14.770 2.652,15.000 3.272,15.000 ZM10.107,7.690 L4.257,13.615 C3.747,14.100 2.832,14.115 2.357,13.635 C2.122,13.405 1.997,13.085 2.002,12.745 C2.007,12.390 2.157,12.050 2.422,11.795 L8.282,5.865 L10.107,7.690 Z"/>
</svg>
